<?xml version="1.0" encoding="utf-8"?>
<!-- Generator: Adobe Illustrator 21.0.1, SVG Export Plug-In . SVG Version: 6.00 Build 0)  -->
<svg version="1.1" id="Layer_1" xmlns="http://www.w3.org/2000/svg" xmlns:xlink="http://www.w3.org/1999/xlink" x="0px" y="0px"
	 viewBox="0 0 512 512" style="enable-background:new 0 0 512 512;" xml:space="preserve">
<style type="text/css">
	.st0{fill:#FFFFFF;}
</style>
<path class="st0" d="M474.3,280.1c-0.1-0.3-0.2-0.6-0.3-0.8c-0.2-0.8-0.6-1.5-0.9-2.2c-0.1-0.3-0.3-0.5-0.4-0.8
	c-1.1-1.8-2.7-3.4-4.5-4.5c-0.1-0.1-0.2-0.1-0.3-0.2l-94.3-54.3V108.1c0-1.1-0.2-2.2-0.4-3.2c-0.1-0.3-0.2-0.6-0.3-0.8
	c-0.2-0.8-0.6-1.5-0.9-2.2c-0.1-0.3-0.3-0.5-0.4-0.8c-1.1-1.8-2.7-3.4-4.5-4.5c-0.1-0.1-0.2-0.1-0.3-0.2L265.7,38.1
	c-4.2-2.4-9.4-2.4-13.6,0L150.9,96.3c-0.1,0.1-0.2,0.1-0.3,0.2c-1.9,1.1-3.4,2.7-4.5,4.5c-0.2,0.3-0.3,0.5-0.4,0.8
	c-0.4,0.7-0.7,1.5-0.9,2.2c-0.1,0.3-0.2,0.6-0.3,0.8c-0.3,1-0.4,2.1-0.4,3.2v109.1l-94.3,54.3c-0.1,0.1-0.2,0.1-0.3,0.2
	c-1.9,1.1-3.4,2.7-4.5,4.5c-0.2,0.3-0.3,0.5-0.4,0.8c-0.4,0.7-0.7,1.5-0.9,2.2c-0.1,0.3-0.2,0.6-0.3,0.8c-0.3,1-0.4,2.1-0.4,3.2
	v117.9c0,4.9,2.6,9.4,6.8,11.8l101.1,58.2c0.2,0.1,0.3,0.1,0.5,0.2c0.7,0.4,1.5,0.7,2.3,0.9c0.3,0.1,0.5,0.2,0.8,0.3
	c1,0.2,2.1,0.4,3.2,0.4c1.1,0,2.2-0.2,3.2-0.4c0.3-0.1,0.5-0.2,0.8-0.3c0.8-0.2,1.6-0.6,2.3-0.9c0.2-0.1,0.3-0.1,0.5-0.2l94.3-54.3
	l94.3,54.3c0.2,0.1,0.3,0.1,0.5,0.2c0.7,0.4,1.5,0.7,2.3,0.9c0.3,0.1,0.5,0.2,0.8,0.3c1,0.2,2.1,0.4,3.2,0.4s2.2-0.2,3.2-0.4
	c0.3-0.1,0.5-0.2,0.8-0.3c0.8-0.2,1.6-0.6,2.3-0.9c0.2-0.1,0.3-0.1,0.5-0.2l101.1-58.2c4.2-2.4,6.8-7,6.8-11.8V283.4
	C474.8,282.3,474.6,281.2,474.3,280.1z M360,325.9l-73.8-42.5l73.8-42.5l73.8,42.5L360,325.9z M171.4,349.5l73.8-42.5v86.4
	l-73.8,42.5V349.5z M171.4,131.8l73.8,42.5v85.5l-73.8-42.5V131.8z M272.5,174.3l73.8-42.5v85.5l-73.8,42.5V174.3z M258.8,65.7
	l73.8,42.5l-73.8,42.5l-73.8-42.5L258.8,65.7z M157.7,240.9l73.8,42.5l-73.8,42.5l-73.8-42.5L157.7,240.9z M70.2,307l73.8,42.5v86.4
	l-73.8-42.5V307z M272.5,307l73.8,42.5v86.4l-73.8-42.5V307z M373.6,435.9v-86.4l73.8-42.5v86.4L373.6,435.9z"/>
</svg>
