<?xml version="1.0" encoding="utf-8"?>
<!-- Generator: Adobe Illustrator 21.0.1, SVG Export Plug-In . SVG Version: 6.00 Build 0)  -->
<svg version="1.1" id="Layer_1" xmlns="http://www.w3.org/2000/svg" xmlns:xlink="http://www.w3.org/1999/xlink" x="0px" y="0px"
	 viewBox="0 0 512 512" style="enable-background:new 0 0 512 512;" xml:space="preserve">
<style type="text/css">
	.st0{fill:#FFFFFF;}
</style>
<path class="st0" d="M476.8,62.2H154.6c-7.5,0-13.7,6.1-13.7,13.7v70.5h-101c-7.5,0-13.7,6.1-13.7,13.7v232.7
	c0,7.5,6.1,13.7,13.7,13.7h28.3v27.8c0,5.3,3,10.1,7.8,12.3c1.9,0.9,3.9,1.3,5.9,1.3c3.1,0,6.1-1,8.6-3.1l47.2-38.4h224.5
	c7.5,0,13.7-6.1,13.7-13.7v-70.5h3.2l47.2,38.4c2.5,2,5.5,3.1,8.6,3.1c2,0,4-0.4,5.9-1.3c4.8-2.3,7.8-7.1,7.8-12.3v-27.8h28.3
	c7.5,0,13.7-6.1,13.7-13.7V75.9C490.5,68.3,484.4,62.2,476.8,62.2z M348.6,379.1H132.9c-3.1,0-6.2,1.1-8.6,3.1l-28.7,23.4v-12.8
	c0-7.5-6.1-13.7-13.7-13.7H53.6V173.7h295V379.1z M463.2,294.9h-28.3c-7.5,0-13.7,6.1-13.7,13.7v12.8L392.5,298
	c-2.4-2-5.5-3.1-8.6-3.1h-8V160c0-7.5-6.1-13.7-13.7-13.7h-194V89.5h295V294.9z"/>
</svg>
