<?xml version="1.0" encoding="utf-8"?>
<!-- Generator: Adobe Illustrator 21.0.1, SVG Export Plug-In . SVG Version: 6.00 Build 0)  -->
<svg version="1.1" id="Layer_1" xmlns="http://www.w3.org/2000/svg" xmlns:xlink="http://www.w3.org/1999/xlink" x="0px" y="0px"
	 viewBox="0 0 512 512" style="enable-background:new 0 0 512 512;" xml:space="preserve">
<style type="text/css">
	.st0{fill:#FFFFFF;}
</style>
<path class="st0" d="M461.3,422c0.8-1.4,1.4-3.1,1.6-4.8c4.2-29.9,5.5-60.7-13.6-83.5c-16.4-19.5-41.3-25.9-63.3-31.5
	c-7-1.8-13.6-3.5-19.6-5.4c-2.4-0.8-5-1.6-7.8-2.4c-10.5-3.2-23.6-7.2-28.3-13.7c-2.5-3.5-3.1-9.5-1.7-17.9
	c2-12.2,6.5-24.2,13.1-34.8c3-4.8,6.9-9.3,11.1-14.1c5-5.7,10.2-11.7,14.4-18.9c5-8.3,6.8-18,4.9-26.7c-1.9-8.6-7-12.8-9.7-15
	c0,0-0.1-0.1-0.1-0.1c-0.3-6.4,0.2-13.2,0.8-20.4c1.2-14.4,2.5-30.8-3.9-47.1c-7.3-18.4-24.2-33.4-46.3-41.1
	c-18-6.3-36.6-7.3-55.7-7.8c-0.1,0-0.2,0-0.4,0c0,0,0,0,0,0c0,0,0,0,0,0s0,0,0,0c0,0,0,0,0,0c-0.1,0-0.2,0-0.4,0
	c-19.1,0.5-37.7,1.5-55.7,7.8c-22.2,7.7-39.1,22.7-46.3,41.1c-6.4,16.3-5.1,32.7-3.9,47.1c0.6,7,1.1,13.6,0.8,20.4
	c0,0-0.1,0.1-0.1,0.1c-2.7,2.2-7.9,6.4-9.7,15c-1.9,8.6-0.1,18.3,4.9,26.6c4.3,7.2,9.5,13.1,14.5,18.9c4.2,4.8,8.1,9.3,11.1,14.1
	c6.6,10.6,11.2,22.6,13.1,34.8c1.4,8.4,0.8,14.4-1.7,17.9c-4.7,6.5-17.8,10.5-28.3,13.7c-2.7,0.8-5.3,1.6-7.8,2.4
	c-6,2-12.6,3.7-19.6,5.4c-22,5.6-46.9,11.9-63.2,31.5c-19.1,22.8-17.9,53.6-13.6,83.5c0.2,1.7,0.8,3.4,1.7,4.8
	c0.1,0.2,0.2,0.3,0.3,0.5c0.3,0.5,0.7,1.1,1.1,1.6c0.2,0.2,0.4,0.4,0.7,0.7c0.4,0.4,0.7,0.8,1.2,1.1c0.3,0.2,0.6,0.4,0.8,0.6
	c0.4,0.3,0.9,0.6,1.4,0.8c0.1,0.1,0.3,0.2,0.4,0.3c62.2,30.6,130.4,45.8,198.6,45.8c68.2,0,136.4-15.3,198.6-45.8
	c0.1-0.1,0.3-0.2,0.4-0.3c0.5-0.2,0.9-0.5,1.3-0.8c0.3-0.2,0.6-0.4,0.9-0.6c0.4-0.3,0.8-0.7,1.1-1.1c0.2-0.2,0.5-0.5,0.7-0.7
	c0.4-0.5,0.7-1,1.1-1.5C461.1,422.3,461.2,422.1,461.3,422z M205.4,296.6c7-9.7,9.1-22.2,6.5-38.2c-2.5-15.7-8.4-31.3-16.9-44.9
	c-4.2-6.6-9-12.2-13.7-17.6c-4.4-5.1-8.6-9.8-11.6-14.9c-1.2-2-1.8-4.4-1.7-6.2c0.1-0.1,0.3-0.2,0.4-0.3c1.7-1.3,4.1-3.4,6.4-6.6
	c3.1-4.4,3.5-9.2,3.6-11.2c0.7-9-0.1-17.6-0.7-26c-1-12.6-2-24.5,2.1-34.9c4.3-10.9,15.5-20.4,29.9-25.4c14.2-5,29.8-5.8,47.1-6.3
	c17.4,0.5,32.9,1.3,47.1,6.3c14.4,5,25.6,14.5,29.9,25.4c4.1,10.4,3.1,22.3,2.1,34.9c-0.7,8.4-1.4,17-0.7,26c0.2,2,0.5,6.8,3.6,11.2
	c2.3,3.2,4.8,5.3,6.4,6.6c0.1,0.1,0.3,0.2,0.4,0.3c0.1,1.8-0.5,4.2-1.7,6.2c-3,5.1-7.2,9.9-11.6,14.9c-4.7,5.4-9.5,11-13.7,17.6
	c-8.5,13.7-14.4,29.2-16.9,44.9c-2.6,16-0.4,28.5,6.5,38.2c5.4,7.5,13.2,12.5,21.4,16.3c-21.2,17.9-48.2,28.1-76.4,28.4
	c-27.7,0.3-54.5-8.9-76-25.7C188,311.6,198.6,306.1,205.4,296.6z M76.9,406.1c-2.5-20-3-41.2,8.5-54.9
	c10.7-12.8,30.2-17.7,49.1-22.5c4.3-1.1,8.6-2.2,12.8-3.4c27.6,27.7,65.3,43.4,104.7,43.4c0.6,0,1.2,0,1.8,0
	c39.9-0.5,77.8-17,105.2-45.7c6.6,2.2,13.7,4,20.5,5.7c18.9,4.8,38.4,9.8,49.1,22.5c11.5,13.7,10.9,34.9,8.5,54.9
	C323.6,459.3,190.1,459.3,76.9,406.1z"/>
</svg>
