<?xml version="1.0" encoding="utf-8"?>
<!-- Generator: Adobe Illustrator 21.0.1, SVG Export Plug-In . SVG Version: 6.00 Build 0)  -->
<svg version="1.1" id="Layer_1" xmlns="http://www.w3.org/2000/svg" xmlns:xlink="http://www.w3.org/1999/xlink" x="0px" y="0px"
	 viewBox="0 0 512 512" style="enable-background:new 0 0 512 512;" xml:space="preserve">
<style type="text/css">
	.st0{fill:#FFFFFF;}
</style>
<g>
	<polygon class="st0" points="291,417.4 67.7,417.4 67.7,96 291,96 291,130.2 318.3,102.9 318.3,68.7 40.4,68.7 40.4,444.7 
		318.3,444.7 318.3,340.1 291,340.1 	"/>
	<path class="st0" d="M384.5,69.1L264.6,189l0,0l0,0l-38.4,38.4v0h0l0,0v27.2v65.6l92.7,0l0,0l38.4-38.4l119.9-119.9L384.5,69.1z
		 M244.5,301.9v-39.7v-16.4v0l26.4,26.4l29.7,29.7L244.5,301.9z"/>
</g>
</svg>
