<svg id="Capa_1" data-name="Capa 1" xmlns="http://www.w3.org/2000/svg" viewBox="0 0 430.11 430.11"><defs><style>.cls-1{fill:#fff;}.cls-2{fill:#00afca;}</style></defs><title>google-plus</title><rect class="cls-1" width="430.11" height="430.11"/><g id="google-plus"><path class="cls-2" d="M352.06,186.83V141.06H321.55v45.77H275.77v30.52h45.78v45.77h30.51V217.35h45.78V186.83ZM234.58,238.71,217.79,226.5c-6.1-4.58-12.2-10.68-12.2-21.36s7.63-19.84,15.26-24.41c19.83-15.26,39.67-32,39.67-65.61,0-32-19.84-50.35-30.52-59.51h25.94l18.31-21.36h-94.6C112.52,34.25,79,77,79,122.75,79,157.84,106.41,196,155.24,196h12.2c-1.52,4.58-6.1,12.21-6.1,19.84,0,15.26,6.1,21.36,13.73,30.52-21.36,1.52-61,6.1-90,24.41C57.59,287.53,50,310.42,50,327.2c0,35.09,32,68.66,100.7,68.66,82.39,0,122.06-45.77,122.06-90C272.72,273.8,255.94,257,234.58,238.71Zm-116-138.85c0-33.57,19.83-48.82,41.19-48.82,39.67,0,61,53.4,61,83.91,0,39.67-32,47.3-44.25,47.3C138.45,182.25,118.62,135,118.62,99.86ZM173.55,374.5c-50.35,0-82.4-22.89-82.4-56.45s30.52-44.25,39.67-48.83c19.84-6.1,45.78-7.63,50.35-7.63h10.69c36.61,25.94,51.87,36.62,51.87,61C243.73,351.61,214.74,374.5,173.55,374.5Z" transform="translate(0 0)"/></g></svg>