<svg id="Capa_1" data-name="Capa 1" xmlns="http://www.w3.org/2000/svg" viewBox="0 0 430.11 430.11"><defs><style>.cls-1{fill:#fff;}.cls-2{fill:#00afca;}</style></defs><title>linkdin</title><rect class="cls-1" width="430.11" height="430.11"/><path id="LinkedIn" class="cls-2" d="M405,255.27V395.51H323.7V264.66c0-32.87-11.76-55.3-41.19-55.3-22.46,0-35.83,15.12-41.71,29.74-2.15,5.23-2.7,12.5-2.7,19.82V395.51H156.77s1.1-221.62,0-244.58h81.32V185.6c-.16.26-.38.54-.53.79h.53v-.79c10.8-16.64,30.1-40.41,73.29-40.41C364.89,145.19,405,180.14,405,255.27ZM71.7,33c-27.83,0-46,18.25-46,42.25,0,23.47,17.67,42.28,44.94,42.28h.54c28.36,0,46-18.8,46-42.28C116.63,51.29,99.52,33,71.7,33ZM30.51,395.51H111.8V150.93H30.51Z" transform="translate(0 0)"/></svg>