<svg id="Capa_1" data-name="Capa 1" xmlns="http://www.w3.org/2000/svg" viewBox="0 0 430.11 430.11"><defs><style>.cls-1{fill:#fff;}.cls-2{fill:#00afca;}</style></defs><title>twitter</title><rect class="cls-1" width="430.11" height="430.11"/><path class="cls-2" d="M412.06,92.9a161.07,161.07,0,0,1-46.41,12.73,81.14,81.14,0,0,0,35.52-44.69,163,163,0,0,1-51.35,19.63,80.89,80.89,0,0,0-137.73,73.69A229.5,229.5,0,0,1,45.51,69.81a80.92,80.92,0,0,0,25,107.88,80.78,80.78,0,0,1-36.61-10.14v1a80.89,80.89,0,0,0,64.83,79.25,81.53,81.53,0,0,1-21.3,2.84,77.25,77.25,0,0,1-15.22-1.51,80.89,80.89,0,0,0,75.49,56.14A162.2,162.2,0,0,1,37.33,339.82a170.18,170.18,0,0,1-19.27-1.11A228.46,228.46,0,0,0,142,375.08c148.68,0,230-123.15,230-230l-.27-10.46A161.51,161.51,0,0,0,412.06,92.9Z" transform="translate(0 0)"/></svg>