<svg id="Capa_1" data-name="Capa 1" xmlns="http://www.w3.org/2000/svg" viewBox="0 0 430.11 430.11"><defs><style>.cls-1{fill:#fff;}.cls-2{fill:#00afca;}</style></defs><title>youtube</title><rect class="cls-1" width="430.11" height="430.11"/><path id="YouTube" class="cls-2" d="M319.25,298.59H299.34l.09-11.56a9.38,9.38,0,0,1,9.38-9.34h1.27a9.4,9.4,0,0,1,9.4,9.34Zm-74.67-24.78c-5.05,0-9.18,3.4-9.18,7.55V337.6c0,4.15,4.13,7.53,9.18,7.53s9.2-3.38,9.2-7.53V281.36C253.78,277.2,249.65,273.81,244.58,273.81Zm121.26-31.46v107c0,25.66-22.25,46.66-49.45,46.66H113c-27.21,0-49.45-21-49.45-46.66v-107c0-25.66,22.24-46.66,49.45-46.66H316.39C343.59,195.69,365.84,216.69,365.84,242.35ZM126.58,361l0-112.69h25.22v-16.7l-67.21-.1v16.41l21,.06V361Zm75.57-95.9h-21v60.17c0,8.71.53,13.06,0,14.6-1.71,4.67-9.39,9.62-12.38.5-.51-1.59-.06-6.41-.07-14.68l-.09-60.59h-20.9l.06,59.64c0,9.14-.2,16,.08,19.06.51,5.47.33,11.84,5.4,15.49,9.46,6.81,27.58-1,32.12-10.76l0,12.43,16.88,0V265.05ZM269.39,334l0-50.09c0-19.09-14.3-30.52-33.68-15.07l.08-37.24-21,0-.1,128.53,17.27-.25,1.57-8C255.56,372.11,269.43,358.24,269.39,334Zm65.78-6.64-15.75.09c0,.62,0,1.34-.05,2.13v8.79a8.6,8.6,0,0,1-8.61,8.54h-3.09a8.6,8.6,0,0,1-8.62-8.54V315.2h36.09V301.62c0-9.93-.25-19.85-1.07-25.53-2.59-17.95-27.79-20.8-40.51-11.61a23.68,23.68,0,0,0-8.82,11.87q-2.69,7.74-2.68,21.18v29.86C282.06,377,342.37,370,335.17,327.32ZM254.33,165.18a14.36,14.36,0,0,0,5.06,6.39A14.67,14.67,0,0,0,268,174a13.43,13.43,0,0,0,8.05-2.5,19.39,19.39,0,0,0,5.9-7.55l-.4,8.25H305V72.51H286.52v77.55a7.68,7.68,0,0,1-15.36,0V72.51H251.91v67.21c0,8.56.16,14.27.41,17.16A29.29,29.29,0,0,0,254.33,165.18Zm-71-56.27q0-14.35,2.38-22.42a25,25,0,0,1,8.62-12.93q6.19-4.91,15.88-4.9a29.11,29.11,0,0,1,13.94,3.14,23.22,23.22,0,0,1,9,8.18,32.36,32.36,0,0,1,4.34,10.37c.78,3.59,1.17,9,1.17,16.32v25.2c0,9.24-.37,16-1.09,20.35a32.42,32.42,0,0,1-4.62,12.11,21.91,21.91,0,0,1-9,8.29,28.81,28.81,0,0,1-12.71,2.67A35.32,35.32,0,0,1,197.66,173a18.62,18.62,0,0,1-8.64-6.9,30.76,30.76,0,0,1-4.4-11.18c-.88-4.35-1.3-10.91-1.3-19.64V108.91Zm18.35,39.58c0,5.64,4.2,10.25,9.32,10.25s9.3-4.61,9.3-10.25v-53c0-5.64-4.19-10.24-9.3-10.24s-9.32,4.6-9.32,10.24Zm-64.84,26.78h22.1l0-76.42,26.11-65.46H160.91L147,82,132.94,33.26H109L136.8,98.89Z" transform="translate(0 0)"/></svg>