<svg xmlns="http://www.w3.org/2000/svg" viewBox="0 0 1569.08 183.17"><title>Asset 3</title><g id="Layer_2" data-name="Layer 2"><g id="Layer_1-2" data-name="Layer 1"><path d="M117.14,50.48c-2.86,2.74-5.85,5.16-8.29,8-6.55,7.74-8.67,16.79-6.87,26.71,2,10.85,8.33,18.42,18,23.41,1,.53,1.41.93,1,2.13A88.16,88.16,0,0,1,102.09,142c-6.71,7.2-14.16,8.63-23.35,5a70.3,70.3,0,0,0-9.21-3.31c-6.17-1.51-12.17-.55-18,1.87a61.35,61.35,0,0,1-9.1,3.14c-5.88,1.41-10.89-.68-15.27-4.56A70.84,70.84,0,0,1,15.57,130,90.5,90.5,0,0,1,.11,84C-.53,72.14,1.5,60.75,9,51c7.74-10,18-15.27,30.77-14.37,3.54.25,7,1.71,10.46,2.74a51.27,51.27,0,0,1,5.64,2.15,14.42,14.42,0,0,0,11.42,0,122.89,122.89,0,0,1,14-4.76c11.1-2.79,26.86,1.09,35.42,13C116.93,50.12,117.12,50.45,117.14,50.48Z"/><path d="M90.28,0a28.9,28.9,0,0,1-2.7,15.81C84,23.59,78.45,29.57,70.31,32.65c-2.68,1-5.66,1.21-8.51,1.76-1.05.2-1.37-.33-1.41-1.35-.34-7.62,2.29-14.26,6.81-20.18A33.29,33.29,0,0,1,87.11.42C88.13.19,89.18.14,90.28,0Z"/><path d="M865.27,60.59A7.85,7.85,0,0,0,859.5,63a7.76,7.76,0,0,0-2.37,5.69v34a8.09,8.09,0,0,0,8.14,8.14,7.73,7.73,0,0,0,5.73-2.37,7.92,7.92,0,0,0,2.33-5.77v-34a8.09,8.09,0,0,0-8.06-8.06Z"/><path d="M930.69,30.09l5.61-10.35a1,1,0,0,0-.39-1.58,1.09,1.09,0,0,0-1.58.47l-5.69,10.43a39.63,39.63,0,0,0-31.77,0l-5.69-10.43a1.1,1.1,0,0,0-1.58-.47,1,1,0,0,0-.39,1.58l5.61,10.35a34.65,34.65,0,0,0-13.59,12.13,30.64,30.64,0,0,0-5.06,17h73.09a30.64,30.64,0,0,0-5.06-17A34.79,34.79,0,0,0,930.69,30.09ZM898.26,45.14a3,3,0,0,1-2.17.91,2.83,2.83,0,0,1-2.13-.91,3.15,3.15,0,0,1,0-4.34,2.84,2.84,0,0,1,2.13-.91,3.07,3.07,0,0,1,2.17,5.25Zm33.3,0a2.83,2.83,0,0,1-2.13.91,3.08,3.08,0,0,1,0-6.16,2.84,2.84,0,0,1,2.13.91,3.15,3.15,0,0,1,0,4.34Z"/><path d="M876.49,114.71a8.63,8.63,0,0,0,8.69,8.69H891l.08,17.94a7.85,7.85,0,0,0,2.37,5.77,7.76,7.76,0,0,0,5.69,2.37,8.09,8.09,0,0,0,8.14-8.14V123.41h10.9v17.94a8.14,8.14,0,1,0,16.28,0V123.41h5.93a8.63,8.63,0,0,0,8.61-8.69V62.09H876.49Z"/><path d="M960.24,60.59a7.83,7.83,0,0,0-5.69,2.33,7.73,7.73,0,0,0-2.37,5.73v34a7.85,7.85,0,0,0,2.37,5.77,7.76,7.76,0,0,0,5.69,2.37,8.09,8.09,0,0,0,8.14-8.14v-34A7.73,7.73,0,0,0,966,62.92,7.93,7.93,0,0,0,960.24,60.59Z"/><path d="M183.09,113.52l-11.89,36H155.91L194.81,35h17.84l39.07,114.5h-15.8l-12.23-36ZM220.63,102,209.42,69c-2.55-7.47-4.25-14.27-5.95-20.89h-.34c-1.7,6.79-3.57,13.76-5.78,20.72L186.15,102Z"/><path d="M267.52,94.15c0-10.53-.34-19-.68-26.84h13.42l.68,14.1h.34c6.12-10,15.8-16,29.22-16,19.88,0,34.82,16.82,34.82,41.79,0,29.56-18,44.17-37.37,44.17-10.87,0-20.38-4.76-25.31-12.91h-.34v44.68H267.52Zm14.78,21.91a33.66,33.66,0,0,0,.68,6.12,23.07,23.07,0,0,0,22.42,17.5c15.8,0,25-12.91,25-31.77,0-16.48-8.66-30.58-24.46-30.58-10.19,0-19.71,7.3-22.59,18.52a24.24,24.24,0,0,0-1,6.12Z"/><path d="M364.18,94.15c0-10.53-.34-19-.68-26.84h13.42l.68,14.1h.34c6.12-10,15.8-16,29.22-16C427,65.44,442,82.26,442,107.23c0,29.56-18,44.17-37.37,44.17-10.87,0-20.38-4.76-25.31-12.91H379v44.68H364.18ZM379,116.06a33.66,33.66,0,0,0,.68,6.12,23.07,23.07,0,0,0,22.42,17.5c15.8,0,25-12.91,25-31.77,0-16.48-8.66-30.58-24.46-30.58-10.19,0-19.71,7.3-22.59,18.52a24.24,24.24,0,0,0-1,6.12Z"/><path d="M460.85,28.92h14.95V149.53H460.85Z"/><path d="M509.26,111.14c.34,20.21,13.25,28.54,28.2,28.54,10.7,0,17.16-1.87,22.76-4.25l2.55,10.7c-5.27,2.38-14.27,5.1-27.35,5.1-25.31,0-40.43-16.65-40.43-41.45s14.61-44.34,38.56-44.34c26.84,0,34,23.61,34,38.73a56.38,56.38,0,0,1-.51,7Zm43.83-10.7c.17-9.51-3.91-24.29-20.72-24.29-15.12,0-21.74,13.93-22.93,24.29Z"/><path d="M728,150c-2.36-2.36-4.59-4.72-7.82-8.19a34.28,34.28,0,0,1-24.45,9.56c-16.26,0-25.7-10.92-25.7-23.46,0-11.42,6.83-19.24,16.39-24.45v-.37c-4.34-5.46-7-11.54-7-17.5,0-10.18,7.32-20.61,21.23-20.61,10.43,0,18.5,7,18.5,17.75,0,8.81-5.09,15.76-18.37,22.34v.37c7.08,8.19,15,17.38,20.36,23.34,3.85-5.83,6.46-13.9,8.07-24.45h9.93c-2.23,13.16-5.83,23.59-12,30.91,4.47,4.72,8.81,9.43,13.78,14.77Zm-13.16-14.4c-5-5.46-14.28-15.64-23.59-26.32-4.47,2.86-10.8,8.19-10.8,17,0,9.56,7.08,16.88,17.13,16.88A23.38,23.38,0,0,0,714.82,135.63Zm-25.45-51c0,6,2.73,10.55,6.33,15,8.44-4.84,13.9-9.31,13.9-16.39,0-5.09-2.86-10.8-9.68-10.8S689.37,78.16,689.37,84.61Z"/><path d="M1036,113.52l-11.89,36h-15.29L1047.72,35h17.84l39.07,114.5h-15.8l-12.23-36ZM1073.54,102l-11.21-33c-2.55-7.47-4.25-14.27-5.95-20.89H1056c-1.7,6.79-3.57,13.76-5.78,20.72L1039.05,102Z"/><path d="M1120.43,89.56c0-8.49-.17-15.46-.68-22.25H1133l.85,13.59h.34c4.08-7.81,13.59-15.46,27.18-15.46,11.38,0,29,6.79,29,35v49.09h-14.95v-47.4c0-13.25-4.93-24.29-19-24.29-9.85,0-17.5,7-20,15.29a21.48,21.48,0,0,0-1,7v49.43h-14.95Z"/><path d="M1285.72,28.92v99.38c0,7.3.17,15.63.68,21.23H1273l-.68-14.27H1272c-4.59,9.17-14.61,16.14-28,16.14-19.88,0-35.17-16.82-35.17-41.79-.17-27.35,16.82-44.17,36.86-44.17,12.57,0,21.06,5.95,24.8,12.57h.34V28.92Zm-14.95,71.86a26.38,26.38,0,0,0-.68-6.29,22,22,0,0,0-21.57-17.33c-15.46,0-24.63,13.59-24.63,31.77,0,16.65,8.15,30.41,24.29,30.41,10,0,19.2-6.62,21.91-17.84a26,26,0,0,0,.68-6.46Z"/><path d="M1310.52,93c0-9.68-.17-18-.68-25.65h13.08l.51,16.14h.68c3.74-11,12.74-18,22.76-18a16.16,16.16,0,0,1,4.25.51V80a22.44,22.44,0,0,0-5.1-.51c-10.53,0-18,8-20,19.2a42.06,42.06,0,0,0-.68,7v43.83h-14.78Z"/><path d="M1438.78,107.74c0,30.41-21.06,43.66-40.94,43.66-22.25,0-39.41-16.31-39.41-42.3,0-27.52,18-43.66,40.77-43.66C1422.81,65.44,1438.78,82.6,1438.78,107.74Zm-65.23.85c0,18,10.36,31.6,25,31.6,14.27,0,25-13.42,25-31.94,0-13.93-7-31.6-24.63-31.6S1373.55,93,1373.55,108.59Z"/><path d="M1474.29,44.21c.17,5.1-3.57,9.17-9.51,9.17a8.89,8.89,0,0,1-9-9.17,9.11,9.11,0,0,1,9.34-9.34C1470.72,34.86,1474.29,38.94,1474.29,44.21Zm-16.65,105.32V67.31h14.95v82.22Z"/><path d="M1568.4,28.92v99.38c0,7.3.17,15.63.68,21.23h-13.42l-.68-14.27h-.34c-4.59,9.17-14.61,16.14-28,16.14-19.88,0-35.17-16.82-35.17-41.79-.17-27.35,16.82-44.17,36.86-44.17,12.57,0,21.06,5.95,24.8,12.57h.34V28.92Zm-14.95,71.86a26.38,26.38,0,0,0-.68-6.29,22,22,0,0,0-21.57-17.33c-15.46,0-24.63,13.59-24.63,31.77,0,16.65,8.15,30.41,24.29,30.41,10,0,19.2-6.62,21.91-17.84a26,26,0,0,0,.68-6.46Z"/></g></g></svg>