<?xml version="1.0" encoding="utf-8"?>
<!-- Generator: Adobe Illustrator 16.0.0, SVG Export Plug-In . SVG Version: 6.00 Build 0)  -->
<!DOCTYPE svg PUBLIC "-//W3C//DTD SVG 1.1//EN" "http://www.w3.org/Graphics/SVG/1.1/DTD/svg11.dtd">
<svg version="1.1" id="Layer_1" xmlns="http://www.w3.org/2000/svg" xmlns:xlink="http://www.w3.org/1999/xlink" x="0px" y="0px"
	 width="155px" height="101px" viewBox="0 0 155 101" enable-background="new 0 0 155 101" xml:space="preserve">
<polyline fill="none" stroke="#233850" stroke-width="3" stroke-linecap="round" stroke-linejoin="round" stroke-miterlimit="10" points="
	99.765,89.443 144.509,89.443 144.509,2.26 10.598,2.26 10.598,89.443 55.02,89.443 "/>
<rect x="18.019" y="9.681" fill="none" stroke="#233850" stroke-width="3" stroke-linecap="round" stroke-linejoin="round" stroke-miterlimit="10" width="118.747" height="74.216"/>
<path fill="none" stroke="#233850" stroke-width="3" stroke-linecap="round" stroke-linejoin="round" stroke-miterlimit="10" d="
	M99.609,89.443c-0.234,1.692-1.67,3-3.425,3H58.924c-1.755,0-3.192-1.308-3.426-3H3.177v1.362c0,4.383,3.552,7.935,7.934,7.935
	h132.564c4.381,0,7.934-3.552,7.934-7.935v-1.362H99.609z"/>
<path fill="none" stroke="#05A8C9" stroke-width="3" stroke-linecap="round" stroke-miterlimit="10" d="M108.093,54.357H86.339
	c0,11.933,9.82,21.753,21.754,21.753c11.933,0,21.753-9.82,21.753-21.753c0-11.934-9.82-21.753-21.753-21.753V54.357z"/>
<path fill="none" stroke="#233850" stroke-width="3" stroke-linecap="round" stroke-miterlimit="10" d="M103.697,49.962V28.209
	c-5.767,0-11.303,2.294-15.382,6.371c-4.076,4.079-6.371,9.616-6.371,15.382H103.697z"/>
<line fill="none" stroke="#233850" stroke-width="3" stroke-linecap="round" stroke-miterlimit="10" x1="65.772" y1="42.119" x2="57.143" y2="31.123"/>
<line fill="none" stroke="#05A8C9" stroke-width="3" stroke-linecap="round" stroke-miterlimit="10" x1="38.951" y1="54.945" x2="31.18" y2="62.141"/>
<line fill="none" stroke="#05A8C9" stroke-width="3" stroke-linecap="round" stroke-miterlimit="10" x1="53.093" y1="31.456" x2="43.439" y2="49.178"/>
<line fill="none" stroke="#05A8C9" stroke-width="3" stroke-linecap="round" stroke-miterlimit="10" x1="79.569" y1="22.517" x2="69.734" y2="41.743"/>
<circle fill="none" stroke="#233850" stroke-width="3" stroke-linecap="round" stroke-miterlimit="10" cx="28.467" cy="64.649" r="3.699"/>
<circle fill="none" stroke="#233850" stroke-width="3" stroke-linecap="round" stroke-miterlimit="10" cx="54.859" cy="28.209" r="3.698"/>
<circle fill="none" stroke="#233850" stroke-width="3" stroke-linecap="round" stroke-miterlimit="10" cx="41.663" cy="52.427" r="3.698"/>
<circle fill="none" stroke="#233850" stroke-width="3" stroke-linecap="round" stroke-miterlimit="10" cx="68.055" cy="45.03" r="3.699"/>
<circle fill="none" stroke="#233850" stroke-width="3" stroke-linecap="round" stroke-miterlimit="10" cx="81.252" cy="19.227" r="3.699"/>
</svg>
