<?xml version="1.0" encoding="utf-8"?>
<!-- Generator: Adobe Illustrator 22.0.0, SVG Export Plug-In . SVG Version: 6.00 Build 0)  -->
<svg version="1.1" id="Layer_1" xmlns="http://www.w3.org/2000/svg" xmlns:xlink="http://www.w3.org/1999/xlink" x="0px" y="0px"
	 width="141px" height="124px" viewBox="0 0 141 124" style="enable-background:new 0 0 141 124;" xml:space="preserve">
<style type="text/css">
	.st0{enable-background:new    ;}
	.st1{fill:#05A8C9;}
	.st2{fill:none;stroke:#233850;stroke-width:3;stroke-miterlimit:10;}
	.st3{fill:none;stroke:#05A8C9;stroke-width:3;stroke-miterlimit:10;}
</style>
<g class="st0">
	<path class="st1" d="M37,83.4h-2c-0.2,0-0.4-0.1-0.6-0.2s-0.3-0.3-0.3-0.5l-1.6-4.2h-8l-1.6,4.2c-0.1,0.2-0.2,0.3-0.3,0.4
		s-0.4,0.2-0.6,0.2h-2.1l7.2-18.2h2.7L37,83.4z M31.7,76.6l-2.7-7c-0.2-0.5-0.4-1.1-0.6-1.8c-0.1,0.4-0.2,0.7-0.3,1
		c-0.1,0.3-0.2,0.6-0.3,0.8l-2.7,7H31.7z"/>
	<path class="st1" d="M44.8,65.2c1.2,0,2.2,0.1,3,0.4c0.9,0.3,1.6,0.7,2.1,1.1s1,1.1,1.3,1.8c0.3,0.7,0.4,1.5,0.4,2.3
		c0,0.9-0.1,1.6-0.4,2.3c-0.3,0.7-0.7,1.3-1.3,1.8s-1.3,0.9-2.1,1.2s-1.8,0.4-3,0.4H42v6.7h-2.7v-18C39.3,65.2,44.8,65.2,44.8,65.2z
		 M44.8,74.6c0.7,0,1.3-0.1,1.8-0.3c0.5-0.2,1-0.4,1.3-0.8c0.4-0.3,0.6-0.7,0.8-1.2s0.3-1,0.3-1.5c0-1.1-0.3-2-1-2.6
		s-1.7-0.9-3.1-0.9H42v7.2h2.8V74.6z"/>
	<path class="st1" d="M57.3,83.4h-2.7V65.2h2.7V83.4z"/>
</g>
<path class="st2" d="M26.8,91.8L26.8,91.8C13.7,91.8,3,81.1,3,68l0,0c0-13.1,10.7-23.8,23.8-23.8l0,0c4.6,0,9,1.3,12.6,3.6"/>
<path class="st2" d="M115.2,44.2c6.6,0,12.5,2.7,16.8,7s7,10.3,7,16.8c0,11.4-8,20.9-18.7,23.3"/>
<path class="st2" d="M46.4,29.7c-2.2-0.8-4.6-1.3-7-1.3c-10,0-18.3,7.3-19.9,16.9C9.9,48.4,3,57.4,3,68c0,6.6,2.7,12.5,7,16.8
	s10.3,7,16.8,7h40"/>
<path class="st2" d="M47.4,34.7c-0.6-1.6-0.9-3.3-0.9-5.1C46.5,21.6,53,15,61,15s14.6,6.5,14.6,14.6"/>
<path class="st2" d="M126.5,47c0.3-1.9,0.5-3.8,0.5-5.8c0-19-15.4-34.5-34.5-34.5c-9.5,0-18.2,3.9-24.4,10.1"/>
<path class="st3" d="M120.3,93.9v-5.3l-6.5-1.5c-0.5-2.6-1.6-5.1-3-7.2l3.5-5.7l-3.8-3.8l-5.7,3.5c-2.2-1.4-4.6-2.5-7.2-3l-1.5-6.5
	h-5.3L89.4,71c-2.6,0.5-5.1,1.6-7.2,3l-5.7-3.5l-3.8,3.8l3.5,5.7c-1.4,2.2-2.5,4.6-3,7.2l-6.5,1.5V94l6.5,1.5c0.5,2.6,1.6,5.1,3,7.2
	l-3.5,5.7l3.8,3.8l5.7-3.5c2.2,1.4,4.6,2.5,7.2,3l1.5,6.5h5.3l1.5-6.5c2.6-0.5,5.1-1.6,7.2-3l5.7,3.5l3.8-3.8l-3.5-5.7
	c1.4-2.2,2.5-4.6,3-7.2L120.3,93.9z"/>
<path class="st3" d="M93.5,103.5L93.5,103.5c-6.8,0-12.3-5.5-12.3-12.3l0,0c0-6.8,5.5-12.3,12.3-12.3l0,0c6.8,0,12.3,5.5,12.3,12.3
	l0,0C105.8,98,100.3,103.5,93.5,103.5z"/>
</svg>
