<?xml version="1.0" encoding="utf-8"?>
<!-- Generator: Adobe Illustrator 21.0.1, SVG Export Plug-In . SVG Version: 6.00 Build 0)  -->
<svg version="1.1" id="Layer_1" xmlns="http://www.w3.org/2000/svg" xmlns:xlink="http://www.w3.org/1999/xlink" x="0px" y="0px"
	 viewBox="0 0 32 32" style="enable-background:new 0 0 32 32;" xml:space="preserve">
<style type="text/css">
	.st0{fill:#FFFFFF;}
</style>
<title>Asset 12</title>
<g id="Layer_2">
	<g id="Icons">
		<path class="st0" d="M0,0v32h32V0H0z M12.4,22.5H9.7v-8.7h2.7V22.5z M11.1,12.6c-0.9,0-1.6-0.7-1.6-1.6c0-0.9,0.7-1.6,1.6-1.6
			c0.9,0,1.6,0.7,1.6,1.6c0,0,0,0,0,0C12.6,11.9,11.9,12.6,11.1,12.6L11.1,12.6z M22.5,22.5h-2.7v-4.2c0-1,0-2.3-1.4-2.3
			s-1.6,1.1-1.6,2.2v4.3h-2.7v-8.7h2.6V15h0c0.4-0.7,1.2-1.4,2.5-1.4c2.7,0,3.2,1.8,3.2,4.1L22.5,22.5z"/>
	</g>
</g>
</svg>
