<?xml version="1.0" encoding="utf-8"?>
<!-- Generator: Adobe Illustrator 16.0.0, SVG Export Plug-In . SVG Version: 6.00 Build 0)  -->
<!DOCTYPE svg PUBLIC "-//W3C//DTD SVG 1.1//EN" "http://www.w3.org/Graphics/SVG/1.1/DTD/svg11.dtd">
<svg version="1.1" id="Layer_1" xmlns="http://www.w3.org/2000/svg" xmlns:xlink="http://www.w3.org/1999/xlink" x="0px" y="0px"
	 width="128px" height="96px" viewBox="0 0 128 96" enable-background="new 0 0 128 96" xml:space="preserve">
<polyline fill="none" stroke="#233850" stroke-width="3" stroke-linecap="round" stroke-linejoin="round" points="38.56,27.7 
	38.56,2.835 124.348,2.835 124.348,47.389 114.988,47.389 115.204,61.056 92.808,47.389 89.241,47.389 "/>
<line fill="none" stroke="#233850" stroke-width="3" stroke-linecap="square" stroke-linejoin="round" x1="57.308" y1="14.876" x2="110.846" y2="14.876"/>
<line fill="none" stroke="#233850" stroke-width="3" stroke-linecap="square" stroke-linejoin="round" x1="101.09" y1="27.699" x2="112.289" y2="27.699"/>
<polyline fill="none" stroke="#233850" stroke-width="3" stroke-linecap="round" stroke-linejoin="round" points="70.125,75.229 
	37.119,75.229 13.237,89.8 13.466,75.229 3.48,75.229 3.48,27.7 89.241,27.7 89.241,55.866 "/>
<path fill="none" stroke="#00A8C9" stroke-width="3" stroke-linecap="round" stroke-linejoin="round" d="M58.583,50.065
	L58.583,50.065c-3.75,3.75-9.829,3.75-13.58,0l-6.995-6.993l6.713-6.713H20.823v23.9l6.128-6.129l9.684,9.682
	c6.804,6.804,17.834,6.804,24.636,0h0.002c6.803-6.803,6.803-17.832,0-24.635l-2.69-2.688
	C62.333,40.238,62.333,46.315,58.583,50.065z"/>
<path fill="none" stroke="#00A8C9" stroke-width="3" stroke-miterlimit="10" d="M108.352,76.892v-3.823l-4.643-1.063
	c-0.385-1.87-1.124-3.61-2.14-5.148l2.535-4.039l-2.701-2.704l-4.041,2.533c-1.54-1.016-3.28-1.753-5.149-2.137l-1.064-4.642h-3.822
	l-1.063,4.642c-1.87,0.384-3.609,1.121-5.15,2.137l-4.039-2.533l-2.703,2.704l2.535,4.039c-1.018,1.538-1.757,3.278-2.137,5.148
	l-4.646,1.063v3.823l4.646,1.063c0.38,1.871,1.119,3.609,2.137,5.149l-2.535,4.039l2.703,2.704l4.039-2.535
	c1.541,1.018,3.28,1.756,5.15,2.139l1.063,4.642h3.822l1.064-4.642c1.869-0.383,3.609-1.121,5.149-2.139l4.041,2.535l2.701-2.704
	l-2.535-4.039c1.016-1.54,1.755-3.278,2.14-5.149L108.352,76.892z"/>
<path fill="none" stroke="#00A8C9" stroke-width="3" stroke-miterlimit="10" d="M89.239,82.45L89.239,82.45
	c-4.125,0-7.469-3.347-7.469-7.471s3.344-7.466,7.469-7.466c4.124,0,7.469,3.342,7.469,7.466
	C96.706,79.104,93.362,82.45,89.239,82.45z"/>
</svg>
