<?xml version="1.0" encoding="utf-8"?>
<!-- Generator: Adobe Illustrator 16.0.0, SVG Export Plug-In . SVG Version: 6.00 Build 0)  -->
<!DOCTYPE svg PUBLIC "-//W3C//DTD SVG 1.1//EN" "http://www.w3.org/Graphics/SVG/1.1/DTD/svg11.dtd">
<svg version="1.1" id="Layer_1" xmlns="http://www.w3.org/2000/svg" xmlns:xlink="http://www.w3.org/1999/xlink" x="0px" y="0px"
	 width="111px" height="112px" viewBox="0 0 111 112" enable-background="new 0 0 111 112" xml:space="preserve">
<ellipse fill="none" stroke="#233850" stroke-width="3" stroke-miterlimit="10" cx="55.708" cy="50.052" rx="52.772" ry="16.833"/>
<path fill="none" stroke="#05A8C9" stroke-width="3" stroke-linecap="round" stroke-linejoin="round" d="M3.586,73.114
	c3.355,1.64,3.868,9.896,7.329,11.212c3.487,1.327,9.298-4.526,12.867-3.531c3.587,1.002,5.573,9.029,9.221,9.697
	c3.658,0.67,8.33-6.138,12.025-5.804c3.701,0.338,7.085,7.877,10.798,7.877c3.713,0,7.097-7.539,10.798-7.877
	c3.696-0.334,8.367,6.474,12.025,5.804c3.646-0.668,5.634-8.695,9.221-9.697c3.567-0.995,9.381,4.858,12.866,3.531
	c3.461-1.315,3.975-9.572,7.329-11.212"/>
<line fill="none" stroke="#233850" stroke-width="3" stroke-miterlimit="10" x1="54.828" y1="58.144" x2="54.828" y2="28.945"/>
<path fill="none" stroke="#05A8C9" stroke-width="3" stroke-linecap="round" stroke-linejoin="round" d="M57.688,22.086
	c0,3.278-1.28,3.824-2.859,3.824c-1.579,0-2.858-0.546-2.858-3.824s2.858-5.937,2.858-5.937S57.688,18.808,57.688,22.086z"/>
<line fill="none" stroke="#233850" stroke-width="3" stroke-miterlimit="10" x1="38.953" y1="44.666" x2="38.953" y2="15.468"/>
<path fill="none" stroke="#05A8C9" stroke-width="3" stroke-linecap="round" stroke-linejoin="round" d="M41.812,8.608
	c0,3.278-1.28,3.825-2.858,3.825c-1.579,0-2.858-0.547-2.858-3.825c0-3.279,2.858-5.937,2.858-5.937S41.812,5.33,41.812,8.608z"/>
<line fill="none" stroke="#233850" stroke-width="3" stroke-miterlimit="10" x1="23.253" y1="53.372" x2="23.253" y2="24.174"/>
<path fill="none" stroke="#05A8C9" stroke-width="3" stroke-linecap="round" stroke-linejoin="round" d="M26.111,17.315
	c0,3.278-1.28,3.825-2.858,3.825c-1.579,0-2.859-0.547-2.859-3.825c0-3.279,2.859-5.937,2.859-5.937S26.111,14.037,26.111,17.315z"
	/>
<line fill="none" stroke="#233850" stroke-width="3" stroke-miterlimit="10" x1="70.704" y1="44.666" x2="70.704" y2="15.468"/>
<path fill="none" stroke="#05A8C9" stroke-width="3" stroke-linecap="round" stroke-linejoin="round" d="M67.845,8.608
	c0,3.278,1.279,3.825,2.859,3.825c1.578,0,2.857-0.547,2.857-3.825c0-3.279-2.857-5.937-2.857-5.937S67.845,5.33,67.845,8.608z"/>
<line fill="none" stroke="#233850" stroke-width="3" stroke-miterlimit="10" x1="86.404" y1="53.372" x2="86.404" y2="24.174"/>
<path fill="none" stroke="#05A8C9" stroke-width="3" stroke-linecap="round" stroke-linejoin="round" d="M83.546,17.315
	c0,3.278,1.28,3.825,2.858,3.825s2.859-0.547,2.859-3.825c0-3.279-2.859-5.937-2.859-5.937S83.546,14.037,83.546,17.315z"/>
<path fill="none" stroke="#233850" stroke-width="3" stroke-miterlimit="10" d="M108.48,50.052l-0.799,41.959
	c-0.175,9.184-23.444,16.584-51.973,16.584c-28.531,0-51.8-7.4-51.975-16.584L2.936,50.052"/>
</svg>
