<svg id="Layer_1" data-name="Layer 1" xmlns="http://www.w3.org/2000/svg" viewBox="0 0 82.59 68.55"><defs><style>.cls-1{fill:none;}.cls-2{fill:#fff;}.cls-3{fill:#cbcbcb;}.cls-4{fill:#399dbd;}</style></defs><title>Asset-18</title><g id="Layer_2" data-name="Layer 2"><g id="Icons"><line class="cls-1" x1="81.94" y1="27.32" x2="76.54" y2="23.6"/><path class="cls-2" d="M83.14,28.32l-5.39-3.7v-23H34.56V22.94A23.84,23.84,0,1,0,47.22,55.29H83.14Z" transform="translate(-1.2 -1)"/><path class="cls-3" d="M83.8,28.32h0a1.18,1.18,0,0,0,0-.2s0,0,0,0h0a.24.24,0,0,0-.06-.11.47.47,0,0,0-.06-.09h0a.81.81,0,0,0-.1-.09h0L78.4,24.26V1H33.93V22a24.49,24.49,0,1,0,13.7,34H83.8Zm-5.4-2.49,3.37,2.32L78.4,29.46ZM35.22,2.3H77.11V30L58.45,37.21l-2.28-1.59-2.35,1.63L48,35a24.77,24.77,0,0,0-7.37-9.3H72.35V24.39H40v.79a24.63,24.63,0,0,0-4.75-2.67ZM48.69,36.64l3.85,1.51-2.85,2a25.09,25.09,0,0,0-1-3.51Zm-23,31.61A23.19,23.19,0,1,1,48.89,45.07h0A23.22,23.22,0,0,1,25.7,68.25Zm22.52-13.6a24.46,24.46,0,0,0,1.71-13.09l6.23-4.37,7.34,5.14L81.09,54.64Zm34.27-.6L64.23,41.28,59.7,38.1l22.79-8.84Z" transform="translate(-1.2 -1)"/><rect class="cls-3" x="38.76" y="9.75" width="32.38" height="1.3"/><rect class="cls-3" x="38.76" y="16.57" width="11.71" height="1.3"/><rect class="cls-3" x="59.43" y="16.57" width="11.71" height="1.3"/><path class="cls-4" d="M33.77,59.41a7.7,7.7,0,0,1-1.91-.25,32.21,32.21,0,0,1-10.45-4.78,27.44,27.44,0,0,1-6.93-7.2C12,43.41,9.8,39,12.34,34.72a9.48,9.48,0,0,1,.95-1.24l.35-.41a10.13,10.13,0,0,1,2-1.89l.05,0c.86-.61,2-1.44,3.39-.92a1,1,0,0,1,.32.18h0l.06.05a1.05,1.05,0,0,1,.2.27l.41.77.33.62,0,.07c.5,1.18,1.13,2.64,1.63,4.09a2.61,2.61,0,0,1,0,2,5.12,5.12,0,0,1-1.49,1.65c-.15.12-.31.22-.47.33a3.66,3.66,0,0,0-.86.71,1.73,1.73,0,0,0,.31,2.29c2.64,2.62,5.33,5.18,8,7.63a2.28,2.28,0,0,0,2,.55c.79-.16,1.19-.72,1.68-1.76a2.75,2.75,0,0,1,.94-1.17,2.49,2.49,0,0,1,2-.49l1.56.48c1,.32,2.12.65,3.18.91a2.42,2.42,0,0,1,1.65,1.16c1.27,2.3-.63,5-1.35,6A6.42,6.42,0,0,1,33.77,59.41Zm-15.59-28a3.45,3.45,0,0,0-1.77.85l0,0a8.73,8.73,0,0,0-1.73,1.65c-.12.15-.25.29-.38.44a9.17,9.17,0,0,0-.81,1C11.28,39,13.3,43,15.56,46.46a26.26,26.26,0,0,0,6.6,6.86,30.77,30.77,0,0,0,10,4.58A5.24,5.24,0,0,0,38,55.79c.92-1.3,2.06-3.2,1.28-4.61a1.18,1.18,0,0,0-.82-.53c-1.1-.27-2.2-.61-3.27-.94l-1.53-.47a1.29,1.29,0,0,0-.9.31,1.61,1.61,0,0,0-.51.65,3.86,3.86,0,0,1-2.59,2.49,3.61,3.61,0,0,1-3.11-.88c-2.65-2.45-5.34-5-8-7.66a3,3,0,0,1-.42-4,4.76,4.76,0,0,1,1.16-1l.42-.29a3.84,3.84,0,0,0,1.12-1.22,1.55,1.55,0,0,0,0-1c-.49-1.39-1.1-2.82-1.59-4-.12-.2-.23-.42-.34-.63s-.24-.46-.36-.67A1.2,1.2,0,0,0,18.18,31.37Zm.44.09Z" transform="translate(-1.2 -1)"/></g></g></svg>