<?xml version="1.0" encoding="utf-8"?>
<!-- Generator: Adobe Illustrator 22.0.0, SVG Export Plug-In . SVG Version: 6.00 Build 0)  -->
<svg version="1.1" id="Layer_1" xmlns="http://www.w3.org/2000/svg" xmlns:xlink="http://www.w3.org/1999/xlink" x="0px" y="0px"
	 width="103px" height="130px" viewBox="0 0 103 130" style="enable-background:new 0 0 103 130;" xml:space="preserve">
<style type="text/css">
	.st0{fill:none;stroke:#223850;stroke-width:3;stroke-miterlimit:10;}
	.st1{fill:none;stroke:#05A8C9;stroke-width:3;stroke-linecap:round;stroke-linejoin:round;}
	.st2{enable-background:new    ;}
	.st3{fill:#05A8C9;}
</style>
<path class="st0" d="M68.8,74.5v43.2c0,3.1-2.5,5.7-5.7,5.7H13.8c-3.1,0-5.7-2.5-5.7-5.7v-105c0-3.1,2.5-5.7,5.7-5.7H63
	c3.1,0,5.7,2.5,5.7,5.7v25.4"/>
<line class="st0" x1="68.8" y1="108.9" x2="8.2" y2="108.9"/>
<line class="st0" x1="8.2" y1="17.6" x2="68.8" y2="17.6"/>
<path class="st0" d="M33.4,114H44c1.1,0,1.9,0.9,1.9,1.9l0,0c0,1.1-0.9,1.9-1.9,1.9H33.4c-1.1,0-1.9-0.9-1.9-1.9l0,0
	C31.5,114.9,32.3,114,33.4,114z"/>
<polygon class="st1" points="56.5,31.7 99,54 84,82.5 41.5,60.2 40.1,41.3 "/>
<g class="st2">
	<path class="st3" d="M66.1,66.1l1.1-2.1c-1.3-0.8-2.5-1.9-3-2.8l1.7-1.7c0.6,1,1.6,2.1,2.9,2.8c1.4,0.7,2.7,0.6,3.2-0.5
		c0.5-1,0.1-2-1.2-3.5c-1.8-2-2.8-3.9-1.7-5.9c1-1.9,3.1-2.6,5.5-1.8l1.1-2.1l1.8,1l-1.1,2c1.3,0.8,2.1,1.6,2.6,2.3l-1.7,1.7
		c-0.4-0.5-1.1-1.5-2.6-2.3s-2.5-0.3-2.9,0.4c-0.5,0.9,0,1.8,1.5,3.5c2,2.2,2.4,4,1.4,5.9c-1,1.9-3.1,2.8-5.8,1.9l-1,2.1L66.1,66.1z
		"/>
</g>
<ellipse class="st1" cx="52.3" cy="47.6" rx="4.1" ry="4.1"/>
<path class="st1" d="M52.3,47.6c-3.1,2.1-6.9,2.7-10.5,1.8s-6.6-3.4-8.3-6.7"/>
</svg>
