<?xml version="1.0" encoding="utf-8"?>
<!-- Generator: Adobe Illustrator 16.0.0, SVG Export Plug-In . SVG Version: 6.00 Build 0)  -->
<!DOCTYPE svg PUBLIC "-//W3C//DTD SVG 1.1//EN" "http://www.w3.org/Graphics/SVG/1.1/DTD/svg11.dtd">
<svg version="1.1" id="Layer_1" xmlns="http://www.w3.org/2000/svg" xmlns:xlink="http://www.w3.org/1999/xlink" x="0px" y="0px"
	 width="71px" height="114px" viewBox="0 0 71 114" enable-background="new 0 0 71 114" xml:space="preserve">
<path fill="none" stroke="#233850" stroke-width="3" stroke-linecap="round" stroke-linejoin="round" d="M38.383,50.029
	c3.555-1.711,7.938-0.438,9.99,2.898"/>
<path fill="none" stroke="#233850" stroke-width="3" stroke-linecap="round" stroke-linejoin="round" d="M48.373,52.938
	c3.554-1.71,7.939-0.438,9.99,2.899"/>
<path fill="none" stroke="#233850" stroke-width="3" stroke-linecap="round" stroke-linejoin="round" d="M58.377,55.886
	c3.596-1.701,8.045-0.416,10.133,2.929"/>
<polyline fill="none" stroke="#233850" stroke-width="3" stroke-linecap="square" stroke-linejoin="round" points="68.508,59.734 
	68.508,90.667 60.432,102.904 60.432,110.122 "/>
<path fill="none" stroke="#233850" stroke-width="3" stroke-linecap="square" stroke-linejoin="round" d="M25.186,110.122v-7.218
	l-10.149-11.28l-0.375-0.957V73.71c0-5.026,4.075-9.101,9.103-9.101H25.8"/>
<path fill="none" stroke="#233850" stroke-width="3" stroke-linecap="square" stroke-linejoin="round" d="M25.798,75.536V35.472
	c0-3.379,2.739-6.119,6.119-6.119c3.378,0,6.12,2.74,6.12,6.119v29.137"/>
<line fill="none" stroke="#233850" stroke-width="3" stroke-linecap="square" stroke-linejoin="round" x1="48.373" y1="53.228" x2="48.373" y2="67.588"/>
<line fill="none" stroke="#233850" stroke-width="3" stroke-linecap="square" stroke-linejoin="round" x1="58.352" y1="70.582" x2="58.352" y2="56.223"/>
<path fill="none" stroke="#05A8C9" stroke-width="3" stroke-linecap="round" stroke-linejoin="round" d="M14.731,39.696v-6.103
	c0-9.462,7.67-17.133,17.133-17.133c9.461,0,17.133,7.671,17.133,17.133v4.878"/>
<path fill="none" stroke="#05A8C9" stroke-width="3" stroke-linecap="round" stroke-linejoin="round" d="M61.234,40.919v-7.326
	c0-16.221-13.148-29.371-29.371-29.371c-16.222,0-29.371,13.15-29.371,29.371v9.774"/>
</svg>
