<?xml version="1.0" encoding="utf-8"?>
<!-- Generator: Adobe Illustrator 21.0.1, SVG Export Plug-In . SVG Version: 6.00 Build 0)  -->
<svg version="1.1" id="Layer_1" xmlns="http://www.w3.org/2000/svg" xmlns:xlink="http://www.w3.org/1999/xlink" x="0px" y="0px"
	 viewBox="0 0 512 512" style="enable-background:new 0 0 512 512;" xml:space="preserve">
<style type="text/css">
	.st0{fill:#FFFFFF;}
</style>
<path class="st0" d="M457.9,421.9c0.4-0.7,0.8-1.5,1-2.3c0.1-0.3,0.1-0.6,0.2-0.9c0.1-0.5,0.3-1,0.4-1.6c0,0,0,0,0-0.1
	c0,0,0-0.1,0-0.1c4.1-29.8,5.4-60.5-13.4-83.2c-16.1-19.6-40.7-25.9-62.4-31.5c-6.9-1.8-13.3-3.4-19.2-5.4c-2.4-0.8-5-1.6-7.7-2.4
	c-10.3-3.2-23.1-7.2-27.7-13.6c-2.4-3.5-3-9.7-1.7-18c1.9-12.2,6.4-24.3,12.9-34.9c3-4.8,6.8-9.3,10.9-14.1
	c4.9-5.7,10-11.7,14.2-18.9c4.9-8.3,6.6-17.9,4.8-26.5c-1.8-8.6-6.9-12.7-9.6-15c0,0-0.1-0.1-0.1-0.1c-0.3-6.5,0.2-13.3,0.8-20.5
	c1.2-14.4,2.5-30.8-3.9-47c-7.2-18.4-23.8-33.4-45.7-41.2c-17.8-6.3-36.1-7.3-55-7.8c-0.1,0-0.2,0-0.4,0c0,0,0,0,0,0c0,0,0,0,0,0
	s0,0,0,0c0,0,0,0,0,0c-0.1,0-0.2,0-0.4,0c-18.8,0.5-37.2,1.5-55,7.8c-21.9,7.7-38.5,22.7-45.7,41.2c-6.3,16.3-5,32.6-3.9,47
	c0.6,7,1.1,13.7,0.8,20.5c0,0-0.1,0.1-0.1,0.1c-2.7,2.2-7.7,6.4-9.6,15c-1.8,8.6-0.1,18.3,4.8,26.5c4.2,7.2,9.3,13.1,14.2,18.9
	c4.1,4.8,8,9.3,10.9,14.1c6.5,10.6,11,22.6,12.9,34.9c1.3,8.3,0.7,14.6-1.7,18c-4.6,6.4-17.4,10.4-27.7,13.6
	c-2.7,0.8-5.3,1.6-7.7,2.4c-5.9,2-12.4,3.7-19.2,5.4c-21.7,5.6-46.2,12-62.4,31.5c-18.8,22.8-17.5,53.4-13.4,83.2c0,0,0,0.1,0,0.1
	c0,0,0,0,0,0.1c0.1,0.6,0.2,1.1,0.4,1.6c0.1,0.3,0.1,0.6,0.2,0.8c0.3,0.8,0.6,1.6,1,2.3c0.1,0.2,0.3,0.4,0.4,0.6
	c0.3,0.5,0.7,1,1,1.5c0.2,0.3,0.5,0.5,0.7,0.7c0.4,0.4,0.7,0.7,1.1,1.1c0.3,0.2,0.6,0.4,0.8,0.6c0.4,0.3,0.9,0.6,1.4,0.9
	c0.1,0.1,0.2,0.2,0.4,0.2c61.2,30.6,128.4,45.9,195.5,45.9c67.2,0,134.3-15.3,195.5-45.9c0.1-0.1,0.2-0.2,0.4-0.2
	c0.5-0.3,0.9-0.5,1.4-0.9c0.3-0.2,0.6-0.4,0.8-0.6c0.4-0.3,0.8-0.7,1.1-1.1c0.2-0.2,0.5-0.5,0.7-0.7c0.4-0.5,0.7-1,1-1.5
	C457.6,422.3,457.7,422.1,457.9,421.9z M79.7,406.1c-2.4-20.1-3-41.3,8.3-55.1c10.5-12.7,29.6-17.7,48.1-22.5c7-1.8,14.3-3.7,21.1-6
	c2.2-0.7,4.5-1.5,7-2.2c14.3-4.4,32-9.9,41.9-23.9c6.9-9.7,8.9-22.1,6.4-38.1c-2.5-15.7-8.2-31.3-16.6-44.9
	c-4.1-6.6-8.8-12.2-13.5-17.6c-4.3-5.1-8.4-9.8-11.4-14.9c-1.2-2-1.8-4.5-1.7-6.3c0.1-0.1,0.3-0.2,0.4-0.3c1.6-1.3,4.1-3.4,6.3-6.7
	c3-4.4,3.4-9.2,3.5-11.1c0.6-9,0-17.6-0.7-25.9c-1-12.6-2-24.5,2.1-34.9c4.3-11,15-20.3,29.3-25.3c13.9-4.9,29.2-5.8,46.2-6.2
	c17,0.5,32.3,1.3,46.2,6.2c14.4,5.1,25.1,14.3,29.3,25.3c4.1,10.4,3.1,22.3,2.1,34.9c-0.7,8.4-1.4,17-0.7,25.9
	c0.1,2,0.5,6.7,3.5,11.2c2.2,3.2,4.7,5.3,6.3,6.6c0.1,0.1,0.3,0.2,0.4,0.3c0.1,1.8-0.5,4.3-1.7,6.4c-3,5.1-7.1,9.9-11.4,14.9
	c-4.6,5.4-9.4,11-13.5,17.6c-8.4,13.6-14.1,29.2-16.6,44.9c-2.5,16-0.4,28.4,6.4,38.1c9.9,14,27.7,19.5,41.9,23.9
	c2.4,0.8,4.8,1.5,7,2.2c6.8,2.3,14.1,4.2,21.1,6c18.5,4.8,37.6,9.7,48.1,22.5c11.3,13.7,10.8,35,8.3,55.1
	C322.1,459.3,190.9,459.3,79.7,406.1z"/>
</svg>
