<?xml version="1.0" encoding="utf-8"?>
<!-- Generator: Adobe Illustrator 21.0.1, SVG Export Plug-In . SVG Version: 6.00 Build 0)  -->
<svg version="1.1" id="Layer_1" xmlns="http://www.w3.org/2000/svg" xmlns:xlink="http://www.w3.org/1999/xlink" x="0px" y="0px"
	 viewBox="0 0 512 512" style="enable-background:new 0 0 512 512;" xml:space="preserve">
<style type="text/css">
	.st0{fill:#FFFFFF;}
</style>
<path class="st0" d="M430.1,320v-79.3H272.5v-51.7h51.9V57.8H193.3v131.1h51.9v51.7H92.4V320h-52V451h131.1V320h-51.7v-52h125.4v52
	h-51.9V451h131.1V320h-51.9v-52h130.3v52h-56.6V451h131.1V320H430.1z M220.6,85.1h76.5v76.5h-76.5V85.1z M144.2,423.7H67.7v-76.5
	h76.5V423.7z M297.1,423.7h-76.5v-76.5h76.5V423.7z M450,423.7h-76.5v-76.5H450V423.7z"/>
</svg>
