<?xml version="1.0" encoding="utf-8"?>
<!-- Generator: Adobe Illustrator 21.0.1, SVG Export Plug-In . SVG Version: 6.00 Build 0)  -->
<svg version="1.1" id="Layer_1" xmlns="http://www.w3.org/2000/svg" xmlns:xlink="http://www.w3.org/1999/xlink" x="0px" y="0px"
	 viewBox="0 0 512 512" style="enable-background:new 0 0 512 512;" xml:space="preserve">
<style type="text/css">
	.st0{fill:#FFFFFF;}
</style>
<path class="st0" d="M257.6,38.6c-105.9,0-218.4,30-218.4,85.7v261.4c0,55.6,112.5,85.7,218.4,85.7s218.5-30,218.5-85.7V124.3
	C476.1,68.7,363.5,38.6,257.6,38.6z M66.5,254.5c39.8,27.9,117.1,42.6,191.1,42.6c74.1,0,151.4-14.7,191.1-42.6v44.1
	c0,24.4-72.7,58.4-191.1,58.4S66.5,323,66.5,298.6V254.5z M257.6,269.8c-118.4,0-191.1-34-191.1-58.4v-44
	c39.8,27.9,117.1,42.6,191.1,42.6c74.1,0,151.4-14.7,191.1-42.6v44C448.8,235.8,376.1,269.8,257.6,269.8z M257.6,66
	c118.4,0,191.1,34,191.1,58.4s-72.7,58.4-191.1,58.4s-191.1-34-191.1-58.4S139.2,66,257.6,66z M257.6,444.1
	c-118.4,0-191.1-34-191.1-58.4v-44.1c39.8,27.9,117.1,42.6,191.1,42.6c74.1,0,151.4-14.7,191.1-42.6v44.1
	C448.8,410.1,376.1,444.1,257.6,444.1z"/>
</svg>
