<?xml version="1.0" encoding="utf-8"?>
<!-- Generator: Adobe Illustrator 21.0.1, SVG Export Plug-In . SVG Version: 6.00 Build 0)  -->
<svg version="1.1" id="Layer_1" xmlns="http://www.w3.org/2000/svg" xmlns:xlink="http://www.w3.org/1999/xlink" x="0px" y="0px"
	 viewBox="0 0 512 512" style="enable-background:new 0 0 512 512;" xml:space="preserve">
<style type="text/css">
	.st0{fill:#FFFFFF;}
</style>
<g>
	<path class="st0" d="M255.1,37.9c-119.6,0-216.6,97-216.6,216.6c0,119.6,97,216.6,216.6,216.6c119.6,0,216.6-97,216.6-216.6
		C471.6,134.8,374.6,37.9,255.1,37.9z M255.1,443.7c-104.4,0-189.2-84.9-189.2-189.2c0-104.4,84.9-189.2,189.2-189.2
		c104.3,0,189.2,84.9,189.2,189.2C444.3,358.8,359.4,443.7,255.1,443.7z"/>
	<path class="st0" d="M242.7,334c-16.2,0-24.2,8.3-24.2,24.9c0,8,2.1,14.3,6.3,18.7c4.2,4.5,10.2,6.7,18,6.7s13.8-2.3,18.1-6.8
		c4.2-4.6,6.3-10.7,6.3-18.5c0-7.9-2.1-14-6.3-18.4C256.6,336.2,250.6,334,242.7,334z"/>
	<path class="st0" d="M304.2,150.9c-12.6-10.5-29.7-15.8-51.3-15.8c-25.5,0-49.4,6.2-71.7,18.6l13.8,29c8.5-4.2,17.1-7.8,26-10.7
		c8.9-3,18.6-4.5,29-4.5c11.5,0,20.4,2.5,26.5,7.4c6.2,4.9,9.2,12,9.2,21.3c0,7.9-1.9,14.7-5.7,20.4c-3.8,5.7-12.2,13.7-25.3,24.1
		c-11,8.6-18.7,16.9-23.1,24.9c-4.4,8-6.6,18.1-6.6,30.2v10.6h32.3v-7.4c0-8.9,1.7-16,5.2-21.3c3.5-5.3,10.3-11.9,20.5-20
		c12-9.3,20.4-16.9,25.3-22.7c4.9-5.8,8.5-12,11-18.4c2.4-6.4,3.6-13.8,3.6-22C323.1,176,316.8,161.4,304.2,150.9z"/>
</g>
</svg>
