<?xml version="1.0" encoding="utf-8"?>
<!-- Generator: Adobe Illustrator 21.0.1, SVG Export Plug-In . SVG Version: 6.00 Build 0)  -->
<svg version="1.1" id="Layer_1" xmlns="http://www.w3.org/2000/svg" xmlns:xlink="http://www.w3.org/1999/xlink" x="0px" y="0px"
	 viewBox="0 0 512 512" style="enable-background:new 0 0 512 512;" xml:space="preserve">
<style type="text/css">
	.st0{fill:#FFFFFF;}
</style>
<path class="st0" d="M462.9,295.3c-10.5-12.5-26.1-16.5-38.8-19.7c-3.8-1-7.4-1.9-10.6-3c-1.4-0.5-2.9-0.9-4.5-1.4
	c-3.7-1.1-11.4-3.5-12.8-5.4c0,0-0.7-1.4,0-5.8c1-6.1,3.3-12.2,6.6-17.5c1.4-2.3,3.5-4.7,5.7-7.2c2.8-3.3,6.1-7,8.8-11.5
	c3.6-6,4.8-13,3.4-19.3c-1-4.8-3.4-7.9-5.5-10c0-2.6,0.2-5.4,0.5-8.3c0.7-8.8,1.5-18.8-2.6-29.3c-4.7-12-15.6-21.7-29.7-26.7
	c-11-3.8-22-4.4-33.2-4.7c-0.1,0-0.2,0-0.4,0c-0.1,0-0.2,0-0.3,0c0,0,0,0-0.1,0c-11.2,0.3-22.2,0.9-33.2,4.7
	c-14.1,4.9-25,14.6-29.7,26.6c-2.8,7.1-3.3,14.1-3.1,20.5c-0.7-0.7-1.3-1.3-1.8-1.8c-0.1-4.3,0.3-8.8,0.7-13.6
	c0.9-11.3,2-24.2-3.2-37.3c-5.9-14.9-19.4-27-37.1-33.1c-14.1-4.9-28.5-5.7-43.3-6.1c-0.1,0-0.2,0-0.4,0c0,0,0,0,0,0c0,0,0,0,0,0
	s0,0,0,0c0,0,0,0,0,0c-0.1,0-0.2,0-0.4,0c-14.8,0.4-29.2,1.2-43.3,6.1c-17.7,6.2-31.3,18.3-37.1,33.1c-5.2,13.1-4.1,25.9-3.2,37.3
	c0.4,4.7,0.7,9.3,0.6,13.6c-2.4,2.1-6,5.8-7.5,12.4c-1.6,7.3-0.1,15.6,4.1,22.6c3.4,5.7,7.4,10.3,11.3,14.8c3.1,3.5,6,6.9,8.1,10.3
	c4.8,7.7,8.1,16.4,9.5,25.2c1.2,7.5-0.1,10.3-0.7,11.2c-2.9,4-12.6,7-19.7,9.1c-2.1,0.6-4.1,1.3-6,1.9c-4.4,1.5-9.4,2.7-14.6,4.1
	c-17.2,4.4-36.6,9.3-49.7,25c-15.3,18.3-14.4,42.6-11,66c0.2,1.7,0.8,3.4,1.6,4.8c0.1,0.2,0.3,0.4,0.4,0.5c0.3,0.5,0.7,1,1.1,1.5
	c0.2,0.2,0.4,0.5,0.7,0.7c0.4,0.4,0.7,0.8,1.2,1.1c0.3,0.2,0.5,0.4,0.8,0.6c0.4,0.3,0.9,0.6,1.4,0.9c0.1,0.1,0.2,0.2,0.4,0.2
	c47.6,23.4,99.9,35.2,152.1,35.2c52.2,0,104.5-11.7,152.1-35.2c0.1-0.1,0.2-0.2,0.4-0.2c0.5-0.3,0.9-0.6,1.4-0.9
	c0.3-0.2,0.6-0.4,0.8-0.6c0.4-0.3,0.8-0.7,1.2-1.1c0.2-0.2,0.5-0.4,0.7-0.7c0.3-0.4,0.6-0.8,0.9-1.3c37.6-0.9,75-9.9,108.8-26.5
	c0.1-0.1,0.2-0.1,0.3-0.2c0.6-0.3,1.1-0.6,1.6-1c0.2-0.1,0.4-0.3,0.6-0.4c0.5-0.4,1-0.9,1.4-1.4c0.1-0.1,0.3-0.3,0.4-0.4
	c1.6-1.9,2.8-4.3,3.1-6.9C474.5,328.9,475.2,310,462.9,295.3z M308.6,208.8c2.6-3.8,2.9-7.8,3-9.3c0.4-5.5,0-10.6-0.4-15.5
	c-0.5-6.7-1-12.5,0.8-17.1c1.8-4.5,6.8-8.6,13.3-10.9c7.3-2.5,15.5-3,24.8-3.2c9.1,0.3,17.2,0.7,24.4,3.2
	c6.5,2.3,11.5,6.3,13.3,10.9c1.8,4.6,1.3,10.3,0.8,17c-0.4,4.9-0.8,10.1-0.4,15.6c0.1,1.5,0.4,5.5,3.1,9.3c0.6,0.9,1.2,1.6,1.8,2.3
	c-1.4,2-3.2,4.1-5.1,6.3c-2.7,3.1-5.7,6.5-8.3,10.7c-5.2,8.4-8.8,17.9-10.4,27.6c-1.7,10.5-0.1,19.3,4.7,26
	c6.8,9.5,18.5,13.1,27.1,15.7c1.3,0.4,2.6,0.8,3.8,1.2c4.1,1.4,8.4,2.5,12.5,3.5c10.2,2.6,19.8,5,24.6,10.8
	c4.3,5.1,4.6,13.8,3.8,23.1c-27,12.2-56.3,19.3-85.9,20.6c0.4-16.1-2.4-31.6-13-44.2c-9.1-10.9-21.2-16.5-33.6-20.5
	c4.7-2.4,9.2-5.6,12.5-10.2c4.8-6.7,6.4-15.4,4.7-26c-1.6-9.7-5.2-19.3-10.4-27.6c-2.6-4.1-5.6-7.6-8.3-10.6
	c-1.9-2.1-3.6-4.2-5.1-6.4C307.3,210.4,307.9,209.7,308.6,208.8z M273.7,225.5c2.1-2.4,4.2-4.8,6.2-7.4c0.6,2,1.4,3.9,2.5,5.8
	c2.7,4.5,5.9,8.3,8.8,11.5c2.2,2.5,4.3,4.9,5.7,7.2c3.3,5.3,5.6,11.3,6.5,17.4c0.7,4.3,0.1,5.7,0.1,5.7c-1.5,2-9.2,4.4-12.9,5.5
	c-1.6,0.5-3.1,0.9-4.5,1.4c-3.1,1-6.7,2-10.5,2.9c-3,0.8-6.1,1.6-9.2,2.5c-4.3-1.6-8.1-3.6-9.7-5.8c-0.6-0.9-2-3.7-0.7-11.2
	c1.4-8.8,4.7-17.6,9.5-25.2C267.7,232.4,270.6,229,273.7,225.5z M64.8,367.2c-1.6-14.6-1.4-28.6,5.9-37.3c7.4-8.9,21.1-12.4,35.5-16
	c5.5-1.4,11.1-2.8,16.5-4.6c1.7-0.6,3.4-1.1,5.3-1.7c11.4-3.5,25.7-7.8,33.9-19.3c5.8-8,7.6-18.6,5.5-31.5
	c-2-12.4-6.6-24.6-13.3-35.4c-3.3-5.3-7-9.6-10.7-13.8c-3.2-3.7-6.3-7.3-8.5-10.9c-0.3-0.6-0.6-1.1-0.7-1.6c1.3-1.1,2.9-2.6,4.4-4.8
	c2.6-3.7,3.1-7.4,3.3-10.2c0.5-7.1,0-13.8-0.6-20.2c-0.8-9.6-1.4-17.8,1.4-25c2.9-7.4,10.6-13.9,20.7-17.4
	c10.3-3.6,21.8-4.2,34.7-4.6c12.9,0.4,24.4,1,34.7,4.6c10.1,3.5,17.8,10,20.7,17.4c2.8,7.2,2.2,15.5,1.4,25
	c-0.5,6.5-1.1,13.2-0.6,20.2c0.2,2.8,0.8,6.5,3.3,10.2c1.5,2.2,3.1,3.7,4.4,4.8c-0.1,0.5-0.4,1-0.7,1.6c-2.2,3.6-5.2,7.1-8.5,10.9
	c-3.6,4.2-7.4,8.5-10.7,13.8c-6.7,10.7-11.3,23-13.3,35.4c-2.1,12.9-0.2,23.5,5.5,31.5c6.7,9.3,17.3,13.9,27.1,17.2
	c0.2,0.1,0.3,0.1,0.5,0.2c2.2,0.7,4.3,1.4,6.3,2c1.9,0.6,3.6,1.1,5.3,1.7c5.4,1.8,11,3.2,16.5,4.6c14.4,3.7,28.1,7.2,35.5,16
	c7.3,8.7,7.5,22.7,5.9,37.3C247.6,406.2,148.9,406.2,64.8,367.2z"/>
</svg>
