<?xml version="1.0" encoding="utf-8"?>
<!-- Generator: Adobe Illustrator 21.0.1, SVG Export Plug-In . SVG Version: 6.00 Build 0)  -->
<svg version="1.1" id="Layer_1" xmlns="http://www.w3.org/2000/svg" xmlns:xlink="http://www.w3.org/1999/xlink" x="0px" y="0px"
	 viewBox="0 0 512 512" style="enable-background:new 0 0 512 512;" xml:space="preserve">
<style type="text/css">
	.st0{fill:#FFFFFF;}
</style>
<path class="st0" d="M352.8,275c-6.2-9.7-14.2-17.7-23.7-24c-9.2-6-19.6-10.8-31-14.4c-8.4-2.6-16.9-5.2-25.5-7.6l0.1-122.2
	c6,0.5,11.2,1.6,15.7,3.1c7.1,2.5,13,5.1,17.5,7.9c4.6,2.8,8.2,5.4,10.7,7.6c1.9,1.8,3.7,3.1,5.4,4.1l6.6,3.9l18.5-20l-7.1-6.5
	c-10.4-9.5-21.7-16.8-33.4-21.6c-10.1-4.1-21.5-6.7-33.9-7.6l-0.1-41.6h-27.2l-0.5,9c0,0.6,0,1.3,0,1.5l0.1,31.9
	c-11.4,1.5-21.8,4.4-31,8.8c-11.6,5.4-21.4,12.4-29.2,20.8c-7.9,8.4-13.8,18.2-17.6,28.9c-3.8,10.6-5.4,21.7-5,33
	c0.6,14.4,3.8,26.7,9.4,36.4c5.5,9.6,12.8,17.6,21.6,23.9c8.4,6.1,18,11,28.4,14.7c7.6,2.7,15.5,5.2,23.5,7.5l-0.1,138.9
	c-4.8-0.3-9.3-0.9-13.3-1.8c-6.7-1.5-12.6-3.4-17.8-5.8c-5.2-2.4-9.8-4.9-13.6-7.5c-3.9-2.7-7.3-5.3-10.1-7.7
	c-3-2.6-5.4-4.7-7.4-6.4c-1.7-1.5-3.3-2.6-4.8-3.4l-6.4-3.3l-18.1,19.6l6.2,6.5c5.6,5.8,11.5,11.1,17.5,15.6c6.8,5.1,14.2,9.5,22,13
	c7.8,3.5,16.4,6.2,25.6,8c6.3,1.2,13,2,20.1,2.3l0.1,52.5h27l0.7-8.8c0.1-0.7,0.1-1.5,0.1-1.9l-0.1-43.1c12.7-1.8,24.2-5.2,34.4-10
	c12.7-6,23.4-14.1,32-23.8c8.5-9.7,14.9-21,19.1-33.5c4.1-12.4,5.9-25.7,5.3-39.6C362.7,297.5,359.2,284.9,352.8,275z M272.6,389.7
	l0-129.3c5.6,1.7,11.1,3.4,16.5,5.1c8.6,2.8,16.2,6.4,22.9,10.8c6.2,4.1,11.3,9.3,15.1,15.6c3.7,6,5.8,14,6.2,23.7
	c0.4,9.7-0.9,19.1-3.8,27.8c-2.9,8.5-7.3,16.2-13.3,22.9c-6,6.7-13.6,12.3-22.5,16.6C287.4,386,280.3,388.3,272.6,389.7z
	 M244.9,108.1l0,112.9c-4.6-1.5-9.1-3.1-13.5-4.8c-7.7-2.9-14.5-6.6-20.3-10.9c-5.4-4-9.9-9.1-13.3-15c-3.3-5.8-5.1-13.2-5.5-22.1
	c-0.3-7.5,0.8-14.8,3.2-21.9c2.4-6.9,6.2-13.2,11.3-18.7c5.2-5.5,11.8-10.2,19.8-13.9C232,111.2,238.1,109.3,244.9,108.1z"/>
</svg>
