<?xml version="1.0" encoding="utf-8"?>
<!-- Generator: Adobe Illustrator 21.0.1, SVG Export Plug-In . SVG Version: 6.00 Build 0)  -->
<svg version="1.1" id="Layer_1" xmlns="http://www.w3.org/2000/svg" xmlns:xlink="http://www.w3.org/1999/xlink" x="0px" y="0px"
	 viewBox="0 0 512 512" style="enable-background:new 0 0 512 512;" xml:space="preserve">
<style type="text/css">
	.st0{fill:#FFFFFF;}
</style>
<g>
	<path class="st0" d="M257.3,90.5c-51.1,0-92.8,41.6-92.8,92.8c0,51.2,41.6,92.8,92.8,92.8c51.2,0,92.8-41.6,92.8-92.8
		C350,132.1,308.4,90.5,257.3,90.5z M257.3,248.8c-36.1,0-65.4-29.4-65.4-65.5c0-36.1,29.4-65.5,65.4-65.5
		c36.1,0,65.5,29.4,65.5,65.5C322.7,219.4,293.4,248.8,257.3,248.8z"/>
	<path class="st0" d="M411.2,185.1c-0.4-1.2-0.4-2.5,0-3.7l11.1-30.7c5.1-14.1,0-29.8-12.4-38.2l-27-18.3c-1-0.7-1.8-1.7-2.1-3
		l-9-31.4c-4.1-14.4-17.6-24.2-32.5-23.6l-32.6,1.1c-1.1,0-2.5-0.4-3.5-1.1l-25.7-20.1C265.5,7,249,7,237.2,16.2l-25.7,20.1
		c-1,0.8-2.1,1.1-3.5,1.1l-32.6-1.1c-15.1-0.6-28.4,9.2-32.5,23.6l-9,31.4c-0.3,1.2-1.1,2.3-2.2,3l-27,18.3
		c-12.4,8.4-17.6,24.1-12.4,38.2l11.1,30.7c0.4,1.2,0.4,2.5,0,3.7l-11.1,30.7c-5.1,14.1,0,29.8,12.4,38.2l27,18.3
		c1,0.7,1.8,1.8,2.2,3l9,31.4c3.1,10.8,11.4,19.1,21.7,22.2v158.3c0,5.3,3.1,10.1,7.8,12.3c4.8,2.3,10.4,1.5,14.5-1.8l70.4-58
		l70.4,58c2.5,2.1,5.6,3.1,8.7,3.1c2,0,4-0.4,5.8-1.3c4.8-2.3,7.8-7.1,7.8-12.3V328.7c10.3-3.2,18.6-11.3,21.7-22.1l9-31.4
		c0.3-1.2,1.1-2.3,2.1-3l27-18.3c12.4-8.4,17.6-24.1,12.4-38.2L411.2,185.1z M265.9,411.4c-5-4.2-12.3-4.2-17.4,0l-56.8,46.8V329.7
		l16.2-0.6c1.1,0,2.5,0.4,3.5,1.1l25.7,20.1c5.9,4.6,13,6.9,20.1,6.9c7.1,0,14.2-2.3,20.1-6.9l25.7-20.1c1-0.8,2.2-1.1,3.5-1.1
		l16.2,0.6v128.5L265.9,411.4z M385.5,194.4l11.1,30.7c0.8,2.3,0,4.9-2,6.3l-27.1,18.3c-6.3,4.3-11,10.7-13.1,18.1l-9,31.4
		c-0.7,2.4-2.7,3.9-5.3,3.9l-32.6-1.1c-7.7-0.2-15.2,2.2-21.2,6.9l-25.7,20.1c-1.9,1.5-4.7,1.5-6.6,0l-25.7-20.1
		c-5.7-4.5-12.9-6.9-20.1-6.9c-0.4,0-0.7,0-1.1,0l-32.6,1.1c-2.4,0-4.6-1.5-5.3-3.9l-9-31.4c-2.1-7.4-6.8-13.8-13.1-18.1l-27-18.3
		c-2-1.4-2.9-4-2-6.3l11.1-30.7c2.6-7.2,2.6-15.1,0-22.3l-11.1-30.7c-0.8-2.3,0-4.9,2-6.3l27-18.2c6.4-4.3,11-10.7,13.1-18.1l9-31.4
		c0.7-2.4,2.8-3.9,5.3-3.9l32.6,1.1c7.6,0.3,15.2-2.2,21.2-6.9L254,37.7c1.9-1.5,4.6-1.5,6.6,0l25.7,20.1c6,4.7,13.6,7.1,21.2,6.9
		l32.6-1.1c2.6,0.1,4.7,1.5,5.3,3.9l9,31.4c2.1,7.4,6.8,13.8,13.1,18.1l27,18.3c2,1.4,2.9,4,2,6.3l-11.1,30.7
		C382.9,179.3,382.9,187.2,385.5,194.4z"/>
</g>
</svg>
