<?xml version="1.0" encoding="utf-8"?>
<!-- Generator: Adobe Illustrator 16.0.0, SVG Export Plug-In . SVG Version: 6.00 Build 0)  -->
<!DOCTYPE svg PUBLIC "-//W3C//DTD SVG 1.1//EN" "http://www.w3.org/Graphics/SVG/1.1/DTD/svg11.dtd">
<svg version="1.1" id="Layer_1" xmlns="http://www.w3.org/2000/svg" xmlns:xlink="http://www.w3.org/1999/xlink" x="0px" y="0px"
	 width="80.13px" height="66.726px" viewBox="0 0 80.13 66.726" enable-background="new 0 0 80.13 66.726" xml:space="preserve">
<path fill="none" stroke="#C4C4C4" stroke-width="1.606" stroke-miterlimit="10" d="M46.424,39.273l6.654-4.658l10.397,7.277
	 M79.326,26.741v26.248H44.338"/>
<polyline fill="none" stroke="#C4C4C4" stroke-width="1.606" stroke-miterlimit="10" points="74.031,28.795 73.352,29.061 
	65.012,32.298 63.021,33.07 63.014,33.073 59.896,34.282 55.636,35.938 55.207,36.104 "/>
<polyline fill="none" stroke="#C4C4C4" stroke-width="1.606" stroke-miterlimit="10" points="50.891,36.146 50.889,36.146 
	50.248,35.895 48.49,35.209 46.335,34.366 44.338,33.579 "/>
<path fill="none" stroke="#C4C4C4" stroke-width="1.606" stroke-linejoin="round" stroke-miterlimit="10" d="M53.078,34.615"/>
<polyline fill="none" stroke="#C4C4C4" stroke-width="1.606" stroke-linejoin="round" stroke-miterlimit="10" points="
	44.338,33.579 50.781,36.104 53.078,34.615 79.327,52.989 44.338,52.989 "/>
<polyline fill="none" stroke="#C4C4C4" stroke-width="1.606" stroke-linejoin="round" stroke-miterlimit="10" points="
	74.078,23.126 79.326,26.741 74.076,28.774 74.076,0.803 32.08,0.803 32.08,21.928 "/>
<line fill="none" stroke="#C4C4C4" stroke-width="1.606" stroke-miterlimit="10" x1="37.33" y1="10.291" x2="68.828" y2="10.291"/>
<line fill="none" stroke="#C4C4C4" stroke-width="1.606" stroke-miterlimit="10" x1="37.33" y1="16.921" x2="49.383" y2="16.921"/>
<line fill="none" stroke="#C4C4C4" stroke-width="1.606" stroke-miterlimit="10" x1="56.775" y1="16.921" x2="68.828" y2="16.921"/>
<line fill="none" stroke="#C4C4C4" stroke-width="1.606" stroke-miterlimit="10" x1="37.33" y1="23.551" x2="68.828" y2="23.551"/>
<circle fill="none" stroke="#C4C4C4" stroke-width="1.606" stroke-linejoin="round" stroke-miterlimit="10" cx="23.613" cy="43.112" r="22.811"/>
<g>
	<path fill="none" stroke="#2EA4BC" stroke-width="2" stroke-miterlimit="10" d="M21.783,45.158
		c-2.636-2.636-5.156-5.689-3.949-6.896c1.728-1.728,3.232-2.793,0.172-6.602c-3.062-3.809-5.104-0.883-6.777,0.791
		c-1.931,1.932-0.102,9.131,7.014,16.248c7.118,7.116,14.317,8.946,16.25,7.014c1.674-1.674,4.599-3.714,0.789-6.775
		c-3.808-3.062-4.873-1.558-6.601,0.17C27.473,50.313,24.421,47.795,21.783,45.158z"/>
</g>
</svg>
