<?xml version="1.0" encoding="utf-8"?>
<!-- Generator: Adobe Illustrator 16.0.0, SVG Export Plug-In . SVG Version: 6.00 Build 0)  -->
<!DOCTYPE svg PUBLIC "-//W3C//DTD SVG 1.1//EN" "http://www.w3.org/Graphics/SVG/1.1/DTD/svg11.dtd">
<svg version="1.1" id="Layer_1" xmlns="http://www.w3.org/2000/svg" xmlns:xlink="http://www.w3.org/1999/xlink" x="0px" y="0px"
	 width="129px" height="112px" viewBox="0 0 129 112" enable-background="new 0 0 129 112" xml:space="preserve">
<line fill="none" stroke="#233850" stroke-width="2" stroke-linecap="round" stroke-linejoin="round" x1="63.519" y1="2.595" x2="57.478" y2="12.76"/>
<line fill="none" stroke="#233850" stroke-width="2" stroke-linecap="round" stroke-linejoin="round" x1="28.231" y1="2.595" x2="34.272" y2="12.76"/>
<path fill="none" stroke="#05A8C9" stroke-width="2" stroke-linecap="round" stroke-linejoin="round" d="M84.217,33.502
	c0,0,9.389-3.639,14.34-12.019c4.951-8.379,3.592-18.325,3.592-18.325s-9.385,3.639-14.336,12.019
	C82.857,23.557,84.217,33.502,84.217,33.502z"/>
<path fill="none" stroke="#233850" stroke-width="2" stroke-linecap="round" stroke-linejoin="round" d="M8.112,79.002L8.112,79.002
	c3.063,0,5.547-2.475,5.547-5.527V45.567c0-3.053-2.484-5.528-5.547-5.528c-3.065,0-5.549,2.476-5.549,5.528v27.908
	C2.563,76.527,5.047,79.002,8.112,79.002z"/>
<path fill="none" stroke="#233850" stroke-width="2" stroke-linecap="round" stroke-linejoin="round" d="M83.639,79.002
	L83.639,79.002c-3.063,0-5.549-2.475-5.549-5.527V45.567c0-3.053,2.484-5.528,5.549-5.528c3.063,0,5.547,2.476,5.547,5.528v27.908
	C89.186,76.527,86.701,79.002,83.639,79.002z"/>
<path fill="none" stroke="#05A8C9" stroke-width="2" stroke-linecap="round" stroke-linejoin="round" d="M85.822,33.894
	c3.662-0.868,6.752-3.323,10.4-4.292c9.42-2.481,19.59,0.153,26.186,6.735"/>
<path fill="none" stroke="#05A8C9" stroke-width="2" stroke-linecap="round" stroke-linejoin="round" d="M84.213,103.313
	c3.813-1.049,7.762,1.592,11.145,2.998c8.709,3.621,16.332-0.996,22.191-7.445c4.635-5.109,7.262-11.146,8.889-17.542"/>
<path fill="none" stroke="#05A8C9" stroke-width="2" stroke-linecap="round" stroke-linejoin="round" d="M48.925,36.655
	c-1.851,1.905-3.403,4.128-4.555,6.635"/>
<path fill="none" stroke="#05A8C9" stroke-width="2" stroke-linecap="round" stroke-linejoin="round" d="M63.433,106.064
	c3.907,1.772,8.229,2.168,12.858,0.244c3.381-1.404,7.328-4.047,11.145-2.996"/>
<path fill="none" stroke="#05A8C9" stroke-width="2" stroke-linecap="round" stroke-linejoin="round" d="M71.338,28.846
	c1.371,0.152,2.732,0.404,4.086,0.755c3.648,0.97,6.738,3.425,10.398,4.293"/>
<path fill="none" stroke="#05A8C9" stroke-width="2" stroke-linecap="round" stroke-linejoin="round" d="M126.438,81.323
	c-8.35-4.705-13.981-13.638-13.981-23.884c0-8.483,3.875-16.074,9.953-21.104"/>
<path fill="none" stroke="#233850" stroke-width="2" stroke-linecap="round" stroke-linejoin="round" d="M45.874,10.114
	L45.874,10.114c-14.707,0-26.63,11.879-26.63,26.531v0.01h53.263v-0.01C72.506,21.994,60.583,10.114,45.874,10.114z"/>
<path fill="none" stroke="#233850" stroke-width="2" stroke-linecap="round" stroke-linejoin="round" d="M19.243,43.29v40.253
	c0,3.419,2.782,6.191,6.212,6.191h2.11v13.271c0,3.663,2.98,6.635,6.657,6.635c3.677,0,6.659-2.972,6.659-6.635V89.734h9.987v13.271
	c0,3.663,2.98,6.635,6.658,6.635c3.678,0,6.659-2.972,6.659-6.635V89.734h2.108c3.432,0,6.213-2.772,6.213-6.191V43.29H19.243z"/>
<ellipse fill="none" stroke="#233850" stroke-width="2" stroke-miterlimit="10" cx="34.84" cy="25.354" rx="2.373" ry="2.364"/>
<ellipse fill="none" stroke="#233850" stroke-width="2" stroke-miterlimit="10" cx="58.453" cy="25.354" rx="2.372" ry="2.364"/>
</svg>
