<svg xmlns="http://www.w3.org/2000/svg" viewBox="0 0 458.27 151.4"><title>just icons</title><g id="Layer_2" data-name="Layer 2"><g id="Layer_1-2" data-name="Layer 1"><path d="M117.14,50.48c-2.86,2.74-5.85,5.16-8.29,8-6.55,7.74-8.67,16.79-6.87,26.71,2,10.85,8.33,18.42,18,23.41,1,.53,1.41.93,1,2.13A88.16,88.16,0,0,1,102.09,142c-6.71,7.2-14.16,8.63-23.35,5a70.3,70.3,0,0,0-9.21-3.31c-6.17-1.51-12.17-.55-18,1.87a61.35,61.35,0,0,1-9.1,3.14c-5.88,1.41-10.89-.68-15.27-4.56A70.84,70.84,0,0,1,15.57,130,90.5,90.5,0,0,1,.11,84C-.53,72.14,1.5,60.75,9,51c7.74-10,18-15.27,30.77-14.37,3.54.25,7,1.71,10.46,2.74a51.27,51.27,0,0,1,5.64,2.15,14.42,14.42,0,0,0,11.42,0,122.89,122.89,0,0,1,14-4.76c11.1-2.79,26.86,1.09,35.42,13C116.93,50.12,117.12,50.45,117.14,50.48Z"/><path d="M90.28,0a28.9,28.9,0,0,1-2.7,15.81C84,23.59,78.45,29.57,70.31,32.65c-2.68,1-5.66,1.21-8.51,1.76-1.05.2-1.37-.33-1.41-1.35-.34-7.62,2.29-14.26,6.81-20.18A33.29,33.29,0,0,1,87.11.42C88.13.19,89.18.14,90.28,0Z"/><path d="M336.49,48.42a8.92,8.92,0,0,0-6.56,2.69,8.82,8.82,0,0,0-2.69,6.47V96.21a9.2,9.2,0,0,0,9.25,9.25,8.79,8.79,0,0,0,6.51-2.69,9,9,0,0,0,2.65-6.56V57.58a9.2,9.2,0,0,0-9.16-9.16Z"/><path d="M413.15,13.74,419.53,2a1.18,1.18,0,0,0-.45-1.8,1.24,1.24,0,0,0-1.8.54l-6.47,11.86a45.06,45.06,0,0,0-36.11,0L368.23.72a1.25,1.25,0,0,0-1.8-.54A1.18,1.18,0,0,0,366,2l6.38,11.77a39.39,39.39,0,0,0-15.45,13.79,34.83,34.83,0,0,0-5.75,19.36h83.09a34.84,34.84,0,0,0-5.75-19.36A39.55,39.55,0,0,0,413.15,13.74ZM376.27,30.86a3.37,3.37,0,0,1-2.47,1,3.21,3.21,0,0,1-2.43-1,3.58,3.58,0,0,1,0-4.94,3.23,3.23,0,0,1,2.43-1,3.49,3.49,0,0,1,2.47,6Zm37.86,0a3.22,3.22,0,0,1-2.42,1,3.5,3.5,0,0,1,0-7,3.23,3.23,0,0,1,2.42,1,3.58,3.58,0,0,1,0,4.94Z"/><path d="M351.52,110a9.81,9.81,0,0,0,9.88,9.88H368l.09,20.39a8.93,8.93,0,0,0,2.69,6.56,8.82,8.82,0,0,0,6.47,2.69,9.2,9.2,0,0,0,9.25-9.25V119.84H399v20.39a9.25,9.25,0,1,0,18.5,0V119.84h6.74A9.81,9.81,0,0,0,434,110V50.12H351.52Z"/><path d="M449,48.42a8.9,8.9,0,0,0-6.47,2.65,8.79,8.79,0,0,0-2.69,6.51V96.21a8.92,8.92,0,0,0,2.69,6.56,8.82,8.82,0,0,0,6.47,2.69,9.2,9.2,0,0,0,9.25-9.25V57.58a8.78,8.78,0,0,0-2.69-6.51A9,9,0,0,0,449,48.42Z"/><path d="M248,150c-2.36-2.36-4.59-4.72-7.82-8.19a34.28,34.28,0,0,1-24.45,9.56c-16.26,0-25.7-10.92-25.7-23.46,0-11.42,6.83-19.24,16.39-24.45v-.37c-4.34-5.46-7-11.54-7-17.5,0-10.18,7.32-20.61,21.23-20.61,10.43,0,18.5,7,18.5,17.75,0,8.81-5.09,15.76-18.37,22.34v.37c7.08,8.19,15,17.38,20.36,23.34,3.85-5.83,6.46-13.9,8.07-24.45h9.93c-2.23,13.16-5.83,23.59-12,30.91,4.47,4.72,8.81,9.43,13.78,14.77Zm-13.16-14.4c-5-5.46-14.28-15.64-23.59-26.32-4.47,2.86-10.8,8.19-10.8,17,0,9.56,7.08,16.88,17.13,16.88A23.38,23.38,0,0,0,234.82,135.63Zm-25.45-51c0,6,2.73,10.55,6.33,15,8.44-4.84,13.9-9.31,13.9-16.39,0-5.09-2.86-10.8-9.68-10.8S209.37,78.16,209.37,84.61Z"/></g></g></svg>