<?xml version="1.0" encoding="utf-8"?>
<!-- Generator: Adobe Illustrator 16.0.0, SVG Export Plug-In . SVG Version: 6.00 Build 0)  -->
<!DOCTYPE svg PUBLIC "-//W3C//DTD SVG 1.1//EN" "http://www.w3.org/Graphics/SVG/1.1/DTD/svg11.dtd">
<svg version="1.1" id="Layer_1" xmlns="http://www.w3.org/2000/svg" xmlns:xlink="http://www.w3.org/1999/xlink" x="0px" y="0px"
	 width="142px" height="117px" viewBox="0 0 142 117" enable-background="new 0 0 142 117" xml:space="preserve">
<path fill="none" stroke="#05A8C9" stroke-width="3" stroke-miterlimit="10" d="M114.251,7.571L114.251,7.571
	c-6.866-6.868-18-6.868-24.868,0l-2.717,2.717L83.95,7.571c-6.869-6.868-18.002-6.868-24.87,0h0c-6.867,6.868-6.867,18.002,0,24.869
	l2.717,2.716l24.869,24.87l24.869-24.87l2.716-2.716C121.119,25.573,121.119,14.439,114.251,7.571z"/>
<path fill="none" stroke="#05A8C9" stroke-width="3" stroke-miterlimit="10" d="M59.117,20.809c0-7.305,5.922-13.227,13.227-13.227"
	/>
<line fill="none" stroke="#05A8C9" stroke-width="3" stroke-miterlimit="10" x1="89.939" y1="46.409" x2="99.761" y2="36.588"/>
<rect x="-1.902" y="86.704" transform="matrix(-0.437 -0.8994 0.8994 -0.437 -58.3172 150.981)" fill="none" stroke="#233850" stroke-width="3" stroke-linejoin="round" stroke-miterlimit="10" width="39.986" height="14.073"/>
<path fill="none" stroke="#233850" stroke-width="3" stroke-miterlimit="10" d="M19.452,80.44c6.539-1.66,13.886-4.473,18.438-9.659
	c4.847-5.521,12.417-7.02,19.451-6.273c8.094,0.856,15.967,3.392,24.097,4.043c4.447,0.357,21.169,2.313,23.303,2.492
	c2.137,0.177,6.761,2.329,5.515,5.791c-1.513,4.205-6.746,3.913-10.204,3.273c-9.206-1.703-19.189-1.382-28.323,0.648"/>
<path fill="none" stroke="#233850" stroke-width="3" stroke-miterlimit="10" d="M108.121,72.287c0,0,15.477-11.028,19.391-14.18
	c3.914-3.151,8.539-2.896,9.783-1.678c1.246,1.218,1.957,3.228,0,6.786c-1.956,3.559-37.179,28.64-44.294,32.198
	c-3.522,1.76-7.92,1.011-11.62,0.345c-11.45-2.06-23.695-5.848-35.323-2.132c-5.69,1.816-10.585,5.258-15.69,8.259"/>
<path fill="none" stroke="#233850" stroke-width="3" stroke-miterlimit="10" d="M104.741,71.043l13.521-11.029
	c0,0,5.69-3.991,9.249-1.906"/>
</svg>
