<?xml version="1.0" encoding="utf-8"?>
<!-- Generator: Adobe Illustrator 16.0.0, SVG Export Plug-In . SVG Version: 6.00 Build 0)  -->
<!DOCTYPE svg PUBLIC "-//W3C//DTD SVG 1.1//EN" "http://www.w3.org/Graphics/SVG/1.1/DTD/svg11.dtd">
<svg version="1.1" id="Layer_1" xmlns="http://www.w3.org/2000/svg" xmlns:xlink="http://www.w3.org/1999/xlink" x="0px" y="0px"
	 width="103px" height="130px" viewBox="0 0 103 130" enable-background="new 0 0 103 130" xml:space="preserve">
<path fill="none" stroke="#233850" stroke-width="3" stroke-miterlimit="10" d="M67.598,75.382v46.366
	c0,3.364-2.73,6.086-6.088,6.086H8.704c-3.357,0-6.08-2.722-6.08-6.086V9.168c0-3.359,2.722-6.087,6.08-6.087H61.51
	c3.357,0,6.088,2.728,6.088,6.087V36.38"/>
<line fill="none" stroke="#233850" stroke-width="3" stroke-miterlimit="10" x1="67.595" y1="112.331" x2="2.616" y2="112.331"/>
<line fill="none" stroke="#233850" stroke-width="3" stroke-miterlimit="10" x1="2.616" y1="14.337" x2="67.595" y2="14.337"/>
<path fill="none" stroke="#233850" stroke-width="3" stroke-miterlimit="10" d="M29.646,117.786h11.361
	c1.133,0,2.05,0.917,2.05,2.049v0.006c0,1.133-0.917,2.052-2.05,2.052H29.646c-1.133,0-2.05-0.919-2.05-2.052v-0.006
	C27.596,118.703,28.513,117.786,29.646,117.786z"/>
<polygon fill="none" stroke="#05A8C9" stroke-width="3" stroke-linecap="round" stroke-linejoin="round" points="54.404,29.471 
	100.009,53.362 83.972,83.958 38.366,60.068 36.808,39.752 "/>
<g enable-background="new    ">
	<g>
		<defs>
			<rect id="SVGID_1_" x="57.477" y="42.042" width="26.526" height="32.302"/>
		</defs>
		<clipPath id="SVGID_2_">
			<use xlink:href="#SVGID_1_"  overflow="visible"/>
		</clipPath>
		<g clip-path="url(#SVGID_2_)">
			
				<text transform="matrix(0.882 0.4712 -0.4715 0.882 60.5977 61.5869)" fill="#05A8C9" font-family="'MyriadPro-Bold'" font-size="26.471">$</text>
		</g>
	</g>
</g>
<circle fill="none" stroke="#05A8C9" stroke-width="3" stroke-linecap="round" stroke-linejoin="round" cx="49.964" cy="46.585" r="4.367"/>
<path fill="none" stroke="#05A8C9" stroke-width="3" stroke-linecap="round" stroke-linejoin="round" d="M49.964,46.585
	c-3.298,2.224-7.394,2.924-11.245,1.923c-3.849-1-7.084-3.608-8.882-7.156"/>
</svg>
