<?xml version="1.0" encoding="utf-8"?>
<!-- Generator: Adobe Illustrator 16.0.0, SVG Export Plug-In . SVG Version: 6.00 Build 0)  -->
<!DOCTYPE svg PUBLIC "-//W3C//DTD SVG 1.1//EN" "http://www.w3.org/Graphics/SVG/1.1/DTD/svg11.dtd">
<svg version="1.1" id="Layer_1" xmlns="http://www.w3.org/2000/svg" xmlns:xlink="http://www.w3.org/1999/xlink" x="0px" y="0px"
	 width="66px" height="124px" viewBox="0 0 66 124" enable-background="new 0 0 66 124" xml:space="preserve">
<path fill="none" stroke="#233850" stroke-width="3" stroke-miterlimit="10" d="M8.102,3.799h49.032c3.12,0,5.649,2.531,5.649,5.652
	v104.535c0,3.12-2.529,5.65-5.649,5.65H8.102c-3.121,0-5.651-2.53-5.651-5.65V9.452C2.451,6.33,4.98,3.799,8.102,3.799z"/>
<line fill="none" stroke="#233850" stroke-width="3" stroke-miterlimit="10" x1="62.784" y1="105.24" x2="2.445" y2="105.24"/>
<line fill="none" stroke="#233850" stroke-width="3" stroke-miterlimit="10" x1="2.445" y1="14.25" x2="62.784" y2="14.25"/>
<path fill="none" stroke="#05A8C9" stroke-width="3" stroke-miterlimit="10" d="M18.102,19.41h29.026
	c1.939,0,3.513,1.573,3.513,3.514v73.643c0,1.94-1.573,3.514-3.513,3.514H18.102c-1.94,0-3.512-1.573-3.512-3.514V22.924
	C14.589,20.983,16.162,19.41,18.102,19.41z"/>
<path fill="none" stroke="#233850" stroke-width="3" stroke-miterlimit="10" d="M27.545,110.306h10.55
	c1.053,0,1.904,0.854,1.904,1.904v0.006c0,1.05-0.852,1.903-1.904,1.903h-10.55c-1.052,0-1.904-0.854-1.904-1.903v-0.006
	C25.641,111.159,26.493,110.306,27.545,110.306z"/>
<polyline fill="none" stroke="#233850" stroke-width="3" stroke-linejoin="round" points="41.211,35.212 41.211,43.107 
	23.762,43.107 23.762,25.655 41.211,25.655 "/>
<rect x="23.762" y="75.467" fill="none" stroke="#233850" stroke-width="3" stroke-linecap="round" stroke-linejoin="round" width="17.449" height="17.451"/>
<polyline fill="none" stroke="#233850" stroke-width="3" stroke-linejoin="round" points="27.859,33.547 33.428,38.979 
	45.166,25.654 "/>
<polyline fill="none" stroke="#233850" stroke-width="3" stroke-linejoin="round" points="41.211,60.481 41.211,68.639 
	23.762,68.639 23.762,51.185 41.211,51.185 "/>
<polyline fill="none" stroke="#233850" stroke-width="3" stroke-linejoin="round" points="27.859,59.078 33.428,64.509 
	45.166,51.185 "/>
</svg>
