<?xml version="1.0" encoding="utf-8"?>
<!-- Generator: Adobe Illustrator 16.0.0, SVG Export Plug-In . SVG Version: 6.00 Build 0)  -->
<!DOCTYPE svg PUBLIC "-//W3C//DTD SVG 1.1//EN" "http://www.w3.org/Graphics/SVG/1.1/DTD/svg11.dtd">
<svg version="1.1" id="Layer_1" xmlns="http://www.w3.org/2000/svg" xmlns:xlink="http://www.w3.org/1999/xlink" x="0px" y="0px"
	 width="121px" height="126px" viewBox="0 0 121 126" enable-background="new 0 0 121 126" xml:space="preserve">
<path fill="none" stroke="#233850" stroke-width="3" stroke-miterlimit="10" d="M93.613,57.871v52.407
	c0,3.385-2.739,6.117-6.117,6.117H39.983"/>
<path fill="none" stroke="#233850" stroke-width="3" stroke-miterlimit="10" d="M27.963,52.983V9.117C27.963,5.739,30.696,3,34.08,3
	h53.416c3.378,0,6.117,2.739,6.117,6.117v27.269"/>
<polyline fill="none" stroke="#233850" stroke-width="3" stroke-miterlimit="10" points="88.982,57.871 88.982,103.463 
	39.983,103.463 "/>
<polyline fill="none" stroke="#233850" stroke-width="3" stroke-miterlimit="10" points="32.594,52.983 32.594,9.971 88.981,9.971 
	88.981,36.386 "/>
<path fill="none" stroke="#233850" stroke-width="3" stroke-miterlimit="10" d="M6.98,52.986h29.593c1.883,0,3.41,1.527,3.41,3.41
	v63.077c0,1.884-1.526,3.411-3.41,3.411H6.98c-1.884,0-3.411-1.527-3.411-3.411V56.396C3.569,54.513,5.096,52.986,6.98,52.986z"/>
<line fill="none" stroke="#233850" stroke-width="3" stroke-miterlimit="10" x1="3.566" y1="59.292" x2="39.983" y2="59.292"/>
<line fill="none" stroke="#233850" stroke-width="3" stroke-miterlimit="10" x1="39.982" y1="114.196" x2="3.566" y2="114.196"/>
<path fill="none" stroke="#233850" stroke-width="3" stroke-miterlimit="10" d="M61.73,112.394h-2.289
	c-1.127,0-2.039-0.912-2.039-2.038c0-1.127,0.912-2.039,2.039-2.039h2.289c1.127,0,2.039,0.912,2.039,2.039
	C63.77,111.481,62.857,112.394,61.73,112.394z"/>
<path fill="none" stroke="#05A8C9" stroke-width="3" stroke-linecap="round" stroke-linejoin="round" stroke-miterlimit="10" d="
	M115.063,57.87H63.408c-1.622,0-2.936-1.315-2.936-2.937V39.32c0-1.622,1.313-2.936,2.936-2.936h51.655
	c1.622,0,2.937,1.314,2.937,2.936v15.613C118,56.555,116.686,57.87,115.063,57.87z"/>
<polyline fill="none" stroke="#05A8C9" stroke-width="3" stroke-linejoin="bevel" stroke-miterlimit="10" points="68.153,42.842 
	70.407,52.087 73.264,42.842 75.971,52.087 78.376,42.842 "/>
<polyline fill="none" stroke="#05A8C9" stroke-width="3" stroke-linejoin="bevel" stroke-miterlimit="10" points="82.833,42.842 
	85.087,52.087 87.944,42.842 90.649,52.087 93.055,42.842 "/>
<polyline fill="none" stroke="#05A8C9" stroke-width="3" stroke-linejoin="bevel" stroke-miterlimit="10" points="97.513,42.842 
	99.767,52.087 102.623,42.842 105.33,52.087 107.734,42.842 "/>
</svg>
