<?xml version="1.0" encoding="utf-8"?>
<!-- Generator: Adobe Illustrator 16.0.0, SVG Export Plug-In . SVG Version: 6.00 Build 0)  -->
<!DOCTYPE svg PUBLIC "-//W3C//DTD SVG 1.1//EN" "http://www.w3.org/Graphics/SVG/1.1/DTD/svg11.dtd">
<svg version="1.1" id="Layer_1" xmlns="http://www.w3.org/2000/svg" xmlns:xlink="http://www.w3.org/1999/xlink" x="0px" y="0px"
	 width="141px" height="124px" viewBox="0 0 141 124" enable-background="new 0 0 141 124" xml:space="preserve">
<path fill="none" stroke="#233850" stroke-width="3" stroke-linecap="round" stroke-linejoin="round" stroke-miterlimit="10" d="
	M42.979,85.998l13.932,14.184c3.366-3.731,8.239-6.08,13.662-6.08c5.27,0,10.021,2.222,13.375,5.775l14.024-14.064
	C90.857,78.993,81.209,74.79,70.573,74.79C59.84,74.789,50.111,79.064,42.979,85.998z"/>
<path fill="none" stroke="#233850" stroke-width="3" stroke-linecap="round" stroke-linejoin="round" stroke-miterlimit="10" d="
	M70.572,45.912c18.573,0,35.393,7.51,47.571,19.668l-13.57,13.615c-8.711-8.689-20.725-14.063-34-14.063
	c-13.345,0-25.42,5.437-34.137,14.199L22.966,65.615C35.152,53.436,51.979,45.912,70.572,45.912z"/>
<path fill="none" stroke="#233850" stroke-width="3" stroke-linecap="round" stroke-linejoin="round" stroke-miterlimit="10" d="
	M138.646,45.021L125.021,58.69c-13.947-13.909-33.195-22.509-54.45-22.509c-21.241,0-40.482,8.592-54.426,22.495L2.615,44.905
	c17.434-17.323,41.44-28.027,67.957-28.027C97.145,16.878,121.205,27.629,138.646,45.021z"/>
<circle fill="none" stroke="#05A8C9" stroke-width="3" stroke-miterlimit="10" cx="70.572" cy="112.738" r="8.981"/>
<path fill="none" stroke="#233850" stroke-width="3" stroke-linecap="round" stroke-linejoin="round" stroke-miterlimit="10" d="
	M36.435,79.275c8.739-8.74,20.804-14.144,34.137-14.144c13.334,0,25.399,5.402,34.139,14.144"/>
<path fill="none" stroke="#233850" stroke-width="3" stroke-linecap="round" stroke-linejoin="round" stroke-miterlimit="10" d="
	M43.263,86.104c6.983-6.994,16.64-11.313,27.31-11.313c10.672,0,20.325,4.319,27.311,11.313"/>
<path fill="none" stroke="#233850" stroke-width="3" stroke-miterlimit="10" d="M56.917,99.758
	c3.492-3.492,8.319-5.656,13.655-5.656c5.336,0,10.165,2.164,13.655,5.656"/>
<path fill="none" stroke="#233850" stroke-width="3" stroke-linecap="round" stroke-linejoin="round" stroke-miterlimit="10" d="
	M22.78,65.621c12.231-12.23,29.124-19.8,47.792-19.8c18.67,0,35.561,7.57,47.793,19.8"/>
<path fill="none" stroke="#233850" stroke-width="3" stroke-linecap="round" stroke-linejoin="round" stroke-miterlimit="10" d="
	M15.953,58.793c13.978-13.986,33.289-22.628,54.62-22.628s40.643,8.643,54.62,22.628"/>
<path fill="none" stroke="#233850" stroke-width="3" stroke-linecap="round" stroke-linejoin="round" stroke-miterlimit="10" d="
	M2.298,45.138C19.767,27.66,43.906,16.853,70.572,16.853c26.668,0,50.805,10.808,68.276,28.286"/>
<line fill="none" stroke="#233850" stroke-width="3" stroke-linecap="round" stroke-linejoin="round" stroke-miterlimit="10" x1="56.917" y1="99.758" x2="43.263" y2="86.104"/>
<line fill="none" stroke="#233850" stroke-width="3" stroke-linecap="round" stroke-linejoin="round" stroke-miterlimit="10" x1="15.953" y1="58.793" x2="2.298" y2="45.138"/>
<line fill="none" stroke="#233850" stroke-width="3" stroke-linecap="round" stroke-linejoin="round" stroke-miterlimit="10" x1="36.435" y1="79.275" x2="22.78" y2="65.621"/>
<line fill="none" stroke="#233850" stroke-width="3" stroke-linecap="round" stroke-linejoin="round" stroke-miterlimit="10" x1="118.365" y1="65.621" x2="104.711" y2="79.275"/>
<line fill="none" stroke="#233850" stroke-width="3" stroke-linecap="round" stroke-linejoin="round" stroke-miterlimit="10" x1="97.883" y1="86.104" x2="84.227" y2="99.758"/>
<line fill="none" stroke="#233850" stroke-width="3" stroke-linecap="round" stroke-linejoin="round" stroke-miterlimit="10" x1="138.848" y1="45.138" x2="125.193" y2="58.794"/>
<line fill="none" stroke="#05A8C9" stroke-width="3" stroke-miterlimit="10" x1="122.283" y1="1.583" x2="14.006" y2="109.859"/>
</svg>
