<?xml version="1.0" encoding="utf-8"?>
<!-- Generator: Adobe Illustrator 16.0.0, SVG Export Plug-In . SVG Version: 6.00 Build 0)  -->
<!DOCTYPE svg PUBLIC "-//W3C//DTD SVG 1.1//EN" "http://www.w3.org/Graphics/SVG/1.1/DTD/svg11.dtd">
<svg version="1.1" id="Layer_1" xmlns="http://www.w3.org/2000/svg" xmlns:xlink="http://www.w3.org/1999/xlink" x="0px" y="0px"
	 width="97px" height="97px" viewBox="0 0 97 97" enable-background="new 0 0 97 97" xml:space="preserve">
<rect x="19.074" y="51.885" fill="none" stroke="#05A8C9" stroke-width="3" stroke-miterlimit="10" width="26.573" height="26.572"/>
<rect x="27.932" y="60.743" fill="none" stroke="#05A8C9" stroke-width="3" stroke-miterlimit="10" width="8.857" height="8.856"/>
<rect x="69.267" y="51.885" fill="none" stroke="#233850" stroke-width="3" stroke-miterlimit="10" width="8.856" height="8.857"/>
<rect x="60.409" y="60.742" fill="none" stroke="#233850" stroke-width="3" stroke-miterlimit="10" width="8.857" height="8.857"/>
<rect x="51.553" y="51.885" fill="none" stroke="#233850" stroke-width="3" stroke-miterlimit="10" width="8.856" height="8.857"/>
<rect x="69.267" y="69.6" fill="none" stroke="#233850" stroke-width="3" stroke-miterlimit="10" width="8.856" height="8.857"/>
<rect x="51.553" y="69.6" fill="none" stroke="#233850" stroke-width="3" stroke-miterlimit="10" width="8.856" height="8.857"/>
<rect x="19.074" y="19.407" fill="none" stroke="#233850" stroke-width="3" stroke-miterlimit="10" width="26.573" height="26.573"/>
<rect x="27.932" y="28.265" fill="none" stroke="#233850" stroke-width="3" stroke-miterlimit="10" width="8.857" height="8.857"/>
<rect x="51.552" y="19.407" fill="none" stroke="#05A8C9" stroke-width="3" stroke-miterlimit="10" width="26.571" height="26.573"/>
<rect x="60.507" y="28.363" fill="none" stroke="#05A8C9" stroke-width="3" stroke-miterlimit="10" width="8.662" height="8.661"/>
<polyline fill="none" stroke="#233850" stroke-width="3" stroke-miterlimit="10" points="4,33.012 4,4.333 32.678,4.333 "/>
<polyline fill="none" stroke="#233850" stroke-width="3" stroke-miterlimit="10" points="93.197,33.012 93.197,4.333 64.52,4.333 
	"/>
<polyline fill="none" stroke="#233850" stroke-width="3" stroke-miterlimit="10" points="4,64.853 4,93.531 32.678,93.531 "/>
<polyline fill="none" stroke="#233850" stroke-width="3" stroke-miterlimit="10" points="93.197,64.853 93.197,93.53 64.52,93.53 
	"/>
</svg>
