<?xml version="1.0" encoding="utf-8"?>
<!-- Generator: Adobe Illustrator 16.0.0, SVG Export Plug-In . SVG Version: 6.00 Build 0)  -->
<!DOCTYPE svg PUBLIC "-//W3C//DTD SVG 1.1//EN" "http://www.w3.org/Graphics/SVG/1.1/DTD/svg11.dtd">
<svg version="1.1" id="Layer_1" xmlns="http://www.w3.org/2000/svg" xmlns:xlink="http://www.w3.org/1999/xlink" x="0px" y="0px"
	 width="144px" height="114px" viewBox="0 0 144 114" enable-background="new 0 0 144 114" xml:space="preserve">
<ellipse fill="none" stroke="#233850" stroke-width="3" stroke-linecap="round" stroke-linejoin="round" cx="92.335" cy="63.527" rx="48.31" ry="48.025"/>
<path fill="none" stroke="#233850" stroke-width="3" stroke-linecap="square" stroke-linejoin="round" d="M120.462,89.294
	c-7.022,7.563-17.06,12.329-28.127,12.329c-21.022,0-38.322-17.196-38.322-38.096c0-11.627,5.354-22.11,13.729-29.124"/>
<line fill="none" stroke="#05A8C9" stroke-width="3" stroke-linecap="round" stroke-linejoin="round" x1="33.746" y1="63.296" x2="2.899" y2="63.296"/>
<line fill="none" stroke="#05A8C9" stroke-width="3" stroke-linecap="round" stroke-linejoin="round" x1="36.676" y1="45.759" x2="13.293" y2="45.759"/>
<line fill="none" stroke="#05A8C9" stroke-width="3" stroke-linecap="round" stroke-linejoin="round" x1="45.104" y1="28.221" x2="24.599" y2="28.221"/>
<line fill="none" stroke="#05A8C9" stroke-width="3" stroke-linecap="round" stroke-linejoin="round" x1="36.676" y1="80.834" x2="13.293" y2="80.834"/>
<line fill="none" stroke="#05A8C9" stroke-width="3" stroke-linecap="round" stroke-linejoin="round" x1="45.104" y1="98.373" x2="24.599" y2="98.373"/>
<line fill="none" stroke="#05A8C9" stroke-width="3" stroke-linecap="square" x1="126.573" y1="40.085" x2="98.835" y2="58.87"/>
<line fill="none" stroke="#05A8C9" stroke-width="3" stroke-linecap="square" x1="92.3" y1="55.561" x2="92.3" y2="34.414"/>
<ellipse fill="none" stroke="#05A8C9" stroke-width="3" stroke-linecap="round" stroke-linejoin="round" cx="92.335" cy="63.527" rx="8.017" ry="7.97"/>
<polyline fill="none" stroke="#233850" stroke-width="3" stroke-linecap="square" points="89.184,14.551 89.184,9.393 95.415,9.393 
	95.415,14.551 "/>
<path fill="none" stroke="#233850" stroke-width="3" stroke-linecap="square" d="M103.208,9.135H81.391
	c-0.57,0-1.035-0.464-1.035-1.035V3.464c0-0.571,0.465-1.035,1.035-1.035h21.817c0.569,0,1.035,0.464,1.035,1.035V8.1
	C104.243,8.671,103.777,9.135,103.208,9.135z"/>
</svg>
