<?xml version="1.0" encoding="utf-8"?>
<!-- Generator: Adobe Illustrator 16.0.0, SVG Export Plug-In . SVG Version: 6.00 Build 0)  -->
<!DOCTYPE svg PUBLIC "-//W3C//DTD SVG 1.1//EN" "http://www.w3.org/Graphics/SVG/1.1/DTD/svg11.dtd">
<svg version="1.1" id="Layer_1" xmlns="http://www.w3.org/2000/svg" xmlns:xlink="http://www.w3.org/1999/xlink" x="0px" y="0px"
	 width="132px" height="127px" viewBox="0 0 132 127" enable-background="new 0 0 132 127" xml:space="preserve">
<line fill="none" stroke="#233850" stroke-width="3" stroke-linejoin="round" stroke-miterlimit="10" x1="73.321" y1="113.026" x2="73.321" y2="104.627"/>
<line fill="none" stroke="#233850" stroke-width="3" stroke-linejoin="round" stroke-miterlimit="10" x1="73.321" y1="18.008" x2="73.321" y2="10.114"/>
<line fill="none" stroke="#233850" stroke-width="3" stroke-linejoin="round" stroke-miterlimit="10" x1="125.101" y1="61.063" x2="116.702" y2="61.063"/>
<line fill="none" stroke="#233850" stroke-width="3" stroke-linejoin="round" stroke-miterlimit="10" x1="21.589" y1="60.988" x2="29.988" y2="61.138"/>
<polyline fill="none" stroke="#233850" stroke-width="3" stroke-linejoin="round" stroke-miterlimit="10" points="91.687,42.706 
	73.325,61.063 52.634,40.377 "/>
<circle fill="none" stroke="#233850" stroke-width="3" stroke-linecap="round" stroke-linejoin="round" stroke-miterlimit="10" cx="73.322" cy="61.063" r="6.461"/>
<path fill="none" stroke="#233850" stroke-width="3" stroke-linejoin="round" stroke-miterlimit="10" d="M31.479,29.974
	c-6.712,8.812-10.702,19.821-10.702,31.762c0,28.991,23.503,52.494,52.494,52.494c6.481,0,12.683-1.175,18.415-3.324"/>
<path fill="none" stroke="#233850" stroke-width="3" stroke-linejoin="round" stroke-miterlimit="10" d="M51.917,13.777
	c6.522-2.919,13.752-4.535,21.354-4.535c28.991,0,52.494,23.502,52.494,52.494c0,5.381-0.812,10.568-2.316,15.454"/>
<path fill="none" stroke="#05A8C9" stroke-width="3" stroke-miterlimit="10" d="M117.465,77.191h12.146v44.576
	c0,1.566-1.27,2.835-2.835,2.835H94.522c-1.566,0-2.836-1.269-2.836-2.835V77.191h12.147H117.465z"/>
<rect x="97.034" y="91.592" fill="none" stroke="#05A8C9" stroke-width="3" stroke-miterlimit="10" width="9.821" height="9.819"/>
<line fill="none" stroke="#05A8C9" stroke-width="3" stroke-miterlimit="10" x1="111.766" y1="99.141" x2="125.672" y2="99.141"/>
<line fill="none" stroke="#05A8C9" stroke-width="3" stroke-miterlimit="10" x1="111.766" y1="93.863" x2="125.672" y2="93.863"/>
<rect x="97.034" y="109.286" fill="none" stroke="#05A8C9" stroke-width="3" stroke-miterlimit="10" width="9.821" height="9.82"/>
<line fill="none" stroke="#05A8C9" stroke-width="3" stroke-miterlimit="10" x1="111.766" y1="116.835" x2="125.672" y2="116.835"/>
<line fill="none" stroke="#05A8C9" stroke-width="3" stroke-miterlimit="10" x1="111.766" y1="111.558" x2="125.672" y2="111.558"/>
<line fill="none" stroke="#05A8C9" stroke-width="3" stroke-miterlimit="10" x1="91.835" y1="83.717" x2="129.611" y2="83.717"/>
<polygon fill="none" stroke="#05A8C9" stroke-width="3" stroke-linecap="round" stroke-linejoin="round" points="3.202,29.97 
	32.804,29.97 46.377,38.25 46.247,29.97 51.919,29.97 51.919,2.976 3.202,2.976 "/>
<line fill="none" stroke="#05A8C9" stroke-width="3" stroke-miterlimit="10" x1="41.699" y1="20.106" x2="12.826" y2="20.106"/>
<line fill="none" stroke="#05A8C9" stroke-width="3" stroke-miterlimit="10" x1="41.699" y1="11.052" x2="12.826" y2="11.052"/>
</svg>
