<?xml version="1.0" encoding="utf-8"?>
<!-- Generator: Adobe Illustrator 22.0.0, SVG Export Plug-In . SVG Version: 6.00 Build 0)  -->
<svg version="1.1" id="Layer_1" xmlns="http://www.w3.org/2000/svg" xmlns:xlink="http://www.w3.org/1999/xlink" x="0px" y="0px"
	 width="100px" height="121px" viewBox="0 0 100 121" style="enable-background:new 0 0 100 121;" xml:space="preserve">
<style type="text/css">
	.st0{display:none;}
	.st1{display:inline;fill:none;stroke:#233850;stroke-width:3;stroke-miterlimit:10;}
	.st2{display:inline;fill:none;stroke:#05A8C9;stroke-width:3;stroke-linecap:round;stroke-linejoin:round;}
	.st3{display:inline;enable-background:new    ;}
	.st4{clip-path:url(#SVGID_2_);}
	.st5{fill:#05A8C9;}
	.st6{font-family:'Lato-Heavy';}
	.st7{font-size:14.7918px;}
	.st8{clip-path:url(#SVGID_4_);}
	.st9{fill:none;stroke:#223850;stroke-width:3;stroke-miterlimit:10;}
	.st10{fill:none;stroke:#05A8C9;stroke-width:3;stroke-linecap:round;stroke-linejoin:round;}
	.st11{enable-background:new    ;}
</style>
<g class="st0">
	<path class="st1" d="M78.7,50.9V112c0,3.1-2.5,5.6-5.6,5.6H25c-3.1,0-5.5-2.5-5.5-5.6V83.4"/>
	<path class="st1" d="M19.4,57.3V9.4c0-3.1,2.5-5.5,5.5-5.5h48.2c3.1,0,5.6,2.5,5.6,5.5v15.5"/>
	<line class="st1" x1="78.7" y1="103.4" x2="19.4" y2="103.4"/>
	<line class="st1" x1="19.4" y1="14.1" x2="78.7" y2="14.1"/>
	<polygon class="st2" points="3.6,83.4 32.1,83.4 45.2,91.4 45.1,83.4 50.6,83.4 50.6,57.3 3.6,57.3 	"/>
	<g class="st3">
		<g>
			<g>
				<g>
					<defs>
						<rect id="SVGID_1_" x="8.4" y="63" width="36.3" height="17.1"/>
					</defs>
					<clipPath id="SVGID_2_">
						<use xlink:href="#SVGID_1_"  style="overflow:visible;"/>
					</clipPath>
					<g class="st4">
						<text transform="matrix(1 0 0 1 8.3896 75.7598)" class="st5 st6 st7">MMS</text>
					</g>
				</g>
			</g>
		</g>
	</g>
	<polygon class="st2" points="97.6,50.9 69.1,50.9 55.9,58.9 56.1,50.9 50.6,50.9 50.6,24.9 97.6,24.9 	"/>
	<g class="st3">
		<g>
			<g>
				<g>
					<defs>
						<rect id="SVGID_3_" x="59.3" y="30.5" width="30.4" height="17.1"/>
					</defs>
					<clipPath id="SVGID_4_">
						<use xlink:href="#SVGID_3_"  style="overflow:visible;"/>
					</clipPath>
					<g class="st8">
						<text transform="matrix(1 0 0 1 59.2881 43.2939)" class="st5 st6 st7">SMS</text>
					</g>
				</g>
			</g>
		</g>
	</g>
	<line class="st1" x1="41.7" y1="110.3" x2="56.3" y2="110.3"/>
</g>
<path class="st9" d="M78.2,50.8v60.3c0,3-2.4,5.5-5.5,5.5H25.2c-3,0-5.5-2.5-5.5-5.5V82.9"/>
<path class="st9" d="M78.2,25.1V14.5V9.8c0-3-2.4-5.5-5.5-5.5H25.2c-3,0-5.5,2.5-5.5,5.5v4.6v42.7"/>
<line class="st9" x1="78.2" y1="102.6" x2="19.7" y2="102.6"/>
<line class="st9" x1="19.7" y1="14.5" x2="78.2" y2="14.5"/>
<path class="st9" d="M44,107.6h10.2c1,0,1.8,0.8,1.8,1.8v0c0,1-0.8,1.8-1.8,1.8H44c-1,0-1.8-0.8-1.8-1.8v0
	C42.2,108.4,43,107.6,44,107.6z"/>
<polygon class="st10" points="4,82.9 32.2,82.9 45.2,90.8 45,82.9 50.4,82.9 50.4,57.1 4,57.1 "/>
<g class="st11">
	<path class="st5" d="M21.2,64.8v10.5h-1.5v-7.2c0-0.1,0-0.2,0-0.4s0-0.3,0-0.4l-3.4,6.2c-0.1,0.3-0.3,0.4-0.6,0.4h-0.2
		c-0.3,0-0.5-0.1-0.6-0.4l-3.4-6.3c0,0.1,0,0.3,0,0.4c0,0.1,0,0.3,0,0.4v7.2H10V64.8h1.3c0.2,0,0.3,0,0.4,0c0.1,0,0.2,0.1,0.2,0.2
		l3.4,6.1c0.1,0.1,0.1,0.3,0.2,0.4c0.1,0.1,0.1,0.3,0.2,0.5c0.1-0.2,0.1-0.3,0.2-0.5c0.1-0.2,0.1-0.3,0.2-0.4l3.3-6.1
		c0.1-0.1,0.1-0.2,0.2-0.2c0.1,0,0.2,0,0.4,0H21.2z"/>
	<path class="st5" d="M34.9,64.8v10.5h-1.5v-7.2c0-0.1,0-0.2,0-0.4s0-0.3,0-0.4l-3.4,6.2c-0.1,0.3-0.3,0.4-0.6,0.4h-0.2
		c-0.3,0-0.5-0.1-0.6-0.4l-3.4-6.3c0,0.1,0,0.3,0,0.4c0,0.1,0,0.3,0,0.4v7.2h-1.5V64.8H25c0.2,0,0.3,0,0.4,0c0.1,0,0.2,0.1,0.2,0.2
		l3.4,6.1c0.1,0.1,0.1,0.3,0.2,0.4c0.1,0.1,0.1,0.3,0.2,0.5c0.1-0.2,0.1-0.3,0.2-0.5c0.1-0.2,0.1-0.3,0.2-0.4l3.3-6.1
		c0.1-0.1,0.1-0.2,0.2-0.2c0.1,0,0.2,0,0.4,0H34.9z"/>
	<path class="st5" d="M42.9,66.6c-0.1,0.1-0.1,0.2-0.2,0.2c-0.1,0-0.1,0.1-0.2,0.1c-0.1,0-0.2,0-0.3-0.1s-0.3-0.2-0.4-0.3
		c-0.2-0.1-0.4-0.2-0.6-0.3s-0.5-0.1-0.8-0.1c-0.3,0-0.5,0-0.8,0.1c-0.2,0.1-0.4,0.2-0.6,0.3c-0.2,0.1-0.3,0.3-0.3,0.5
		c-0.1,0.2-0.1,0.4-0.1,0.6c0,0.3,0.1,0.5,0.2,0.7s0.3,0.3,0.6,0.5c0.2,0.1,0.5,0.2,0.8,0.3c0.3,0.1,0.6,0.2,0.9,0.3
		c0.3,0.1,0.6,0.2,0.9,0.4c0.3,0.1,0.6,0.3,0.8,0.5c0.2,0.2,0.4,0.5,0.6,0.8s0.2,0.7,0.2,1.1c0,0.5-0.1,0.9-0.2,1.3
		c-0.2,0.4-0.4,0.8-0.7,1.1c-0.3,0.3-0.7,0.5-1.1,0.7c-0.4,0.2-1,0.3-1.5,0.3c-0.3,0-0.7,0-1-0.1c-0.3-0.1-0.6-0.2-0.9-0.3
		s-0.6-0.3-0.8-0.4s-0.5-0.4-0.7-0.6l0.5-0.8c0-0.1,0.1-0.1,0.2-0.2c0.1,0,0.1-0.1,0.2-0.1c0.1,0,0.2,0.1,0.4,0.2
		c0.1,0.1,0.3,0.2,0.5,0.3s0.4,0.2,0.7,0.3c0.3,0.1,0.6,0.2,1,0.2c0.6,0,1.1-0.2,1.4-0.5c0.3-0.3,0.5-0.7,0.5-1.2
		c0-0.3-0.1-0.5-0.2-0.7c-0.1-0.2-0.3-0.3-0.6-0.5c-0.2-0.1-0.5-0.2-0.8-0.3c-0.3-0.1-0.6-0.2-0.9-0.3c-0.3-0.1-0.6-0.2-0.9-0.4
		s-0.6-0.3-0.8-0.5s-0.4-0.5-0.6-0.8S37,68.1,37,67.7c0-0.4,0.1-0.7,0.2-1.1c0.1-0.4,0.4-0.7,0.6-0.9c0.3-0.3,0.6-0.5,1.1-0.7
		c0.4-0.2,0.9-0.2,1.4-0.2c0.6,0,1.2,0.1,1.7,0.3c0.5,0.2,0.9,0.5,1.3,0.8L42.9,66.6z"/>
</g>
<polygon class="st10" points="96.9,50.8 68.7,50.8 55.7,58.7 55.9,50.8 50.4,50.8 50.4,25.1 96.9,25.1 "/>
<g class="st11">
	<path class="st5" d="M65.8,34.6c-0.1,0.1-0.1,0.2-0.2,0.2c-0.1,0-0.1,0.1-0.2,0.1c-0.1,0-0.2,0-0.3-0.1c-0.1-0.1-0.3-0.2-0.4-0.3
		c-0.2-0.1-0.4-0.2-0.6-0.3c-0.2-0.1-0.5-0.1-0.8-0.1c-0.3,0-0.5,0-0.8,0.1c-0.2,0.1-0.4,0.2-0.6,0.3c-0.2,0.1-0.3,0.3-0.3,0.5
		c-0.1,0.2-0.1,0.4-0.1,0.6c0,0.3,0.1,0.5,0.2,0.7c0.1,0.2,0.3,0.3,0.6,0.5c0.2,0.1,0.5,0.2,0.8,0.3c0.3,0.1,0.6,0.2,0.9,0.3
		c0.3,0.1,0.6,0.2,0.9,0.4s0.6,0.3,0.8,0.5c0.2,0.2,0.4,0.5,0.6,0.8c0.1,0.3,0.2,0.7,0.2,1.1c0,0.5-0.1,0.9-0.2,1.3
		s-0.4,0.8-0.7,1.1c-0.3,0.3-0.7,0.5-1.1,0.7s-1,0.3-1.5,0.3c-0.3,0-0.7,0-1-0.1c-0.3-0.1-0.6-0.2-0.9-0.3c-0.3-0.1-0.6-0.3-0.8-0.4
		s-0.5-0.4-0.7-0.6l0.5-0.8c0-0.1,0.1-0.1,0.2-0.2s0.1-0.1,0.2-0.1c0.1,0,0.2,0.1,0.4,0.2s0.3,0.2,0.5,0.3c0.2,0.1,0.4,0.2,0.7,0.3
		s0.6,0.2,1,0.2c0.6,0,1.1-0.2,1.4-0.5c0.3-0.3,0.5-0.7,0.5-1.2c0-0.3-0.1-0.5-0.2-0.7c-0.1-0.2-0.3-0.3-0.6-0.5
		c-0.2-0.1-0.5-0.2-0.8-0.3c-0.3-0.1-0.6-0.2-0.9-0.3s-0.6-0.2-0.9-0.4s-0.6-0.3-0.8-0.5c-0.2-0.2-0.4-0.5-0.6-0.8
		c-0.1-0.3-0.2-0.7-0.2-1.2c0-0.4,0.1-0.7,0.2-1.1c0.1-0.4,0.4-0.7,0.7-0.9c0.3-0.3,0.6-0.5,1.1-0.7c0.4-0.2,0.9-0.2,1.4-0.2
		c0.6,0,1.2,0.1,1.7,0.3s0.9,0.5,1.3,0.8L65.8,34.6z"/>
	<path class="st5" d="M79.4,32.8v10.5h-1.5v-7.2c0-0.1,0-0.2,0-0.4c0-0.1,0-0.3,0-0.4l-3.4,6.2c-0.1,0.3-0.3,0.4-0.6,0.4h-0.2
		c-0.3,0-0.5-0.1-0.6-0.4l-3.4-6.3c0,0.1,0,0.3,0,0.4c0,0.1,0,0.3,0,0.4v7.2h-1.5V32.8h1.3c0.2,0,0.3,0,0.4,0c0.1,0,0.2,0.1,0.2,0.2
		l3.4,6.1c0.1,0.1,0.1,0.3,0.2,0.4c0.1,0.1,0.1,0.3,0.2,0.5c0.1-0.2,0.1-0.3,0.2-0.5s0.1-0.3,0.2-0.4l3.3-6.1
		c0.1-0.1,0.1-0.2,0.2-0.2c0.1,0,0.2,0,0.4,0H79.4z"/>
	<path class="st5" d="M87.4,34.6c-0.1,0.1-0.1,0.2-0.2,0.2c-0.1,0-0.1,0.1-0.2,0.1c-0.1,0-0.2,0-0.3-0.1c-0.1-0.1-0.3-0.2-0.4-0.3
		c-0.2-0.1-0.4-0.2-0.6-0.3c-0.2-0.1-0.5-0.1-0.8-0.1c-0.3,0-0.5,0-0.8,0.1c-0.2,0.1-0.4,0.2-0.6,0.3c-0.2,0.1-0.3,0.3-0.3,0.5
		c-0.1,0.2-0.1,0.4-0.1,0.6c0,0.3,0.1,0.5,0.2,0.7c0.1,0.2,0.3,0.3,0.6,0.5c0.2,0.1,0.5,0.2,0.8,0.3c0.3,0.1,0.6,0.2,0.9,0.3
		c0.3,0.1,0.6,0.2,0.9,0.4s0.6,0.3,0.8,0.5c0.2,0.2,0.4,0.5,0.6,0.8C88,39.2,88,39.6,88,40c0,0.5-0.1,0.9-0.2,1.3s-0.4,0.8-0.7,1.1
		c-0.3,0.3-0.7,0.5-1.1,0.7s-1,0.3-1.5,0.3c-0.3,0-0.7,0-1-0.1c-0.3-0.1-0.6-0.2-0.9-0.3c-0.3-0.1-0.6-0.3-0.8-0.4s-0.5-0.4-0.7-0.6
		l0.5-0.8c0-0.1,0.1-0.1,0.2-0.2S81.9,41,82,41c0.1,0,0.2,0.1,0.4,0.2s0.3,0.2,0.5,0.3c0.2,0.1,0.4,0.2,0.7,0.3s0.6,0.2,1,0.2
		c0.6,0,1.1-0.2,1.4-0.5c0.3-0.3,0.5-0.7,0.5-1.2c0-0.3-0.1-0.5-0.2-0.7c-0.1-0.2-0.3-0.3-0.6-0.5c-0.2-0.1-0.5-0.2-0.8-0.3
		c-0.3-0.1-0.6-0.2-0.9-0.3s-0.6-0.2-0.9-0.4s-0.6-0.3-0.8-0.5c-0.2-0.2-0.4-0.5-0.6-0.8c-0.1-0.3-0.2-0.7-0.2-1.2
		c0-0.4,0.1-0.7,0.2-1.1c0.1-0.4,0.4-0.7,0.7-0.9c0.3-0.3,0.6-0.5,1.1-0.7c0.4-0.2,0.9-0.2,1.4-0.2c0.6,0,1.2,0.1,1.7,0.3
		s0.9,0.5,1.3,0.8L87.4,34.6z"/>
</g>
</svg>
