<?xml version="1.0" encoding="utf-8"?>
<!-- Generator: Adobe Illustrator 21.0.1, SVG Export Plug-In . SVG Version: 6.00 Build 0)  -->
<svg version="1.1" id="Layer_1" xmlns="http://www.w3.org/2000/svg" xmlns:xlink="http://www.w3.org/1999/xlink" x="0px" y="0px"
	 viewBox="0 0 32 32" style="enable-background:new 0 0 32 32;" xml:space="preserve">
<style type="text/css">
	.st0{fill:#FFFFFF;}
</style>
<title>Asset 16</title>
<g id="Layer_2">
	<g id="Icons">
		<path class="st0" d="M12.8,9.7c-0.7,0.2-1.1,0.8-1.1,1.5c-0.1,1,0.2,2.1,0.8,2.9c0.5,0.7,1.3,1,2.1,0.7c0.8-0.3,1.1-0.8,1.1-2
			c-0.1-0.8-0.3-1.8-1.1-2.6C14.2,9.7,13.4,9.5,12.8,9.7z"/>
		<path class="st0" d="M11.8,18.4c-1.4,0.7-1.5,2.4-0.2,3.3c0.7,0.5,1.5,0.6,2.3,0.7c0.6,0,1.1-0.1,1.7-0.3c0.6-0.3,1-0.8,1.1-1.5
			c0.1-1-1.2-2.6-2.2-2.7C13.5,17.8,12.6,17.9,11.8,18.4z"/>
		<path class="st0" d="M0,0v32h32V0H0z M16.8,10.5c0.8,1.2,0.6,2.8-0.5,3.8c-0.3,0.2-0.6,0.5-0.8,0.8c-0.4,0.5-0.4,0.9,0.1,1.4
			c0.4,0.3,0.8,0.6,1.2,1c1.5,1.4,1.5,3.2-0.1,4.5c-1.5,1.3-4.7,1.6-6.4,0.5c-1.5-0.9-1.7-2.8-0.2-4c1-0.8,2.2-1,3.5-1.1H14
			c-0.5-0.6-0.7-1.1-0.5-1.7c0.1-0.4-0.2-0.2-0.3-0.2c-1.1,0-2-0.3-2.7-1.2c-1.1-1.6-0.4-3.8,1.4-4.6c0.6-0.3,1.3-0.5,2-0.5h4.1
			c-0.6,0.6-1.3,0.7-2.1,0.6C16.3,10,16.6,10.3,16.8,10.5z M22.9,11.8h-1.7v1.7h-1.1v-1.7h-1.7v-1.2h1.7V8.9h1.1v1.7h1.7L22.9,11.8z
			"/>
	</g>
</g>
</svg>
