<?xml version="1.0" encoding="utf-8"?>
<!-- Generator: Adobe Illustrator 16.0.0, SVG Export Plug-In . SVG Version: 6.00 Build 0)  -->
<!DOCTYPE svg PUBLIC "-//W3C//DTD SVG 1.1//EN" "http://www.w3.org/Graphics/SVG/1.1/DTD/svg11.dtd">
<svg version="1.1" id="Layer_1" xmlns="http://www.w3.org/2000/svg" xmlns:xlink="http://www.w3.org/1999/xlink" x="0px" y="0px"
	 width="125px" height="105px" viewBox="0 0 125 105" enable-background="new 0 0 125 105" xml:space="preserve">
<line fill="none" stroke="#233850" stroke-width="3" stroke-linecap="round" stroke-linejoin="round" x1="90.216" y1="79.325" x2="45.107" y2="58.34"/>
<line fill="none" stroke="#233850" stroke-width="3" stroke-linecap="round" stroke-linejoin="round" x1="63.383" y1="27.303" x2="44.255" y2="38.063"/>
<circle fill="none" stroke="#05A8C9" stroke-width="3" stroke-linecap="round" stroke-linejoin="round" cx="105.258" cy="86.322" r="16.59"/>
<circle fill="none" stroke="#05A8C9" stroke-width="3" stroke-linecap="round" stroke-linejoin="round" cx="77.845" cy="19.17" r="16.59"/>
<circle fill="none" stroke="#233850" stroke-width="3" stroke-linecap="round" stroke-linejoin="round" cx="24.909" cy="49.035" r="22.234"/>
<rect x="102.92" y="80.162" fill="#233850" width="4.04" height="17.313"/>
<polygon fill="#233850" points="110.48,87.26 99.399,87.26 99.399,83.104 110.941,83.104 "/>
<rect x="108.472" y="75.17" fill="#233850" width="2.643" height="3.722"/>
<path fill="#233850" d="M109.614,75.17h-2.048c-2.567,0-4.646,2.08-4.646,4.646v1.615h4.069c-0.02-0.095-0.029-0.193-0.029-0.295
	V80.4c0-0.833,0.675-1.509,1.506-1.509h1.148V75.17z"/>
<path fill="#233850" d="M76.149,27.712h-1.181c-0.025-0.005-0.05-0.013-0.076-0.015c-0.294-0.028-0.588-0.049-0.881-0.083
	c-0.617-0.073-1.223-0.208-1.816-0.386c-0.913-0.272-1.778-0.652-2.598-1.135c-0.109-0.064-0.215-0.131-0.321-0.197
	c1.086,0.102,2.151,0.018,3.196-0.278c1.047-0.296,1.996-0.78,2.848-1.456c-0.874-0.037-1.664-0.302-2.365-0.822
	c-0.699-0.52-1.184-1.198-1.459-2.013c0.311,0.014,0.612,0.039,0.916,0.04c0.308,0.001,0.609-0.052,0.907-0.144
	c-0.951-0.22-1.745-0.695-2.36-1.453c-0.616-0.761-0.918-1.637-0.92-2.603c0.303,0.113,0.596,0.236,0.896,0.332
	c0.306,0.097,0.623,0.138,0.949,0.138c-0.876-0.624-1.463-1.444-1.704-2.493c-0.241-1.05-0.088-2.049,0.441-3.001
	c1.061,1.289,2.324,2.312,3.804,3.062c1.478,0.749,3.044,1.162,4.707,1.248c-0.008-0.042-0.013-0.073-0.019-0.104
	c-0.117-0.558-0.12-1.118-0.001-1.676c0.228-1.069,0.794-1.917,1.685-2.548c0.531-0.376,1.122-0.606,1.768-0.695
	c0.137-0.019,0.273-0.032,0.41-0.049h0.335c0.041,0.006,0.083,0.013,0.125,0.018c0.152,0.019,0.307,0.028,0.459,0.057
	c0.865,0.162,1.606,0.56,2.221,1.192c0.032,0.032,0.061,0.039,0.105,0.031c0.758-0.158,1.479-0.413,2.165-0.772
	c0.122-0.064,0.244-0.132,0.383-0.207c-0.331,0.975-0.93,1.714-1.779,2.259c0.8-0.086,1.563-0.298,2.319-0.621
	c-0.03,0.045-0.045,0.069-0.062,0.092c-0.524,0.755-1.155,1.408-1.896,1.953c-0.053,0.039-0.078,0.076-0.078,0.148
	c-0.003,0.425-0.004,0.851-0.026,1.274c-0.033,0.629-0.14,1.249-0.289,1.861c-0.514,2.104-1.493,3.961-2.984,5.536
	c-1.498,1.584-3.313,2.633-5.429,3.16c-0.674,0.167-1.355,0.274-2.048,0.319C76.381,27.688,76.266,27.702,76.149,27.712"/>
</svg>
