<?xml version="1.0" encoding="utf-8"?>
<!-- Generator: Adobe Illustrator 21.0.1, SVG Export Plug-In . SVG Version: 6.00 Build 0)  -->
<svg version="1.1" id="Layer_1" xmlns="http://www.w3.org/2000/svg" xmlns:xlink="http://www.w3.org/1999/xlink" x="0px" y="0px"
	 viewBox="0 0 32 32" style="enable-background:new 0 0 32 32;" xml:space="preserve">
<style type="text/css">
	.st0{fill:#FFFFFF;}
</style>
<title>Asset 15</title>
<g id="Layer_2">
	<g id="Icons">
		<path class="st0" d="M14.9,20.6c-0.2,0.2-0.3,0.3-0.4,0.3c-0.1,0-0.1-0.1-0.2-0.2c0-0.1,0-0.2,0-0.3v-2.9h-0.7v3.1
			c0,0.2,0,0.4,0.1,0.6c0.1,0.2,0.3,0.3,0.5,0.3c0.3,0,0.5-0.2,0.8-0.5v0.4h0.7v-3.9h-0.7V20.6z"/>
		<polygon class="st0" points="11,17 11.8,17 11.8,21.5 12.6,21.5 12.6,17 13.5,17 13.5,16.3 11,16.3 		"/>
		<path class="st0" d="M17.7,17.6c-0.3,0-0.5,0.1-0.7,0.4v-1.7h-0.7v5.2h0.7v-0.4c0.2,0.3,0.5,0.4,0.7,0.4c0.3,0,0.5-0.2,0.6-0.4
			c0.1-0.3,0.1-0.5,0.1-0.8v-1.6c0-0.3,0-0.5-0.1-0.8C18.2,17.8,17.9,17.6,17.7,17.6z M17.6,20.4c0,0.4-0.1,0.5-0.3,0.5
			c-0.1,0-0.3-0.1-0.4-0.2v-2.4c0.1-0.1,0.2-0.2,0.4-0.2c0.2,0,0.3,0.2,0.3,0.5V20.4z"/>
		<path class="st0" d="M15.8,13.6c0.2,0,0.3-0.2,0.3-0.5v-1.7c0-0.4-0.1-0.5-0.3-0.5s-0.3,0.2-0.3,0.5v1.7
			C15.5,13.4,15.6,13.6,15.8,13.6z"/>
		<path class="st0" d="M0,0v32h32V0H0z M17.5,10.3h0.7v2.9c0,0.1,0,0.2,0,0.3c0,0.1,0.1,0.2,0.2,0.2c0.1,0,0.3-0.1,0.5-0.3v-3h0.7
			v3.9h-0.7v-0.4c-0.3,0.3-0.6,0.5-0.8,0.5c-0.2,0-0.4-0.1-0.5-0.3c-0.1-0.2-0.1-0.4-0.1-0.6V10.3z M14.8,11.6
			c0-0.4,0.1-0.7,0.2-0.9c0.4-0.5,1-0.5,1.5-0.2c0.1,0.1,0.1,0.1,0.2,0.2c0.2,0.2,0.2,0.5,0.2,0.9v1.4c0,0.4-0.1,0.7-0.2,0.9
			c-0.4,0.5-1,0.5-1.5,0.2c-0.1-0.1-0.1-0.1-0.2-0.2c-0.2-0.2-0.2-0.5-0.2-0.9V11.6z M12.9,8.9l0.6,2.1L14,8.9h0.8l-1,3.2v2.1H13
			v-2.1c-0.1-0.6-0.3-1.1-0.5-1.7c-0.2-0.5-0.3-1-0.5-1.5L12.9,8.9z M21.6,21.8c-0.1,0.6-0.6,1.1-1.3,1.2c-1.5,0.1-2.9,0.2-4.4,0.2
			c-1.5,0-2.9,0-4.4-0.2c-0.6-0.1-1.1-0.5-1.3-1.2c-0.2-0.9-0.2-1.9-0.2-2.8s0-1.9,0.2-2.8c0.1-0.6,0.6-1.1,1.3-1.1
			c1.5-0.1,2.9-0.2,4.4-0.2c1.5,0,2.9,0,4.4,0.2c0.6,0.1,1.1,0.5,1.3,1.1c0.2,0.9,0.2,1.9,0.2,2.8S21.9,20.9,21.6,21.8L21.6,21.8z"
			/>
		<path class="st0" d="M19.9,17.6c-0.3,0-0.6,0.1-0.8,0.4c-0.2,0.2-0.2,0.5-0.2,0.9v1.4c0,0.4,0.1,0.7,0.2,0.9
			c0.2,0.3,0.5,0.4,0.9,0.4c0.3,0,0.7-0.1,0.9-0.4c0.1-0.1,0.1-0.3,0.2-0.4c0-0.1,0-0.2,0-0.5v-0.1h-0.7c0,0.2,0,0.3,0,0.5
			c0,0.2-0.2,0.3-0.3,0.3c-0.2,0-0.4-0.2-0.4-0.5v-0.7H21v-0.8c0-0.4-0.1-0.7-0.2-0.9C20.6,17.7,20.3,17.6,19.9,17.6z M20.3,19.1
			h-0.7v-0.4c0-0.4,0.1-0.5,0.4-0.5c0.2,0,0.4,0.2,0.4,0.5L20.3,19.1z"/>
	</g>
</g>
</svg>
