<?xml version="1.0" encoding="utf-8"?>
<!-- Generator: Adobe Illustrator 21.0.1, SVG Export Plug-In . SVG Version: 6.00 Build 0)  -->
<svg version="1.1" id="Layer_1" xmlns="http://www.w3.org/2000/svg" xmlns:xlink="http://www.w3.org/1999/xlink" x="0px" y="0px"
	 viewBox="0 0 32 32" style="enable-background:new 0 0 32 32;" xml:space="preserve">
<style type="text/css">
	.st0{fill:#FFFFFF;}
</style>
<title>Asset 17</title>
<g id="Layer_2">
	<g id="Icons">
		<path class="st0" d="M18.2,10.3h-4.4c-1.9,0-3.5,1.6-3.5,3.5c0,0,0,0,0,0v4.4c0,1.9,1.6,3.5,3.5,3.5c0,0,0,0,0,0h4.4
			c1.9,0,3.5-1.6,3.5-3.5l0,0v-4.4C21.7,11.9,20.1,10.3,18.2,10.3z M16.2,19.8c-2.1,0-3.7-1.7-3.7-3.7s1.7-3.7,3.7-3.7
			c2.1,0,3.7,1.7,3.7,3.7C19.9,18.1,18.3,19.8,16.2,19.8C16.2,19.8,16.2,19.8,16.2,19.8z M19.7,13.2c-0.5,0-0.9-0.4-0.9-0.9
			c0-0.5,0.4-0.9,0.9-0.9c0.5,0,0.9,0.4,0.9,0.9C20.6,12.8,20.2,13.2,19.7,13.2L19.7,13.2z"/>
		<path class="st0" d="M16.2,13.8c-1.2,0-2.2,1-2.2,2.2s1,2.2,2.2,2.2c1.2,0,2.2-1,2.2-2.2S17.4,13.8,16.2,13.8L16.2,13.8z"/>
		<path class="st0" d="M0,0v32h32V0H0z M23.1,18.7c0,2.4-2,4.4-4.4,4.4c0,0,0,0,0,0h-5.4c-2.4,0-4.4-2-4.4-4.4c0,0,0,0,0,0v-5.4
			c0-2.4,2-4.4,4.4-4.4l0,0h5.4c2.4,0,4.4,2,4.4,4.4l0,0L23.1,18.7z"/>
	</g>
</g>
</svg>
