<?xml version="1.0" encoding="utf-8"?>
<!-- Generator: Adobe Illustrator 21.0.1, SVG Export Plug-In . SVG Version: 6.00 Build 0)  -->
<svg version="1.1" id="Layer_1" xmlns="http://www.w3.org/2000/svg" xmlns:xlink="http://www.w3.org/1999/xlink" x="0px" y="0px"
	 viewBox="0 0 32 32" style="enable-background:new 0 0 32 32;" xml:space="preserve">
<style type="text/css">
	.st0{fill:#FFFFFF;}
</style>
<title>Asset 14</title>
<g id="Layer_2">
	<g id="Icons">
		<path class="st0" d="M0,0v32h32V0H0z M21.1,13.4c0,0.1,0,0.2,0,0.3c0,3.5-2.7,7.5-7.5,7.5c-1.4,0-2.8-0.4-4.1-1.2
			c0.2,0,0.4,0,0.6,0c1.2,0,2.3-0.4,3.3-1.1c-1.1,0-2.1-0.8-2.5-1.8c0.2,0,0.3,0,0.5,0c0.2,0,0.5,0,0.7-0.1
			c-1.2-0.3-2.1-1.3-2.1-2.6c0,0,0,0,0,0c0.4,0.2,0.8,0.3,1.2,0.3c-1.2-0.8-1.5-2.3-0.8-3.5c1.3,1.7,3.3,2.7,5.5,2.8
			c0-0.2-0.1-0.4-0.1-0.6c0-1.5,1.2-2.6,2.6-2.6c0.7,0,1.4,0.3,1.9,0.8c0.6-0.1,1.2-0.3,1.7-0.6c-0.2,0.6-0.6,1.1-1.2,1.5
			c0.5-0.1,1-0.2,1.5-0.4C22.1,12.5,21.6,13,21.1,13.4z"/>
	</g>
</g>
</svg>
