<?xml version="1.0" encoding="utf-8"?>
<!-- Generator: Adobe Illustrator 16.0.0, SVG Export Plug-In . SVG Version: 6.00 Build 0)  -->
<!DOCTYPE svg PUBLIC "-//W3C//DTD SVG 1.1//EN" "http://www.w3.org/Graphics/SVG/1.1/DTD/svg11.dtd">
<svg version="1.1" id="Layer_1" xmlns="http://www.w3.org/2000/svg" xmlns:xlink="http://www.w3.org/1999/xlink" x="0px" y="0px"
	 width="104px" height="112px" viewBox="0 0 104 112" enable-background="new 0 0 104 112" xml:space="preserve">
<polyline fill="none" stroke="#233850" stroke-width="4" stroke-linecap="round" stroke-linejoin="round" points="95.412,76.587 
	95.412,41.356 68.76,2.027 8.13,2.027 2.467,7.645 22.122,41.356 21.789,101.178 72.771,101.227 "/>
<polygon fill="none" stroke="#05A8C9" stroke-width="4" stroke-linecap="round" stroke-linejoin="round" points="35.448,41.136 
	82.088,41.578 62.1,8.307 15.683,8.526 "/>
<path fill="none" stroke="#233850" stroke-width="4" stroke-linecap="round" stroke-linejoin="round" d="M72.445,85.149V58.762
	c0-2.31,1.889-4.186,4.22-4.186c2.329,0,4.22,1.876,4.22,4.186v12.946c0,0,4.967-1.846,7.633,3.029c0,0.165,5.998-1.1,7.248,2.589
	c0-0.027,5.247-0.357,6.328,3.112c-0.083-0.164,0,22.942,0,22.942l-2.683,6.939H75.774l-3.329-10.218L59.164,84.476
	c-1.647-1.637-1.647-4.287,0-5.922c1.648-1.635,4.319-1.635,5.967,0L72.445,85.149"/>
</svg>
