<?xml version="1.0" encoding="utf-8"?>
<!-- Generator: Adobe Illustrator 16.0.0, SVG Export Plug-In . SVG Version: 6.00 Build 0)  -->
<!DOCTYPE svg PUBLIC "-//W3C//DTD SVG 1.1//EN" "http://www.w3.org/Graphics/SVG/1.1/DTD/svg11.dtd">
<svg version="1.1" id="Layer_1" xmlns="http://www.w3.org/2000/svg" xmlns:xlink="http://www.w3.org/1999/xlink" x="0px" y="0px"
	 width="130px" height="130px" viewBox="0 0 130 130" enable-background="new 0 0 130 130" xml:space="preserve">
<circle fill="none" stroke="#233850" stroke-width="3" stroke-linecap="round" stroke-linejoin="round" cx="65.202" cy="64.642" r="62.358"/>
<line fill="none" stroke="#233850" stroke-width="3" stroke-linecap="square" stroke-linejoin="round" x1="65.202" y1="2.792" x2="65.202" y2="14.491"/>
<line fill="none" stroke="#233850" stroke-width="3" stroke-linecap="square" stroke-linejoin="round" x1="3.554" y1="64.642" x2="15.119" y2="64.642"/>
<line fill="none" stroke="#233850" stroke-width="3" stroke-linecap="square" stroke-linejoin="round" x1="65.202" y1="126.322" x2="65.202" y2="114.734"/>
<line fill="none" stroke="#233850" stroke-width="3" stroke-linecap="square" stroke-linejoin="round" x1="127.096" y1="64.642" x2="114.938" y2="64.642"/>
<path fill="none" stroke="#233850" stroke-width="3" stroke-linecap="round" stroke-linejoin="round" stroke-miterlimit="10" d="
	M76.628,70.057c1.36-0.468,2.829-0.736,4.095-1.16c1.299-0.435,3.217-0.834,4.06-2.008c0.534-0.75,0.534-1.762,0.389-2.676
	c-0.216-1.35-0.7-2.649-1.42-3.804c-0.703-1.126-1.739-1.991-2.414-3.128c-0.272-0.463-0.425-1.06-0.308-1.594
	c0.128-0.604,0.541-0.642,0.842-1.072c0.085-0.122,0.102-0.272,0.111-0.418c0.146-2.069-0.567-4.182,0.219-6.189
	c0.607-1.54,2.057-2.622,3.617-3.168c1.562-0.546,3.24-0.625,4.896-0.669"/>
<path fill="none" stroke="#233850" stroke-width="3" stroke-linecap="round" stroke-linejoin="round" stroke-miterlimit="10" d="
	M90.712,44.169c1.651,0.044,3.335,0.123,4.896,0.669c1.562,0.546,3.013,1.632,3.615,3.172c0.789,2.007,0.071,4.12,0.221,6.186
	c0.011,0.147,0.027,0.3,0.111,0.419c0.297,0.428,0.711,0.466,0.842,1.07c0.115,0.536-0.033,1.133-0.31,1.598
	c-0.675,1.138-1.713,1.999-2.412,3.125c-0.719,1.158-1.209,2.458-1.425,3.804c-0.146,0.914-0.146,1.925,0.393,2.677
	c0.842,1.174,2.76,1.571,4.061,2.01c2.4,0.805,5.551,1.054,7.271,3.121c1.543,1.854,1.338,4.558,1,6.945"/>
<path fill="none" stroke="#233850" stroke-width="3" stroke-linecap="round" stroke-linejoin="round" stroke-miterlimit="10" d="
	M89.912,83.225c6.518,0.127,13.061-1.297,19.061-4.263"/>
<path fill="none" stroke="#233850" stroke-width="3" stroke-linecap="round" stroke-linejoin="round" stroke-miterlimit="10" d="
	M39.69,44.171c1.655,0.044,3.335,0.123,4.896,0.668c1.561,0.546,3.01,1.629,3.619,3.168c0.786,2.007,0.072,4.121,0.218,6.189
	c0.011,0.146,0.028,0.297,0.111,0.419c0.301,0.43,0.714,0.468,0.842,1.071c0.117,0.535-0.033,1.131-0.306,1.595
	c-0.675,1.138-1.712,2.001-2.416,3.128c-0.719,1.155-1.204,2.454-1.422,3.803c-0.145,0.915-0.145,1.927,0.391,2.677
	c0.842,1.172,2.76,1.571,4.059,2.008c1.266,0.424,2.732,0.691,4.093,1.158"/>
<path fill="none" stroke="#233850" stroke-width="3" stroke-linecap="round" stroke-linejoin="round" stroke-miterlimit="10" d="
	M39.693,44.169c-1.653,0.044-3.335,0.123-4.896,0.669s-3.01,1.632-3.616,3.172c-0.789,2.007-0.07,4.12-0.219,6.186
	c-0.01,0.147-0.028,0.3-0.112,0.419c-0.298,0.428-0.711,0.466-0.841,1.07c-0.115,0.536,0.033,1.133,0.308,1.598
	c0.676,1.138,1.713,1.999,2.413,3.125c0.718,1.158,1.208,2.458,1.423,3.804c0.147,0.914,0.147,1.925-0.392,2.677
	c-0.839,1.174-2.758,1.571-4.059,2.01c-2.401,0.805-5.549,1.054-7.271,3.121c-1.544,1.854-1.337,4.558-1.001,6.945"/>
<path fill="none" stroke="#233850" stroke-width="3" stroke-linecap="round" stroke-linejoin="round" stroke-miterlimit="10" d="
	M21.433,78.962c6,2.968,12.542,4.39,19.06,4.263"/>
<path fill="none" stroke="#00A8C9" stroke-width="3" stroke-linecap="round" stroke-linejoin="round" stroke-miterlimit="10" d="
	M65.202,37.416c-2.225,0.061-4.487,0.167-6.589,0.901c-2.101,0.734-4.052,2.196-4.865,4.267c-1.063,2.703-0.095,5.546-0.296,8.326
	c-0.014,0.196-0.037,0.402-0.149,0.565c-0.402,0.576-0.958,0.627-1.134,1.438c-0.154,0.722,0.045,1.526,0.416,2.151
	c0.91,1.531,2.306,2.69,3.246,4.205c0.967,1.558,1.626,3.307,1.916,5.118c0.198,1.228,0.198,2.589-0.527,3.601
	c-1.129,1.576-3.711,2.117-5.464,2.705c-3.23,1.084-7.466,1.418-9.783,4.201c-2.077,2.494-1.799,6.131-1.345,9.347"/>
<path fill="none" stroke="#00A8C9" stroke-width="3" stroke-linecap="round" stroke-linejoin="round" stroke-miterlimit="10" d="
	M65.202,37.416c2.226,0.061,4.487,0.167,6.588,0.901c2.103,0.734,4.053,2.196,4.867,4.267c1.062,2.703,0.095,5.546,0.296,8.326
	c0.014,0.196,0.037,0.402,0.148,0.565c0.401,0.576,0.957,0.627,1.133,1.438c0.154,0.722-0.045,1.526-0.414,2.151
	c-0.909,1.531-2.307,2.69-3.246,4.205c-0.969,1.558-1.626,3.307-1.916,5.118c-0.197,1.228-0.198,2.589,0.527,3.601
	c1.129,1.576,3.711,2.117,5.463,2.705c3.229,1.084,7.467,1.418,9.783,4.201c2.077,2.494,1.801,6.131,1.346,9.347"/>
<path fill="none" stroke="#00A8C9" stroke-width="3" stroke-linecap="round" stroke-linejoin="round" stroke-miterlimit="10" d="
	M40.627,84.241c15.489,7.657,33.662,7.657,49.15,0"/>
</svg>
