<?xml version="1.0" encoding="utf-8"?>
<!-- Generator: Adobe Illustrator 22.0.0, SVG Export Plug-In . SVG Version: 6.00 Build 0)  -->
<svg version="1.1" id="Layer_1_xA0_Image_1_" opacity="0.3"
	 xmlns="http://www.w3.org/2000/svg" xmlns:xlink="http://www.w3.org/1999/xlink" x="0px" y="0px" width="1600px" height="1325px"
	 viewBox="0 0 1600 1325" style="enable-background:new 0 0 1600 1325;" xml:space="preserve">
<style type="text/css">
	.st0{fill:none;stroke:#000000;stroke-width:0.7446;stroke-linecap:round;stroke-linejoin:round;stroke-miterlimit:10;}
	.st1{fill:none;stroke:#878787;stroke-width:0.7446;stroke-linecap:round;stroke-linejoin:round;stroke-miterlimit:10;}
	.st2{fill:none;stroke:#000000;stroke-width:0.7446;stroke-linecap:square;stroke-linejoin:round;stroke-miterlimit:10;}
	.st3{fill:none;stroke:#000000;stroke-width:0.7446;stroke-linecap:square;stroke-linejoin:round;}
	.st4{fill:none;stroke:#000000;stroke-width:0.7088;stroke-linecap:round;stroke-linejoin:round;stroke-miterlimit:10;}
	.st5{fill:none;stroke:#000000;stroke-width:0.7088;stroke-linecap:square;stroke-linejoin:round;stroke-miterlimit:10;}
	.st6{fill:none;stroke:#000000;stroke-width:0.7088;stroke-linecap:square;stroke-linejoin:round;}
	.st7{fill:none;stroke:#878787;stroke-width:1.0739;stroke-linecap:round;stroke-linejoin:round;stroke-miterlimit:10;}
	.st8{fill:none;stroke:#000000;stroke-width:1.0739;stroke-miterlimit:10;}
	.st9{fill:none;stroke:#000000;stroke-width:1.0739;stroke-linecap:round;stroke-linejoin:round;stroke-miterlimit:10;}
	.st10{fill:none;stroke:#000000;stroke-width:1.1625;stroke-linecap:round;stroke-miterlimit:10;}
	.st11{fill:none;stroke:#878787;stroke-width:1.1625;stroke-linecap:round;stroke-miterlimit:10;}
	.st12{fill:none;stroke:#000000;stroke-width:0.8334;stroke-linecap:round;stroke-miterlimit:10;}
	.st13{fill:none;stroke:#000000;stroke-width:1.4197;stroke-linejoin:round;stroke-miterlimit:10;}
	.st14{fill:none;stroke:#000000;stroke-width:1.4197;stroke-linecap:round;stroke-linejoin:round;stroke-miterlimit:10;}
	.st15{fill:none;stroke:#000000;stroke-width:1.4197;stroke-linecap:round;stroke-linejoin:round;}
	.st16{font-family:'Lato-Heavy';}
	.st17{font-size:8.5521px;}
	.st18{fill:none;}
	.st19{fill:none;stroke:#000000;stroke-width:1.5617;stroke-linecap:round;stroke-miterlimit:10;}
	.st20{fill:none;stroke:#000000;stroke-width:1.5617;stroke-linecap:round;stroke-linejoin:round;stroke-miterlimit:10;}
	.st21{fill:none;stroke:#000000;stroke-width:1.4051;stroke-linejoin:round;stroke-miterlimit:10;}
	.st22{fill:none;stroke:#000000;stroke-width:1.4051;stroke-linecap:round;stroke-linejoin:round;stroke-miterlimit:10;}
	.st23{fill:none;stroke:#000000;stroke-width:1.4051;stroke-linecap:round;stroke-linejoin:round;}
	.st24{font-size:8.4641px;}
	.st25{fill:none;stroke:#000000;stroke-width:1.5456;stroke-linecap:round;stroke-miterlimit:10;}
	.st26{fill:none;stroke:#000000;stroke-width:1.5456;stroke-linecap:round;stroke-linejoin:round;stroke-miterlimit:10;}
	.st27{fill:none;stroke:#000000;stroke-width:1.6441;stroke-linecap:round;stroke-linejoin:round;}
	.st28{fill:#878787;stroke:#000000;stroke-miterlimit:10;}
	.st29{fill:none;stroke:#000000;stroke-width:1.6441;stroke-linecap:round;stroke-linejoin:round;stroke-miterlimit:10;}
	.st30{fill:none;stroke:#000000;stroke-width:1.3552;stroke-miterlimit:10;}
	.st31{fill:none;stroke:#000000;stroke-width:1.3552;stroke-linecap:round;stroke-linejoin:round;}
	.st32{stroke:#000000;stroke-miterlimit:10;}
	.st33{stroke:#000000;stroke-width:2;stroke-miterlimit:10;}
	.st34{fill:#020202;}
	.st35{fill:none;stroke:#000000;stroke-width:1.22;stroke-miterlimit:10;}
	.st36{fill:none;stroke:#020202;stroke-width:1.22;stroke-miterlimit:10;}
	.st37{fill:none;stroke:#000000;stroke-width:1.22;stroke-linecap:round;stroke-linejoin:round;}
	.st38{fill:none;stroke:#000000;stroke-width:1.3341;stroke-miterlimit:10;}
	.st39{fill:none;stroke:#000000;stroke-width:1.3341;stroke-linejoin:round;stroke-miterlimit:10;}
	.st40{fill:none;stroke:#000000;stroke-width:0.8713;stroke-linecap:round;stroke-linejoin:round;}
	.st41{fill:#878787;}
	.st42{fill:none;stroke:#000000;stroke-width:1.0634;stroke-linecap:round;stroke-linejoin:round;}
	.st43{fill:none;stroke:#000000;stroke-width:0.8723;stroke-linecap:round;stroke-linejoin:round;}
	.st44{fill:none;stroke:#878787;stroke-width:0.8723;stroke-linecap:round;stroke-linejoin:round;}
	.st45{fill:none;stroke:#000000;stroke-width:0.8723;stroke-linecap:round;stroke-linejoin:round;stroke-dasharray:2.9854,2.9854;}
	.st46{fill:none;stroke:#000000;stroke-width:0.8723;stroke-linecap:round;stroke-linejoin:round;stroke-dasharray:2.9648,2.9648;}
</style>
<image style="overflow:visible;" width="1600" height="700" id="Layer_1_xA0_Image" xlink:href="C58F178F.png"  transform="matrix(1 0 0 1 0 363)">
</image>
<path class="st0" d="M327.4,472.2l1.1-8l7.9-1.7 M339.1,442.4l17.1,15.7l-31.4,34.2l-17.1-15.7"/>
<polyline class="st0" points="339.1,442.4 337.2,447.1 337,447.7 334.1,455 333.4,456.8 333.4,456.8 332.3,459.6 330.9,463.3 
	330.7,463.7 "/>
<polyline class="st0" points="328.2,466.5 328.2,466.5 327.6,466.8 326.1,467.5 324.3,468.4 321.8,469.6 316.8,472.1 312.5,474.2 
	307.7,476.6 "/>
<polyline class="st0" points="336.4,462.4 356.1,458.1 324.8,492.3 327.4,472.2 "/>
<line class="st0" x1="339.1" y1="442.4" x2="333.6" y2="443.6"/>
<line class="st1" x1="308.4" y1="471" x2="307.7" y2="476.6"/>
<line class="st2" x1="303.2" y1="459.9" x2="322.1" y2="439.4"/>
<line class="st3" x1="307.5" y1="463.9" x2="314.8" y2="456"/>
<line class="st3" x1="319.2" y1="451.2" x2="326.4" y2="443.4"/>
<line class="st2" x1="311.9" y1="467.8" x2="330.7" y2="447.3"/>
<polyline class="st0" points="337.2,447 319,430.3 293.9,457.6 312.1,474.4 "/>
<path class="st4" d="M1304.4,661.2l7.2-2.9l5.1,5.7 M1334.6,656.9l-5,21.5l-43-10l5-21.5"/>
<polyline class="st4" points="1334.6,656.9 1329.9,657.6 1329.3,657.7 1321.8,658.7 1320,659 1320,659 1317.2,659.4 1313.4,659.9 
	1313,660 "/>
<polyline class="st4" points="1309.5,659.2 1309.5,659.2 1309,658.9 1307.7,658 1306.1,656.9 1304,655.4 1299.5,652.3 1295.8,649.8 
	1291.6,646.9 "/>
<polyline class="st4" points="1316.7,664.1 1329.6,678.4 1286.6,668.4 1304.4,661.2 "/>
<line class="st4" x1="1334.6" y1="656.9" x2="1331" y2="652.9"/>
<line class="st4" x1="1296.6" y1="644.9" x2="1291.6" y2="646.9"/>
<line class="st5" x1="1303.3" y1="635.4" x2="1329.1" y2="641.4"/>
<line class="st6" x1="1302" y1="640.8" x2="1311.9" y2="643.1"/>
<line class="st6" x1="1318" y1="644.5" x2="1327.9" y2="646.8"/>
<line class="st5" x1="1300.8" y1="646.3" x2="1326.6" y2="652.3"/>
<polyline class="st4" points="1329.9,657.6 1335.2,634.6 1300.8,626.6 1295.5,649.6 "/>
<path class="st7" d="M310,604.1l3.4,11c2.7-1,5.9-0.9,8.6,0.5c2.7,1.4,4.6,3.8,5.3,6.5l11-3.5c-1.8-5.4-5.7-10.1-11.1-13
	C321.7,602.8,315.5,602.4,310,604.1z"/>
<path class="st7" d="M334.9,590.8c9.5,4.9,16.2,13.3,19.2,22.8l-10.6,3.4c-2.2-6.8-6.9-12.7-13.7-16.3c-6.9-3.6-14.5-4-21.3-1.8
	l-3.3-10.6C314.7,585.3,325.3,585.9,334.9,590.8z"/>
<path class="st7" d="M370.1,608.5l-10.6,3.4c-3.5-10.9-11.1-20.4-22-26.1c-10.9-5.7-23.1-6.4-34-2.9l-3.3-10.7
	c13.6-4.3,28.8-3.4,42.4,3.7C356.3,583,365.8,594.9,370.1,608.5z"/>
<circle class="st8" cx="317.1" cy="625.2" r="5.2"/>
<path class="st9" d="M308.4,598.9c6.8-2.2,14.5-1.7,21.3,1.8c6.9,3.6,11.6,9.5,13.8,16.4"/>
<path class="st9" d="M310.1,604.2c5.5-1.7,11.6-1.4,17,1.5c5.5,2.8,9.3,7.6,11,13.1"/>
<path class="st8" d="M313.5,614.9c2.7-0.9,5.8-0.7,8.5,0.7c2.7,1.4,4.6,3.8,5.5,6.5"/>
<path class="st9" d="M305.1,588.2c9.5-3,20.2-2.4,29.8,2.6c9.6,5,16.3,13.4,19.3,22.9"/>
<path class="st9" d="M303.4,582.9c10.9-3.5,23.1-2.8,34.1,2.9c11,5.7,18.6,15.3,22,26.2"/>
<path class="st9" d="M300,572.3c13.6-4.3,28.9-3.4,42.6,3.7c13.7,7.1,23.2,19.1,27.5,32.7"/>
<line class="st9" x1="313.5" y1="614.9" x2="310.1" y2="604.2"/>
<line class="st9" x1="303.4" y1="582.9" x2="300" y2="572.3"/>
<line class="st9" x1="308.4" y1="598.9" x2="305.1" y2="588.2"/>
<line class="st9" x1="354.2" y1="613.7" x2="343.5" y2="617.1"/>
<line class="st9" x1="338.2" y1="618.8" x2="327.5" y2="622.2"/>
<line class="st9" x1="370.2" y1="608.6" x2="359.5" y2="612"/>
<path class="st10" d="M1552.2,639.5c-9-3.7-19.4-4-29.2,0c-9.7,4-16.9,11.6-20.6,20.6c-3.7,9-4,19.4,0,29.2
	c4,9.7,11.6,16.9,20.6,20.6c9,3.7,19.4,4,29.2,0c9.7-4,16.9-11.6,20.6-20.6c3.7-9,4-19.4,0-29.2
	C1568.8,650.4,1561.2,643.3,1552.2,639.5z M1526.7,648.3l3.6,8.7c-4.9,2-8.5,5.9-10.4,10.4l-8.7-3.6 M1552.2,639.5
	c-9-3.7-19.4-4-29.2,0c-9.7,4-16.9,11.6-20.6,20.6c-3.7,9-4,19.4,0,29.2c4,9.7,11.6,16.9,20.6,20.6c9,3.7,19.4,4,29.2,0
	c9.7-4,16.9-11.6,20.6-20.6c3.7-9,4-19.4,0-29.2C1568.8,650.4,1561.2,643.3,1552.2,639.5z M1519.9,682.1c-2-4.9-1.9-10.2,0-14.7"/>
<path class="st10" d="M1564,685.7c2.8-6.8,3-14.6,0-21.9"/>
<path class="st10" d="M1548.6,648.3c-6.8-2.8-14.6-3-21.9,0l3.6,8.7c-4.9,2-8.5,5.9-10.4,10.4l-8.7-3.6c-2.8,6.8-3,14.6,0,21.9"/>
<path class="st11" d="M1526.7,701.1c6.8,2.8,14.6,3,21.9,0"/>
<path class="st10" d="M1519.9,667.4c1.9-4.5,5.5-8.4,10.4-10.4c4.9-2,10.2-1.9,14.7,0c4.5,1.9,8.4,5.5,10.4,10.4
	c2,4.9,1.9,10.2,0,14.7c-1.9,4.5-5.5,8.4-10.4,10.4c-4.9,2-10.2,1.9-14.7,0c-4.5-1.9-8.4-5.5-10.4-10.4"/>
<polyline class="st10" points="1523.1,639.5 1526.7,648.3 1530.3,657 "/>
<polyline class="st10" points="1552.2,709.9 1548.6,701.1 1545,692.5 "/>
<polyline class="st10" points="1502.4,660.2 1511.2,663.8 1519.9,667.4 "/>
<polyline class="st10" points="1555.4,682.1 1564,685.7 1572.8,689.3 "/>
<polyline class="st10" points="1572.8,660.2 1564,663.8 1555.4,667.4 "/>
<polyline class="st10" points="1519.9,682.1 1511.2,685.7 1502.4,689.3 "/>
<polyline class="st10" points="1552.2,639.5 1548.6,648.3 1545,657 "/>
<polyline class="st10" points="1523.1,709.9 1526.7,701.1 1530.3,692.5 "/>
<path class="st10" d="M1552.2,639.5c-3.5-4.5-8.9-7.2-14.6-7.2c-5.7,0-11.1,2.6-14.6,7.2"/>
<path class="st10" d="M1502.4,660.2c-4.5,3.5-7.2,8.9-7.2,14.6s2.6,11.1,7.2,14.6"/>
<path class="st10" d="M1523.1,709.9c3.5,4.5,8.9,7.2,14.6,7.2c5.7,0,11.1-2.6,14.6-7.2"/>
<path class="st10" d="M1572.8,689.3c4.5-3.5,7.2-8.9,7.2-14.6s-2.6-11.1-7.2-14.6"/>
<path class="st12" d="M64.7,563.4c-6.5-2.7-13.9-2.9-20.9,0c-7,2.9-12.1,8.3-14.8,14.8c-2.7,6.5-2.9,13.9,0,20.9
	c2.9,7,8.3,12.1,14.8,14.8c6.5,2.7,13.9,2.9,20.9,0c7-2.9,12.1-8.3,14.8-14.8c2.7-6.5,2.9-13.9,0-20.9
	C76.6,571.2,71.2,566,64.7,563.4z M46.5,569.7l2.6,6.2c-3.5,1.5-6.1,4.2-7.4,7.4l-6.2-2.6 M64.7,563.4c-6.5-2.7-13.9-2.9-20.9,0
	c-7,2.9-12.1,8.3-14.8,14.8c-2.7,6.5-2.9,13.9,0,20.9c2.9,7,8.3,12.1,14.8,14.8c6.5,2.7,13.9,2.9,20.9,0c7-2.9,12.1-8.3,14.8-14.8
	c2.7-6.5,2.9-13.9,0-20.9C76.6,571.2,71.2,566,64.7,563.4z M41.6,593.9c-1.5-3.5-1.3-7.3,0-10.5"/>
<path class="st12" d="M73.2,596.4c2-4.8,2.2-10.5,0-15.7"/>
<path class="st12" d="M62.1,569.7c-4.8-2-10.5-2.2-15.7,0l2.6,6.2c-3.5,1.5-6.1,4.2-7.4,7.4l-6.2-2.6c-2,4.8-2.2,10.5,0,15.7"/>
<path class="st12" d="M46.5,607.5c4.8,2,10.5,2.2,15.7,0"/>
<path class="st12" d="M41.6,583.3c1.3-3.3,3.9-6,7.4-7.4c3.5-1.5,7.3-1.3,10.5,0s6,3.9,7.4,7.4c1.5,3.5,1.3,7.3,0,10.5
	c-1.3,3.3-3.9,6-7.4,7.4c-3.5,1.5-7.3,1.3-10.5,0c-3.3-1.3-6-3.9-7.4-7.4"/>
<polyline class="st12" points="43.8,563.4 46.5,569.7 49,575.9 "/>
<polyline class="st12" points="64.7,613.8 62.1,607.5 59.6,601.3 "/>
<polyline class="st12" points="29.1,578.1 35.4,580.8 41.6,583.3 "/>
<polyline class="st12" points="67,593.9 73.2,596.4 79.5,599 "/>
<polyline class="st12" points="79.5,578.1 73.2,580.8 67,583.3 "/>
<polyline class="st12" points="41.6,593.9 35.4,596.4 29.1,599 "/>
<polyline class="st12" points="64.7,563.4 62.1,569.7 59.6,575.9 "/>
<polyline class="st12" points="43.8,613.8 46.5,607.5 49,601.3 "/>
<path class="st12" d="M64.7,563.4c-2.5-3.2-6.4-5.1-10.5-5.1s-7.9,1.9-10.5,5.1"/>
<path class="st12" d="M29.1,578.1c-3.2,2.5-5.1,6.4-5.1,10.5c0,4.1,1.9,7.9,5.1,10.5"/>
<path class="st12" d="M43.8,613.8c2.5,3.2,6.4,5.1,10.5,5.1c4.1,0,7.9-1.9,10.5-5.1"/>
<path class="st12" d="M79.5,599c3.2-2.5,5.1-6.4,5.1-10.5c0-4.1-1.9-8-5.1-10.5"/>
<path d="M139.9,609.7l-2.1-1.6l34.2-45.3c2.6-3.5,7.6-4.2,11.1-1.5l45.5,34.3c3.5,2.6,4.2,7.6,1.5,11.1l-11,14.6l-2.1-1.6l11-14.6
	c1.7-2.3,1.3-5.6-1-7.3l-45.5-34.3c-2.3-1.7-5.6-1.3-7.3,1L139.9,609.7z"/>
<rect x="132.5" y="638.5" transform="matrix(0.6027 -0.798 0.798 0.6027 -484.273 374.4477)" width="2.7" height="70.1"/>
<rect x="196.3" y="554.1" transform="matrix(0.6026 -0.798 0.798 0.6026 -391.6676 391.82)" width="2.7" height="70.1"/>
<path d="M211.8,697.6c-0.2-0.1-0.3-0.3-0.4-0.6l-6.7-16.9c-0.3-0.7,0.1-1.5,0.8-1.7c0.7-0.3,1.5,0.1,1.7,0.8l5.8,14.6l4.1-5.7
	c0.2-0.3,0.5-0.5,0.9-0.5c0.4-0.1,0.7,0,1,0.3l4.1,3.1l17-22.5l-36.9-27.9c-0.6-0.4-0.7-1.3-0.3-1.9c0.4-0.6,1.3-0.7,1.9-0.3
	l38,28.7c0.6,0.4,0.7,1.3,0.3,1.9l-18.6,24.6c-0.4,0.6-1.3,0.7-1.9,0.3l-4.1-3.1l-4.8,6.5c-0.3,0.4-0.8,0.6-1.3,0.5
	C212.2,697.8,212,697.7,211.8,697.6z"/>
<rect x="188" y="633.3" transform="matrix(0.6026 -0.798 0.798 0.6026 -423.7049 417.6734)" width="39.1" height="2.1"/>
<path d="M176.3,673.9L155,702.2c-1.7,2.3-5.6,2.9-7.9,1.2L101.6,669c-2.3-1.7-2.6-5.5-0.8-7.8l40-52.9l-1.6-1.2l-40,52.9
	c-2.6,3.5-2.2,8.1,1.2,10.7l45.5,34.3c3.5,2.6,8.2,1.9,10.8-1.6l21.3-28.3L176.3,673.9z"/>
<path d="M153.3,670.3c-0.2-0.1-0.3-0.3-0.4-0.5c-0.2-0.5-0.1-1,0.2-1.4l5-6.4l-4.1-3.1c-0.6-0.4-0.7-1.3-0.3-1.9l18.6-24.6
	c0.4-0.6,1.3-0.7,1.9-0.3l44.4,33.5c0.6,0.4,0.7,1.3,0.3,1.9l-18.6,24.6c-0.4,0.6-1.3,0.7-1.9,0.3l-26.7-20.1l-17.7-1.8
	C153.7,670.5,153.5,670.4,153.3,670.3z M156.7,657.6l4.1,3.1c0.3,0.2,0.5,0.5,0.5,0.9c0,0.4-0.1,0.7-0.3,1l-4.3,5.5l15.6,1.6
	c0.2,0,0.5,0.1,0.7,0.3l25.9,19.6l17-22.4l-42.2-31.9L156.7,657.6z"/>
<path d="M186.8,597.8l-3-2.2l-6.4,8.4l-2.1-1.6l6.4-8.4l-3-2.2l1.3-1.7l8,6.1L186.8,597.8z"/>
<path d="M188.5,600.9c0.5,0.4,1,0.9,1.3,1.4c0.3,0.5,0.5,1,0.6,1.6c0.1,0.6,0,1.1-0.1,1.7c-0.2,0.6-0.5,1.2-0.9,1.7
	c-0.4,0.6-0.9,1-1.4,1.4c-0.5,0.3-1.1,0.5-1.6,0.6c-0.6,0.1-1.1,0-1.7-0.1c-0.6-0.2-1.1-0.4-1.7-0.9c-0.5-0.4-1-0.9-1.3-1.4
	c-0.3-0.5-0.5-1-0.6-1.6c-0.1-0.6,0-1.1,0.1-1.7c0.2-0.6,0.5-1.2,0.9-1.7c0.4-0.6,0.9-1,1.4-1.3c0.5-0.3,1.1-0.5,1.6-0.6
	c0.6-0.1,1.1,0,1.7,0.1C187.4,600.2,188,600.5,188.5,600.9z M184,606.8c0.5,0.4,1.1,0.5,1.7,0.4c0.6-0.2,1.1-0.6,1.7-1.4
	c0.6-0.7,0.9-1.4,0.9-2c0-0.6-0.2-1.1-0.8-1.5c-0.6-0.4-1.1-0.5-1.7-0.4c-0.6,0.2-1.1,0.6-1.7,1.4c-0.6,0.8-0.9,1.4-0.9,2
	C183.2,605.9,183.4,606.4,184,606.8z"/>
<path d="M197.6,602.9l-7.9,10.4l-1.9-1.5l7.9-10.4L197.6,602.9z"/>
<path d="M201.1,605.6l-7.9,10.4l-1.9-1.5l7.9-10.4L201.1,605.6z"/>
<path d="M168.5,605.8l-2.1,2.8l3.6,2.8l-1.2,1.6l-3.6-2.7l-3,4l-2.1-1.6l7.6-10.1l6.4,4.9l-1.2,1.6L168.5,605.8z"/>
<path d="M173.4,613.4c0.5-0.2,1-0.4,1.5-0.4c0.5,0,0.9,0.1,1.3,0.4c0.3,0.2,0.5,0.5,0.6,0.8l-1.2,1.3c-0.1,0.1-0.2,0.1-0.3,0.1
	c-0.1,0-0.2,0-0.2-0.1c-0.1-0.1-0.2-0.1-0.3-0.3c-0.1-0.1-0.2-0.2-0.4-0.3c-0.2-0.1-0.4-0.2-0.5-0.3c-0.2-0.1-0.4-0.1-0.5-0.1
	c-0.2,0-0.4,0.1-0.5,0.1c-0.2,0.1-0.4,0.2-0.6,0.3l-3.3,4.4l-1.9-1.5l5.4-7.2l1.1,0.9c0.2,0.1,0.3,0.3,0.3,0.4c0,0.1,0,0.3-0.1,0.5
	L173.4,613.4z"/>
<path d="M176.2,619.8c-0.4,0.7-0.6,1.4-0.5,1.9c0.1,0.6,0.4,1,0.9,1.4c0.3,0.2,0.5,0.3,0.8,0.4c0.2,0.1,0.5,0.1,0.7,0.2
	s0.4,0.1,0.6,0.1c0.2,0,0.3,0.1,0.4,0.2c0.1,0.1,0.2,0.3,0.2,0.4l0,1.1c-0.4,0.1-0.8,0.1-1.1,0.1c-0.4,0-0.7-0.1-1-0.2
	c-0.3-0.1-0.6-0.2-0.9-0.4c-0.3-0.2-0.6-0.3-0.8-0.5c-0.5-0.4-0.9-0.8-1.2-1.3c-0.3-0.5-0.5-1-0.6-1.6c-0.1-0.6,0-1.2,0.1-1.8
	c0.2-0.6,0.5-1.2,1-1.9c0.4-0.5,0.8-0.9,1.3-1.2c0.5-0.3,1-0.5,1.5-0.6c0.5-0.1,1.1-0.1,1.7,0.1c0.6,0.1,1.1,0.4,1.7,0.8
	c0.5,0.3,0.8,0.7,1.1,1.2c0.3,0.4,0.5,0.9,0.5,1.4c0.1,0.5,0,1-0.1,1.5c-0.2,0.5-0.4,1-0.8,1.6c-0.1,0.1-0.2,0.3-0.3,0.3
	c-0.1,0.1-0.2,0.1-0.2,0.2c-0.1,0-0.1,0-0.2,0c-0.1,0-0.2-0.1-0.2-0.1L176.2,619.8z M180.1,620.9c0.2-0.2,0.3-0.4,0.4-0.6
	c0.1-0.2,0.1-0.4,0.1-0.7c0-0.2-0.1-0.4-0.2-0.7c-0.1-0.2-0.3-0.4-0.5-0.6c-0.5-0.3-0.9-0.5-1.4-0.4c-0.5,0.1-0.9,0.3-1.4,0.7
	L180.1,620.9z"/>
<path d="M183.6,625.4c-0.4,0.7-0.6,1.4-0.5,1.9c0.1,0.6,0.4,1,0.9,1.4c0.3,0.2,0.5,0.3,0.8,0.4c0.2,0.1,0.5,0.1,0.7,0.2
	c0.2,0,0.4,0.1,0.6,0.1c0.2,0,0.3,0.1,0.4,0.2c0.2,0.1,0.2,0.3,0.2,0.4l0,1.1c-0.4,0.1-0.8,0.1-1.1,0.1c-0.4,0-0.7-0.1-1-0.2
	c-0.3-0.1-0.6-0.2-0.9-0.4c-0.3-0.2-0.6-0.3-0.8-0.5c-0.5-0.4-0.9-0.8-1.2-1.3c-0.3-0.5-0.5-1-0.6-1.6c-0.1-0.6,0-1.2,0.1-1.8
	c0.2-0.6,0.5-1.2,1-1.9c0.4-0.5,0.8-0.9,1.3-1.2c0.5-0.3,1-0.5,1.5-0.6c0.5-0.1,1.1-0.1,1.7,0.1c0.6,0.1,1.1,0.4,1.7,0.8
	c0.5,0.3,0.8,0.7,1.1,1.2c0.3,0.4,0.5,0.9,0.5,1.4c0.1,0.5,0,1-0.1,1.5c-0.2,0.5-0.4,1-0.8,1.6c-0.1,0.1-0.2,0.3-0.3,0.3
	c-0.1,0.1-0.2,0.1-0.2,0.2c-0.1,0-0.1,0-0.2,0c-0.1,0-0.2-0.1-0.2-0.1L183.6,625.4z M187.5,626.6c0.2-0.2,0.3-0.4,0.4-0.6
	c0.1-0.2,0.1-0.4,0.1-0.7c0-0.2-0.1-0.4-0.2-0.7c-0.1-0.2-0.3-0.4-0.5-0.6c-0.5-0.3-0.9-0.5-1.4-0.4c-0.5,0.1-0.9,0.3-1.4,0.7
	L187.5,626.6z"/>
<rect x="127.7" y="671.3" transform="matrix(0.6026 -0.798 0.798 0.6026 -491.3416 373.17)" width="2.7" height="17.3"/>
<circle cx="177.7" cy="656.6" r="2.4"/>
<circle cx="185.3" cy="662.3" r="2.4"/>
<circle cx="192.8" cy="667.9" r="2.4"/>
<rect x="284.2" y="738.4" transform="matrix(0.8587 -0.5125 0.5125 0.8587 -335.9907 267.4748)" class="st13" width="65.7" height="9.3"/>
<polyline class="st14" points="327.2,772.8 291.2,763.8 347.6,730.1 338.5,766 "/>
<polyline class="st14" points="338.5,766 338.5,766 350.9,791 344.8,797.7 327.1,772.8 327.2,772.8 "/>
<line class="st13" x1="346.7" y1="719.9" x2="282.6" y2="758.1"/>
<path class="st14" d="M335.2,768"/>
<line class="st13" x1="338.5" y1="766" x2="332.8" y2="769.4"/>
<polygon class="st15" points="308.2,703.8 299.8,718 300,726.9 296,724.5 294.4,727.2 281.4,719.5 295.2,696.1 "/>
<text transform="matrix(0.5081 -0.8613 0.8613 0.5081 293.1621 720.6092)" class="st16 st17">SMS</text>
<polyline class="st18" points="294.3,751.2 276.7,747.8 279.8,732 307.7,737.3 306.4,743.9 "/>
<polyline class="st19" points="294.3,751.2 276.7,747.8 279.8,732 307.7,737.3 306.4,743.9 "/>
<polyline class="st20" points="288.2,741.8 276.7,747.8 294.3,751.2 "/>
<line class="st20" x1="300" y1="747.8" x2="296.2" y2="743.3"/>
<polygon class="st20" points="291.6,745.7 307.7,737.3 279.8,732 "/>
<line class="st14" x1="272.8" y1="735.3" x2="265.3" y2="733.5"/>
<line class="st14" x1="265.3" y1="741" x2="257.7" y2="739.2"/>
<line class="st14" x1="322" y1="686.9" x2="319.2" y2="677.6"/>
<line class="st14" x1="332.8" y1="690.5" x2="333.6" y2="683.6"/>
<line class="st14" x1="313.1" y1="694.9" x2="309.5" y2="688.8"/>
<line class="st14" x1="283.8" y1="697.5" x2="275.6" y2="692.3"/>
<line class="st14" x1="284.5" y1="705.9" x2="278.5" y2="702.1"/>
<path class="st14" d="M319,725.2C319,725.2,319,725.2,319,725.2c0-0.1,0-0.1,0-0.2c0.1-0.5,0.3-1,0.4-1.5c0.5-1.4,1-2.8,1.6-4.1
	c0.2-0.4,0.6-0.9,1-1.1c0.6-0.2,1.3-0.2,2-0.1c0.6,0.1,1.2,0.3,1.9,0.2c1.3-0.2,2-1.4,1.9-2.6c-0.1-3.7-0.3-7.5-0.5-11.2
	c-0.1-0.9-0.6-1.8-1.4-2.3c-1-0.6-2-0.3-3.1,0.1c-0.4,0.1-0.8,0.2-1.2,0.2c-0.5-0.1-1.1-0.3-1.4-0.7c-0.8-1.5-1.6-3-2.5-4.4
	c-0.3-0.4-0.4-1-0.3-1.5c0.5-2,2.9-2.6,4.7-3c2.7-0.5,5.1,0.5,6.5,2.8c2,3.3,3.5,6.8,4.3,10.6c0.6,3.3,0.6,6.7,0.1,9.9
	c-0.7,4.2-2.1,8.9-6.7,10.2c-0.6,0.2-1.4,0.2-2,0.3c-0.9,0.1-1.7,0.1-2.6,0c-1-0.1-2.2-0.3-2.7-1.3C319,725.4,319,725.3,319,725.2z"
	/>
<line class="st14" x1="319.7" y1="693.6" x2="324.4" y2="701.9"/>
<line class="st14" x1="322.1" y1="726.8" x2="325.1" y2="718.3"/>
<rect x="1321.4" y="863.4" transform="matrix(0.7011 -0.7131 0.7131 0.7011 -242.4863 1213.3256)" class="st21" width="9.2" height="65"/>
<polyline class="st22" points="1299.9,913 1299.5,876.4 1345.9,921.9 1309.2,922.2 "/>
<line class="st21" x1="1355.5" y1="918.5" x2="1302.8" y2="866.7"/>
<polygon class="st23" points="1361.3,877.6 1345.5,873.1 1337.1,875.5 1338.4,871.1 1335.4,870.2 1339.4,855.9 1365.3,863.3 "/>
<text transform="matrix(0.9618 0.2738 -0.2738 0.9618 1341.3608 867.3998)" class="st16 st24">SMS</text>
<polyline class="st18" points="1312.4,876.1 1311.2,858.5 1327.1,857.4 1329,885.5 1322.4,885.9 "/>
<polyline class="st25" points="1312.4,876.1 1311.2,858.5 1327.1,857.4 1329,885.5 1322.4,885.9 "/>
<polyline class="st26" points="1319.8,868 1311.2,858.5 1312.4,876.1 "/>
<line class="st26" x1="1317.1" y1="880.8" x2="1320.4" y2="876"/>
<polygon class="st26" points="1316.9,872.2 1329,885.5 1327.1,857.4 "/>
<line class="st22" x1="1322.2" y1="851.6" x2="1322.1" y2="843.9"/>
<line class="st22" x1="1314.8" y1="845.8" x2="1314.7" y2="838.1"/>
<line class="st22" x1="1380.9" y1="886.5" x2="1389.1" y2="881.6"/>
<line class="st22" x1="1380.2" y1="897.8" x2="1387" y2="896.9"/>
<line class="st22" x1="1371" y1="880.1" x2="1375.9" y2="875.1"/>
<line class="st22" x1="1361.1" y1="852.6" x2="1364.1" y2="843.5"/>
<line class="st22" x1="1353.2" y1="855.4" x2="1355.4" y2="848.8"/>
<path class="st22" d="M1343.4,893.3C1343.4,893.3,1343.4,893.3,1343.4,893.3c0.1,0,0.1,0,0.2,0c0.5,0,1.1,0,1.6,0
	c1.5,0.1,2.9,0.3,4.4,0.5c0.5,0.1,1.1,0.3,1.3,0.7c0.4,0.5,0.5,1.2,0.6,1.8c0.1,0.6,0.1,1.3,0.3,1.8c0.5,1.2,1.8,1.5,3,1.2
	c3.6-1,7.1-2.1,10.6-3.3c0.9-0.3,1.6-1,1.9-1.9c0.4-1.1-0.2-2-0.8-2.9c-0.2-0.3-0.4-0.7-0.4-1.1c-0.1-0.5,0-1.1,0.4-1.5
	c1.2-1.2,2.4-2.3,3.5-3.5c0.4-0.4,0.8-0.7,1.3-0.7c2,0,3.3,2.1,4,3.7c1.2,2.4,0.7,5-1.1,6.9c-2.6,2.7-5.7,5.1-9.1,6.8
	c-3,1.4-6.2,2.3-9.5,2.5c-4.2,0.3-9,0.2-11.4-3.8c-0.3-0.6-0.5-1.3-0.8-1.9c-0.3-0.8-0.6-1.6-0.7-2.5c-0.1-1-0.3-2.2,0.6-2.9
	C1343.3,893.3,1343.3,893.3,1343.4,893.3z"/>
<line class="st22" x1="1373.8" y1="886" x2="1367.1" y2="892.6"/>
<line class="st22" x1="1342.7" y1="896.7" x2="1351.5" y2="897.5"/>
<path class="st27" d="M120.1,766.9c6.8-10.6,17.2-19,30.2-22.9c22.6-6.9,46.2,1.4,59.7,19.1"/>
<polygon class="st28" points="199.6,763.2 199.9,761.3 209.4,762.6 210,753 212,753.1 211.3,764.8 "/>
<path class="st27" d="M163.8,851.5c-12.6-0.6-25-5.5-35-14.7c-17.3-16.1-21.8-40.7-13.3-61.3"/>
<polygon class="st28" points="120.8,784.5 119,785.2 115.4,776.3 106.7,780.6 105.9,778.8 116.4,773.6 "/>
<path class="st27" d="M215.2,771.3c5.8,11.2,7.8,24.4,4.7,37.6c-5.3,23-24.3,39.3-46.4,42.2"/>
<polygon class="st28" points="178.6,842.1 180.2,843.3 174.3,850.9 182.3,856.2 181.2,857.9 171.5,851.4 "/>
<path class="st29" d="M178.1,797.9c1-0.8,2.2-1.4,3.2-2.1c1-0.7,2.6-1.6,3-2.8c0.3-0.8,0-1.7-0.4-2.4c-0.5-1.1-1.3-2.1-2.2-2.9
	c-0.9-0.8-2-1.3-2.9-2.1c-0.4-0.3-0.6-0.8-0.7-1.3c0-0.6,0.3-0.7,0.4-1.1c0-0.1,0-0.3,0-0.4c-0.4-1.8-1.6-3.5-1.4-5.4
	c0.1-1.5,1.1-2.8,2.3-3.7c1.2-0.9,2.6-1.4,4-1.9"/>
<path class="st29" d="M183.4,771.9c1.4-0.4,2.9-0.8,4.4-0.7c1.5,0.1,3,0.6,4,1.8c1.2,1.5,1.1,3.5,1.8,5.3c0,0.1,0.1,0.2,0.2,0.3
	c0.4,0.3,0.7,0.2,1,0.7c0.2,0.4,0.3,1,0.2,1.5c-0.3,1.2-1,2.2-1.3,3.3c-0.3,1.2-0.4,2.4-0.2,3.7c0.1,0.8,0.4,1.7,1,2.2
	c1,0.8,2.8,0.6,4,0.7c2.3,0.1,5.1-0.6,7.1,0.8c1.8,1.2,2.4,3.6,2.7,5.7"/>
<path class="st29" d="M193,805.8c5.7-1.6,10.9-4.6,15.3-8.7"/>
<path class="st29" d="M139.4,785.3c1.4-0.4,2.9-0.8,4.4-0.7c1.5,0.1,3,0.6,4,1.8c1.2,1.5,1.1,3.5,1.8,5.3c0,0.1,0.1,0.2,0.2,0.3
	c0.4,0.3,0.7,0.2,1,0.7c0.2,0.4,0.3,1,0.2,1.5c-0.3,1.2-0.9,2.2-1.3,3.3c-0.3,1.2-0.4,2.4-0.2,3.7c0.1,0.8,0.4,1.7,1,2.2
	c1,0.8,2.8,0.6,4,0.7c1.2,0,2.5-0.1,3.8-0.1"/>
<path class="st29" d="M139.4,785.3c-1.4,0.5-2.8,1-4,1.9c-1.2,0.9-2.2,2.2-2.3,3.7c-0.2,1.9,1,3.6,1.4,5.4c0,0.1,0.1,0.3,0,0.4
	c-0.1,0.5-0.5,0.6-0.4,1.1c0,0.5,0.3,1,0.7,1.3c0.9,0.8,2,1.3,2.9,2.1c0.9,0.8,1.7,1.8,2.2,2.9c0.4,0.8,0.6,1.6,0.4,2.4
	c-0.4,1.2-2,2.1-3,2.8c-1.9,1.3-4.5,2.4-5.4,4.6c-0.8,2,0,4.3,1,6.2"/>
<path class="st29" d="M132.8,820.1c6,1,12,0.5,17.6-1.4"/>
<path class="st29" d="M159.6,772.8c-1.9,0.6-3.8,1.3-5.4,2.5c-1.6,1.2-2.9,3-3.1,5c-0.2,2.6,1.4,4.8,1.9,7.3c0,0.2,0.1,0.4,0,0.5
	c-0.2,0.6-0.7,0.8-0.6,1.5c0.1,0.7,0.4,1.3,0.9,1.7c1.2,1.1,2.7,1.7,3.9,2.8c1.2,1.1,2.3,2.4,3,3.9c0.5,1,0.9,2.2,0.5,3.2
	c-0.6,1.7-2.6,2.8-4,3.8c-2.5,1.8-6.1,3.2-7.3,6.2c-1.1,2.7,0.1,5.8,1.3,8.4"/>
<path class="st29" d="M159.6,772.8c1.9-0.5,3.9-1,5.9-1c2,0.1,4.1,0.8,5.3,2.4c1.6,2,1.5,4.8,2.5,7.1c0.1,0.2,0.1,0.3,0.3,0.4
	c0.5,0.4,1,0.3,1.4,0.9c0.3,0.6,0.4,1.3,0.2,2c-0.4,1.6-1.3,2.9-1.7,4.5c-0.4,1.6-0.5,3.3-0.3,4.9c0.2,1.1,0.5,2.3,1.4,3
	c1.4,1.1,3.8,0.8,5.4,0.9c3.1,0.1,6.8-0.7,9.5,1c2.5,1.6,3.2,4.8,3.6,7.7"/>
<path class="st29" d="M150.8,819.6c15.4,2.5,31-2.3,42.4-13"/>
<path class="st30" d="M331.3,852.4l38.3,38.3c1.9,1.9,1.9,5,0,7l-30.2,30.2c-1.9,1.9-5,1.9-6.9,0l-17.9-17.9"/>
<path class="st30" d="M298.2,893.5l-30-30c-1.9-1.9-1.9-5,0-6.9l30.2-30.2c1.9-1.9,5-1.9,7,0l9.7,9.7"/>
<line class="st30" x1="364.2" y1="885.3" x2="327.1" y2="922.4"/>
<line class="st30" x1="271.1" y1="866.5" x2="308.2" y2="829.4"/>
<polygon class="st31" points="304.6,919.8 322.5,901.9 335.7,898.7 330.6,893.8 334,890.4 317.7,874 288.2,903.5 "/>
<path d="M304.2,897.2l6.7,6.7l-1.2,1.2l-4.1-4.1c-0.1-0.1-0.2-0.2-0.3-0.3c-0.1-0.1-0.2-0.2-0.3-0.3l1.7,5.6c0.1,0.3,0,0.6-0.2,0.8
	l-0.2,0.2c-0.1,0.1-0.2,0.2-0.4,0.2c-0.1,0-0.3,0-0.4,0l-5.6-1.7c0.1,0.1,0.2,0.2,0.3,0.3c0.1,0.1,0.2,0.2,0.3,0.3l4.1,4.1l-1.2,1.2
	l-6.7-6.7l1.1-1.1c0.1-0.1,0.1-0.1,0.2-0.2c0,0,0.1-0.1,0.1-0.1c0.1,0,0.1,0,0.2,0c0.1,0,0.1,0,0.2,0l5.5,1.7c0.2,0,0.3,0.1,0.5,0.2
	c0.2,0.1,0.3,0.1,0.5,0.2c-0.1-0.2-0.1-0.3-0.2-0.5c-0.1-0.2-0.1-0.3-0.2-0.5l-1.7-5.4c0-0.1,0-0.2,0-0.2c0-0.1,0-0.1,0-0.2
	c0,0,0.1-0.1,0.1-0.1c0,0,0.1-0.1,0.2-0.2L304.2,897.2z"/>
<path d="M313,888.4l6.7,6.7l-1.2,1.2l-4.1-4.1c-0.1-0.1-0.2-0.2-0.3-0.3c-0.1-0.1-0.2-0.2-0.3-0.3l1.7,5.6c0.1,0.3,0,0.6-0.2,0.8
	l-0.2,0.2c-0.1,0.1-0.2,0.2-0.4,0.2c-0.1,0-0.3,0-0.4,0l-5.6-1.7c0.1,0.1,0.2,0.2,0.3,0.3c0.1,0.1,0.2,0.2,0.3,0.3l4.1,4.1l-1.2,1.2
	l-6.7-6.7l1.1-1.1c0.1-0.1,0.1-0.1,0.2-0.2s0.1-0.1,0.1-0.1c0.1,0,0.1,0,0.2,0c0.1,0,0.1,0,0.2,0l5.5,1.7c0.2,0,0.3,0.1,0.5,0.2
	c0.2,0.1,0.3,0.1,0.5,0.2c-0.1-0.2-0.1-0.3-0.2-0.5c-0.1-0.2-0.1-0.3-0.2-0.5l-1.7-5.4c0-0.1,0-0.2,0-0.2c0-0.1,0-0.1,0-0.2
	c0,0,0.1-0.1,0.1-0.1c0,0,0.1-0.1,0.2-0.2L313,888.4z"/>
<path d="M319.4,884.6c0,0.1,0,0.2,0,0.3c0,0.1-0.1,0.2-0.1,0.2c-0.1,0.1-0.2,0.1-0.3,0.1c-0.1,0-0.3,0.1-0.4,0.1
	c-0.2,0-0.3,0.1-0.5,0.2c-0.2,0.1-0.4,0.2-0.5,0.4c-0.3,0.3-0.5,0.6-0.5,0.9c0,0.3,0.1,0.6,0.3,0.8c0.1,0.1,0.3,0.2,0.5,0.2
	c0.2,0,0.4,0,0.6-0.1c0.2-0.1,0.4-0.2,0.7-0.3c0.2-0.1,0.5-0.3,0.7-0.4c0.3-0.1,0.5-0.2,0.8-0.3c0.3-0.1,0.5-0.1,0.8-0.2
	s0.6,0,0.8,0.2c0.3,0.1,0.6,0.3,0.8,0.6c0.3,0.3,0.5,0.6,0.7,1c0.2,0.4,0.2,0.8,0.2,1.2s-0.1,0.8-0.3,1.2c-0.2,0.4-0.5,0.8-0.8,1.2
	c-0.2,0.2-0.4,0.4-0.7,0.6c-0.3,0.2-0.5,0.3-0.8,0.4c-0.3,0.1-0.6,0.2-0.8,0.3c-0.3,0.1-0.6,0.1-0.8,0.1l-0.3-1.1c0-0.1,0-0.2,0-0.3
	c0-0.1,0.1-0.2,0.1-0.2c0.1-0.1,0.2-0.1,0.4-0.2c0.2,0,0.3-0.1,0.5-0.1c0.2,0,0.4-0.1,0.6-0.2c0.2-0.1,0.4-0.3,0.7-0.5
	c0.3-0.3,0.5-0.6,0.5-1c0-0.3-0.1-0.6-0.4-0.9c-0.2-0.2-0.4-0.3-0.5-0.3c-0.2,0-0.4,0-0.6,0.1c-0.2,0.1-0.4,0.2-0.7,0.3
	c-0.2,0.1-0.5,0.3-0.7,0.4c-0.3,0.1-0.5,0.2-0.8,0.3c-0.3,0.1-0.5,0.1-0.8,0.1c-0.3,0-0.6-0.1-0.9-0.2c-0.3-0.1-0.6-0.3-0.9-0.7
	c-0.2-0.2-0.4-0.5-0.6-0.9c-0.1-0.3-0.2-0.7-0.2-1.1c0-0.4,0.1-0.8,0.3-1.1c0.2-0.4,0.4-0.8,0.8-1.1c0.4-0.4,0.8-0.7,1.3-0.9
	c0.5-0.2,0.9-0.3,1.4-0.4L319.4,884.6z"/>
<polygon class="st31" points="343.1,840.6 325.2,858.5 322.1,871.7 317.1,866.6 313.7,870 297.4,853.7 326.8,824.3 "/>
<path d="M313.3,850c0,0.1,0,0.2,0,0.3c0,0.1-0.1,0.2-0.1,0.2c-0.1,0.1-0.2,0.1-0.3,0.1c-0.1,0-0.3,0.1-0.4,0.1
	c-0.2,0-0.3,0.1-0.5,0.2c-0.2,0.1-0.4,0.2-0.5,0.4c-0.3,0.3-0.5,0.6-0.5,0.9c0,0.3,0.1,0.6,0.3,0.8c0.1,0.1,0.3,0.2,0.5,0.2
	c0.2,0,0.4,0,0.6-0.1c0.2-0.1,0.4-0.2,0.7-0.3c0.2-0.1,0.5-0.3,0.7-0.4c0.3-0.1,0.5-0.2,0.8-0.3c0.3-0.1,0.5-0.1,0.8-0.2
	c0.3,0,0.6,0,0.8,0.2c0.3,0.1,0.6,0.3,0.8,0.6c0.3,0.3,0.5,0.6,0.7,1c0.2,0.4,0.2,0.8,0.2,1.2c0,0.4-0.1,0.8-0.3,1.2
	c-0.2,0.4-0.5,0.8-0.8,1.2c-0.2,0.2-0.4,0.4-0.7,0.6c-0.3,0.2-0.5,0.3-0.8,0.4s-0.6,0.2-0.8,0.3c-0.3,0.1-0.6,0.1-0.8,0.1l-0.2-1.1
	c0-0.1,0-0.2,0-0.3c0-0.1,0.1-0.2,0.1-0.2c0.1-0.1,0.2-0.1,0.4-0.2c0.2,0,0.3-0.1,0.5-0.1c0.2,0,0.4-0.1,0.6-0.2
	c0.2-0.1,0.4-0.3,0.7-0.5c0.3-0.3,0.5-0.6,0.5-1c0-0.3-0.1-0.6-0.4-0.9c-0.2-0.2-0.4-0.3-0.5-0.3c-0.2,0-0.4,0-0.6,0.1
	c-0.2,0.1-0.4,0.2-0.7,0.3c-0.2,0.1-0.5,0.3-0.7,0.4c-0.3,0.1-0.5,0.2-0.8,0.3c-0.3,0.1-0.5,0.1-0.8,0.1s-0.6-0.1-0.9-0.2
	c-0.3-0.1-0.6-0.3-0.9-0.7c-0.2-0.2-0.4-0.5-0.6-0.9c-0.1-0.3-0.2-0.7-0.2-1.1c0-0.4,0.1-0.8,0.3-1.1s0.4-0.8,0.8-1.1
	c0.4-0.4,0.8-0.7,1.3-0.9c0.5-0.2,0.9-0.3,1.4-0.4L313.3,850z"/>
<path d="M320.9,839.9l6.7,6.7l-1.2,1.2l-4.1-4.1c-0.1-0.1-0.2-0.2-0.3-0.3c-0.1-0.1-0.2-0.2-0.3-0.3l1.7,5.6c0.1,0.3,0,0.6-0.2,0.8
	l-0.2,0.2c-0.1,0.1-0.2,0.2-0.4,0.2c-0.1,0-0.3,0-0.4,0l-5.6-1.7c0.1,0.1,0.2,0.2,0.3,0.3c0.1,0.1,0.2,0.2,0.3,0.3l4.1,4.1l-1.2,1.2
	l-6.7-6.7l1.1-1.1c0.1-0.1,0.1-0.1,0.2-0.2s0.1-0.1,0.1-0.1c0,0,0.1,0,0.2,0c0.1,0,0.1,0,0.2,0l5.5,1.7c0.2,0,0.3,0.1,0.5,0.2
	c0.2,0.1,0.3,0.1,0.5,0.2c-0.1-0.2-0.2-0.3-0.2-0.5s-0.1-0.3-0.2-0.5l-1.7-5.4c0-0.1,0-0.2,0-0.2c0-0.1,0-0.1,0-0.2
	c0,0,0.1-0.1,0.1-0.1c0,0,0.1-0.1,0.2-0.2L320.9,839.9z"/>
<path d="M327.2,836.1c0,0.1,0,0.2,0,0.3c0,0.1-0.1,0.2-0.1,0.2c-0.1,0.1-0.2,0.1-0.3,0.1c-0.1,0-0.3,0.1-0.4,0.1
	c-0.2,0-0.3,0.1-0.5,0.2c-0.2,0.1-0.4,0.2-0.5,0.4c-0.3,0.3-0.5,0.6-0.5,0.9c0,0.3,0.1,0.6,0.3,0.8c0.1,0.1,0.3,0.2,0.5,0.2
	c0.2,0,0.4,0,0.6-0.1c0.2-0.1,0.4-0.2,0.7-0.3c0.2-0.1,0.5-0.3,0.7-0.4s0.5-0.2,0.8-0.3c0.3-0.1,0.5-0.1,0.8-0.2
	c0.3,0,0.6,0,0.8,0.2c0.3,0.1,0.6,0.3,0.8,0.6c0.3,0.3,0.5,0.6,0.7,1c0.2,0.4,0.2,0.8,0.2,1.2c0,0.4-0.1,0.8-0.3,1.2
	c-0.2,0.4-0.5,0.8-0.8,1.2c-0.2,0.2-0.4,0.4-0.7,0.6c-0.3,0.2-0.5,0.3-0.8,0.4s-0.6,0.2-0.8,0.3c-0.3,0.1-0.6,0.1-0.8,0.1l-0.2-1.1
	c0-0.1,0-0.2,0-0.3c0-0.1,0.1-0.2,0.1-0.2c0.1-0.1,0.2-0.1,0.4-0.2c0.2,0,0.3-0.1,0.5-0.1c0.2,0,0.4-0.1,0.6-0.2
	c0.2-0.1,0.4-0.3,0.7-0.5c0.3-0.3,0.5-0.6,0.5-1c0-0.3-0.1-0.6-0.4-0.9c-0.2-0.2-0.4-0.3-0.5-0.3c-0.2,0-0.4,0-0.6,0.1
	c-0.2,0.1-0.4,0.2-0.7,0.3s-0.5,0.3-0.7,0.4c-0.3,0.1-0.5,0.2-0.8,0.3c-0.3,0.1-0.5,0.1-0.8,0.1c-0.3,0-0.6-0.1-0.9-0.2
	c-0.3-0.1-0.6-0.3-0.9-0.7c-0.2-0.2-0.4-0.5-0.6-0.9c-0.1-0.3-0.2-0.7-0.2-1.1c0-0.4,0.1-0.8,0.3-1.1c0.2-0.4,0.4-0.8,0.8-1.1
	c0.4-0.4,0.8-0.7,1.3-0.9c0.5-0.2,0.9-0.3,1.4-0.4L327.2,836.1z"/>
<line class="st30" x1="345.3" y1="912.7" x2="354.4" y2="903.6"/>
<path d="M1411.7,805.6l-2.3,1.4l-29-49.4c-2.2-3.8-1-8.7,2.8-10.9l49.7-29.1c3.8-2.2,8.7-1,10.9,2.8l9.4,16l-2.3,1.4l-9.4-16
	c-1.5-2.5-4.7-3.3-7.2-1.9l-49.7,29.1c-2.5,1.5-3.3,4.7-1.9,7.2L1411.7,805.6z"/>
<rect x="1433.6" y="834.6" transform="matrix(0.8625 -0.5061 0.5061 0.8625 -221.048 858.3987)" width="70.9" height="2.7"/>
<rect x="1379.5" y="742.5" transform="matrix(0.8625 -0.5061 0.5061 0.8625 -181.8741 818.3721)" width="70.9" height="2.7"/>
<path d="M1521.6,772.5c-0.2,0.1-0.5,0.2-0.7,0.2l-18.4-0.3c-0.7,0-1.3-0.6-1.3-1.4c0-0.8,0.6-1.4,1.4-1.3l15.9,0.3l-3.7-6.1
	c-0.2-0.3-0.2-0.7-0.2-1c0.1-0.4,0.3-0.7,0.6-0.8l4.5-2.6l-14.4-24.5l-40.3,23.6c-0.6,0.4-1.5,0.2-1.9-0.5c-0.4-0.6-0.2-1.5,0.5-1.9
	l41.5-24.3c0.6-0.4,1.5-0.2,1.9,0.5l15.8,26.9c0.4,0.6,0.2,1.5-0.5,1.9l-4.5,2.6l4.3,7c0.3,0.4,0.3,1,0,1.4
	C1522,772.2,1521.8,772.4,1521.6,772.5z"/>
<path class="st32" d="M1486.6,797.7l17.4,29.6c1.5,2.5,0.8,7.1-1.7,8.6l-49.7,29.1c-2.5,1.5-6.3-0.5-7.7-3l-33.6-57.3l-2.5,1.5
	l33.6,57.3c2.2,3.8,7.2,5,11,2.8l49.7-29.1c3.8-2.2,4.5-6.8,2.2-10.6l-17.4-29.6L1486.6,797.7z"/>
<rect x="1460.4" y="733" transform="matrix(0.8625 -0.5061 0.5061 0.8625 -180.0192 842.9581)" class="st33" width="1.5" height="39.4"/>
<path d="M1473.4,816.6c-0.2,0.1-0.4,0.2-0.7,0.2c-0.5,0-1-0.3-1.2-0.7l-4-7.1l-4.5,2.6c-0.6,0.4-1.5,0.2-1.9-0.5l-15.8-26.9
	c-0.4-0.6-0.2-1.5,0.5-1.9l48.5-28.5c0.6-0.4,1.5-0.2,1.9,0.5l15.8,26.9c0.4,0.6,0.2,1.5-0.5,1.9l-29.1,17.1l-8.5,15.8
	C1473.8,816.3,1473.7,816.5,1473.4,816.6z M1462.9,808.5l4.5-2.6c0.3-0.2,0.7-0.2,1-0.1c0.3,0.1,0.6,0.3,0.8,0.6l3.5,6.2l7.5-14
	c0.1-0.2,0.3-0.4,0.5-0.5l28.3-16.6l-14.4-24.5l-46.2,27.1L1462.9,808.5z"/>
<path d="M1410.4,762.5c0,0.2,0,0.3-0.1,0.4c0,0.1-0.1,0.2-0.2,0.2c-0.1,0.1-0.3,0.1-0.4,0.1c-0.2,0-0.4,0-0.6,0
	c-0.2,0-0.5,0-0.7,0.1c-0.3,0.1-0.6,0.2-0.9,0.3c-0.5,0.3-0.9,0.7-1,1.1c-0.1,0.4-0.1,0.8,0.2,1.2c0.1,0.2,0.3,0.4,0.6,0.5
	c0.2,0.1,0.5,0.1,0.8,0.1s0.6-0.1,1-0.2c0.4-0.1,0.7-0.2,1.1-0.2c0.4-0.1,0.8-0.1,1.1-0.2c0.4,0,0.8,0,1.1,0.1
	c0.4,0.1,0.7,0.2,1.1,0.5c0.3,0.2,0.6,0.6,0.9,1.1c0.3,0.5,0.5,1,0.6,1.6c0.1,0.5,0.1,1.1-0.1,1.6c-0.1,0.5-0.4,1-0.8,1.5
	c-0.4,0.5-0.9,0.9-1.5,1.3c-0.4,0.2-0.7,0.4-1.1,0.5c-0.4,0.1-0.8,0.2-1.2,0.3c-0.4,0.1-0.8,0.1-1.2,0.1c-0.4,0-0.8-0.1-1.1-0.2
	l0-1.5c0-0.1,0-0.2,0.1-0.3c0.1-0.1,0.1-0.2,0.2-0.3c0.1-0.1,0.3-0.1,0.5-0.1c0.2,0,0.5,0,0.7,0c0.3,0,0.6,0,0.9-0.1
	c0.3-0.1,0.7-0.2,1-0.4c0.5-0.3,0.9-0.7,1-1.1c0.2-0.4,0.1-0.9-0.2-1.3c-0.2-0.3-0.4-0.5-0.6-0.6c-0.2-0.1-0.5-0.1-0.8-0.1
	c-0.3,0-0.6,0.1-1,0.2c-0.3,0.1-0.7,0.2-1.1,0.3c-0.4,0.1-0.8,0.1-1.1,0.2c-0.4,0-0.8,0-1.1-0.1c-0.4-0.1-0.7-0.3-1.1-0.5
	c-0.3-0.3-0.7-0.6-1-1.2c-0.2-0.4-0.4-0.9-0.5-1.3c-0.1-0.5,0-1,0.1-1.4c0.1-0.5,0.4-1,0.7-1.4c0.4-0.5,0.8-0.9,1.4-1.2
	c0.7-0.4,1.3-0.6,2-0.8c0.7-0.1,1.3-0.1,1.9,0L1410.4,762.5z"/>
<path d="M1415.6,761.9c0.1-0.2,0.2-0.4,0.2-0.6c0.1-0.2,0.2-0.4,0.3-0.6s0.3-0.4,0.5-0.5c0.2-0.2,0.4-0.3,0.6-0.5
	c0.4-0.3,0.8-0.4,1.3-0.4c0.4,0,0.8,0,1.2,0.1c0.4,0.1,0.7,0.3,1.1,0.6c0.3,0.3,0.6,0.7,0.9,1.1l2.9,5l-2.1,1.2l-2.9-5
	c-0.3-0.4-0.6-0.7-0.9-0.8c-0.3-0.1-0.7-0.1-1.1,0.2c-0.3,0.2-0.5,0.4-0.7,0.7c-0.2,0.3-0.3,0.6-0.4,1l3.3,5.7l-2.1,1.2l-6.7-11.4
	l2.1-1.2L1415.6,761.9z"/>
<path d="M1425.2,755.1c0.6-0.3,1.2-0.6,1.8-0.7c0.6-0.1,1.2-0.1,1.7,0.1c0.6,0.1,1.1,0.4,1.5,0.8c0.5,0.4,0.9,0.9,1.3,1.5
	c0.4,0.6,0.6,1.2,0.7,1.9c0.1,0.6,0.1,1.2-0.1,1.7c-0.1,0.6-0.4,1.1-0.8,1.5s-0.9,0.9-1.4,1.2c-0.6,0.3-1.2,0.6-1.8,0.7
	c-0.6,0.1-1.2,0.1-1.7-0.1c-0.6-0.1-1.1-0.4-1.6-0.8c-0.5-0.4-0.9-0.9-1.3-1.5c-0.4-0.6-0.6-1.2-0.7-1.9c-0.1-0.6-0.1-1.2,0.1-1.7
	c0.1-0.5,0.4-1.1,0.8-1.5C1424.1,755.9,1424.6,755.5,1425.2,755.1z M1429,761.6c0.6-0.4,0.9-0.8,1-1.4c0-0.6-0.2-1.3-0.7-2.1
	c-0.5-0.8-1-1.3-1.5-1.6s-1.1-0.2-1.7,0.2c-0.6,0.4-0.9,0.8-1,1.4s0.2,1.3,0.6,2.1c0.5,0.8,1,1.3,1.5,1.6
	C1427.8,762,1428.4,762,1429,761.6z"/>
<path d="M1433.3,752.3c0-0.6,0.1-1.1,0.2-1.6c0.2-0.5,0.5-0.8,0.9-1.1c0.4-0.2,0.7-0.3,1-0.3l0.8,1.6c0,0.1,0,0.2,0,0.3
	c0,0.1-0.1,0.1-0.2,0.2c-0.1,0-0.2,0.1-0.4,0.2c-0.2,0.1-0.3,0.1-0.4,0.2c-0.2,0.1-0.3,0.2-0.5,0.4c-0.1,0.1-0.2,0.3-0.3,0.5
	c-0.1,0.2-0.1,0.4-0.1,0.6c0,0.2,0,0.4,0,0.7l2.8,4.8l-2.1,1.2l-4.6-7.9l1.2-0.7c0.2-0.1,0.4-0.2,0.5-0.1c0.1,0,0.3,0.1,0.4,0.3
	L1433.3,752.3z"/>
<path d="M1443.7,755.2c-0.4,0.2-0.7,0.3-1,0.4c-0.3,0.1-0.7,0-1,0c-0.3-0.1-0.6-0.2-0.8-0.5c-0.3-0.2-0.5-0.5-0.7-0.8l-2.5-4.2
	l-0.7,0.4c-0.1,0.1-0.2,0.1-0.3,0.1c-0.1,0-0.2-0.1-0.3-0.2l-0.5-0.8l1.1-1l-0.8-2.3c-0.1-0.3,0-0.5,0.3-0.6l1.1-0.6l1.4,2.4l2-1.2
	l0.9,1.5l-2,1.2l2.4,4.1c0.1,0.2,0.3,0.4,0.5,0.4c0.2,0.1,0.4,0,0.6-0.1c0.1-0.1,0.2-0.1,0.2-0.2c0.1-0.1,0.1-0.1,0.1-0.2
	c0-0.1,0.1-0.1,0.1-0.2c0,0,0.1-0.1,0.1-0.1c0.1,0,0.1,0,0.2,0c0.1,0,0.1,0,0.2,0.1l1.2,0.6c-0.2,0.4-0.4,0.8-0.7,1.1
	C1444.4,754.6,1444.1,754.9,1443.7,755.2z"/>
<path d="M1425.4,782.6c0.1-0.1,0.3-0.1,0.4,0l1.5,0.4c-0.1,0.8-0.4,1.6-0.9,2.3c-0.5,0.7-1.2,1.3-2.1,1.8c-0.8,0.5-1.7,0.8-2.5,0.9
	c-0.8,0.1-1.6,0-2.4-0.2s-1.5-0.6-2.1-1.2c-0.7-0.5-1.2-1.2-1.7-2c-0.3-0.6-0.6-1.1-0.7-1.7c-0.2-0.6-0.3-1.1-0.3-1.7
	c0-0.6,0-1.1,0.2-1.6c0.1-0.5,0.3-1,0.6-1.5c0.3-0.5,0.6-0.9,1-1.3c0.4-0.4,0.9-0.8,1.4-1.1c0.4-0.2,0.8-0.4,1.2-0.6
	c0.4-0.1,0.8-0.2,1.2-0.3c0.4-0.1,0.8-0.1,1.1-0.1c0.4,0,0.7,0.1,1.1,0.2l-0.2,1.5c0,0.1,0,0.2-0.1,0.3c0,0.1-0.1,0.2-0.2,0.2
	c-0.1,0.1-0.3,0.1-0.4,0.1c-0.2,0-0.4,0-0.6,0c-0.2,0-0.5,0-0.8,0.1s-0.7,0.2-1.1,0.5c-0.5,0.3-0.8,0.6-1.1,1
	c-0.3,0.4-0.5,0.8-0.6,1.3c-0.1,0.5-0.1,1,0,1.5c0.1,0.6,0.4,1.1,0.7,1.7c0.3,0.6,0.7,1.1,1.2,1.4c0.4,0.4,0.9,0.6,1.4,0.8
	c0.5,0.2,1,0.2,1.4,0.1c0.5-0.1,0.9-0.2,1.4-0.5c0.3-0.2,0.5-0.3,0.7-0.5c0.2-0.2,0.4-0.3,0.5-0.5c0.1-0.2,0.3-0.3,0.4-0.5
	c0.1-0.2,0.2-0.4,0.3-0.7c0-0.1,0.1-0.2,0.1-0.2C1425.3,782.7,1425.3,782.6,1425.4,782.6z"/>
<path d="M1427.9,774c0.6-0.3,1.2-0.6,1.8-0.7c0.6-0.1,1.2-0.1,1.7,0.1c0.5,0.1,1.1,0.4,1.5,0.8s0.9,0.9,1.3,1.5s0.6,1.2,0.7,1.9
	c0.1,0.6,0.1,1.2-0.1,1.7c-0.1,0.6-0.4,1.1-0.8,1.5c-0.4,0.5-0.9,0.9-1.4,1.2c-0.6,0.3-1.2,0.6-1.8,0.7c-0.6,0.1-1.2,0.1-1.7-0.1
	c-0.6-0.1-1.1-0.4-1.6-0.8c-0.5-0.4-0.9-0.9-1.3-1.5c-0.4-0.6-0.6-1.2-0.7-1.9c-0.1-0.6-0.1-1.2,0.1-1.7c0.1-0.6,0.4-1.1,0.8-1.5
	C1426.8,774.8,1427.3,774.4,1427.9,774z M1431.7,780.5c0.6-0.3,0.9-0.8,1-1.4c0-0.6-0.2-1.3-0.7-2.1c-0.5-0.8-1-1.3-1.5-1.6
	c-0.5-0.2-1.1-0.2-1.7,0.2c-0.6,0.4-0.9,0.8-1,1.4c0,0.6,0.2,1.3,0.6,2.1c0.5,0.8,1,1.4,1.5,1.6S1431.1,780.9,1431.7,780.5z"/>
<path class="st34" d="M1438.2,763.5l6.7,11.4l-1.3,0.8c-0.3,0.2-0.5,0.1-0.7-0.1l-0.6-0.6c-0.1,0.3-0.1,0.5-0.2,0.8
	c-0.1,0.2-0.2,0.5-0.3,0.7c-0.1,0.2-0.3,0.4-0.5,0.6s-0.4,0.4-0.7,0.5c-0.4,0.2-0.9,0.4-1.3,0.4c-0.5,0-0.9-0.1-1.4-0.2
	c-0.5-0.2-0.9-0.5-1.3-0.9c-0.4-0.4-0.8-0.9-1.2-1.6c-0.3-0.6-0.6-1.2-0.7-1.8c-0.1-0.6-0.2-1.2-0.1-1.7c0.1-0.5,0.3-1,0.6-1.5
	c0.3-0.5,0.7-0.8,1.2-1.1c0.4-0.3,0.8-0.4,1.2-0.4c0.4,0,0.7,0,1.1,0l-2.4-4.1L1438.2,763.5z M1439.3,770.2
	c-0.3-0.1-0.6-0.1-0.9-0.1c-0.3,0-0.6,0.1-0.8,0.3c-0.3,0.1-0.5,0.3-0.6,0.6c-0.2,0.2-0.2,0.5-0.3,0.8c0,0.3,0,0.6,0.1,1
	c0.1,0.4,0.3,0.8,0.6,1.2c0.3,0.4,0.5,0.8,0.8,1.1c0.2,0.3,0.5,0.5,0.7,0.6c0.2,0.1,0.5,0.2,0.7,0.1c0.2,0,0.5-0.1,0.7-0.2
	c0.4-0.2,0.6-0.5,0.8-0.8c0.2-0.3,0.3-0.6,0.3-1L1439.3,770.2z"/>
<path d="M1446.1,769.2c0.5,0.7,1,1.1,1.6,1.2c0.6,0.1,1.1,0,1.7-0.3c0.3-0.2,0.5-0.4,0.7-0.5c0.2-0.2,0.3-0.4,0.4-0.6
	c0.1-0.2,0.2-0.3,0.3-0.5c0.1-0.1,0.2-0.3,0.3-0.3c0.2-0.1,0.3-0.1,0.5,0l1.1,0.4c-0.1,0.4-0.2,0.8-0.4,1.1
	c-0.2,0.3-0.4,0.6-0.6,0.9c-0.2,0.3-0.5,0.5-0.8,0.7c-0.3,0.2-0.5,0.4-0.8,0.6c-0.6,0.3-1.1,0.5-1.7,0.6c-0.6,0.1-1.2,0.1-1.7-0.1
	c-0.6-0.1-1.1-0.4-1.6-0.8c-0.5-0.4-1-1-1.4-1.6c-0.3-0.5-0.5-1.1-0.6-1.7c-0.1-0.6-0.1-1.1,0-1.7c0.1-0.5,0.4-1.1,0.7-1.5
	c0.4-0.5,0.8-0.9,1.4-1.3c0.5-0.3,1-0.5,1.5-0.6c0.5-0.1,1-0.1,1.5,0.1c0.5,0.1,0.9,0.4,1.4,0.7c0.4,0.3,0.8,0.8,1.1,1.4
	c0.1,0.2,0.2,0.3,0.2,0.4c0,0.1,0.1,0.2,0.1,0.3c0,0.1,0,0.2-0.1,0.2c0,0.1-0.1,0.1-0.2,0.2L1446.1,769.2z M1448.7,766
	c-0.1-0.2-0.3-0.4-0.5-0.6c-0.2-0.2-0.4-0.3-0.6-0.4c-0.2-0.1-0.4-0.1-0.7-0.1c-0.2,0-0.5,0.1-0.8,0.3c-0.5,0.3-0.8,0.7-0.9,1.1
	c-0.1,0.5-0.1,1,0.2,1.5L1448.7,766z"/>
<rect x="1464.4" y="841.6" transform="matrix(0.8625 -0.5061 0.5061 0.8625 -224.0522 861.4503)" width="17.5" height="2.7"/>
<circle cx="1470.1" cy="788.5" r="2.4"/>
<circle cx="1478.3" cy="783.6" r="2.4"/>
<circle cx="1486.6" cy="778.8" r="2.4"/>
<path class="st35" d="M1318.2,768.6l-28.7,39.3c-1.4,2-4.2,2.4-6.2,1l-31-22.6c-2-1.4-2.4-4.2-1-6.2l48.3-66.1c1.4-2,4.2-2.4,6.2-1
	l31,22.6c2,1.4,2.4,4.2,1,6.2l-7.3,10"/>
<line class="st35" x1="1293.5" y1="802.4" x2="1255.4" y2="774.5"/>
<line class="st36" x1="1297.4" y1="717" x2="1335.6" y2="744.9"/>
<polygon class="st37" points="1330.4,777.5 1312,764.1 1299.8,763.1 1303.7,758 1300.1,755.4 1312.4,738.6 1342.7,760.7 "/>
<rect x="1313.8" y="749.5" transform="matrix(0.5899 -0.8074 0.8074 0.5899 -71.0876 1377.4795)" class="st18" width="13.6" height="18.5"/>
<path d="M1317.8,755.4l2.4,1.7l-2.1,2.9c-0.5,0-1.1-0.1-1.5-0.3c-0.5-0.2-1-0.4-1.4-0.7c-0.6-0.4-1-0.9-1.3-1.4
	c-0.3-0.5-0.5-1-0.6-1.6c-0.1-0.6-0.1-1.1,0.1-1.7c0.1-0.6,0.4-1.1,0.8-1.6c0.4-0.5,0.8-0.9,1.3-1.2s1-0.5,1.5-0.6
	c0.5-0.1,1.1,0,1.7,0.1s1.1,0.4,1.7,0.8c0.3,0.2,0.5,0.4,0.7,0.7c0.2,0.2,0.4,0.5,0.5,0.7c0.2,0.2,0.3,0.5,0.4,0.7
	c0.1,0.2,0.2,0.5,0.2,0.7l-0.9,0.3c-0.1,0.1-0.3,0.1-0.4,0c-0.1-0.1-0.2-0.2-0.3-0.3c-0.1-0.2-0.1-0.3-0.2-0.4
	c-0.1-0.1-0.2-0.3-0.2-0.4c-0.1-0.1-0.2-0.3-0.3-0.4c-0.1-0.1-0.3-0.3-0.5-0.4c-0.3-0.2-0.7-0.4-1-0.5c-0.3-0.1-0.7-0.1-1,0
	c-0.3,0.1-0.7,0.2-1,0.4c-0.3,0.2-0.6,0.5-0.8,0.8c-0.3,0.4-0.5,0.8-0.6,1.1c-0.1,0.4-0.1,0.7-0.1,1.1c0,0.3,0.2,0.7,0.4,1
	s0.5,0.6,0.8,0.8c0.2,0.2,0.4,0.3,0.7,0.4c0.2,0.1,0.4,0.2,0.7,0.2l0.8-1.2l-0.8-0.6c-0.1-0.1-0.1-0.1-0.2-0.2c0-0.1,0-0.2,0.1-0.2
	L1317.8,755.4z"/>
<path d="M1320.2,762.5l-1.4-1l5-6.9l1.4,1L1320.2,762.5z"/>
<path d="M1327.3,758.8l-1.4,1.9l2.5,1.8l-0.8,1.1l-2.5-1.8l-2,2.8l-1.4-1l5-6.9l4.4,3.2l-0.8,1.1L1327.3,758.8z"/>
<line class="st35" x1="1266.5" y1="789.4" x2="1275.9" y2="796.3"/>
<path class="st38" d="M1256.4,525.5L1283,493c1.7-2.1,4.7-2.4,6.8-0.7l69.3,56.6c2.1,1.7,2.4,4.7,0.7,6.8l-26.6,32.5
	c-1.7,2.1-4.7,2.4-6.8,0.7l-69.3-56.6C1255,530.6,1254.7,527.6,1256.4,525.5z"/>
<line class="st38" x1="1353.3" y1="544.2" x2="1320.6" y2="584.2"/>
<line class="st38" x1="1260.3" y1="534.9" x2="1293" y2="494.9"/>
<path class="st38" d="M1337.5,570.3l5.7-7c0.6-0.7,1.6-0.8,2.3-0.2l0,0c0.7,0.6,0.8,1.6,0.2,2.3l-5.7,7c-0.6,0.7-1.6,0.8-2.3,0.2
	l0,0C1337.1,572,1337,571,1337.5,570.3z"/>
<path class="st39" d="M1309.2,542.8l-8.5-1.4c-0.9-0.1-1.3-1.2-0.7-1.9l5.4-6.6c0.6-0.7,1.7-0.5,2,0.3l3,8
	C1310.8,542.1,1310.1,542.9,1309.2,542.8z"/>
<path class="st38" d="M1303.4,553.6l-12.3-10c-2.2-1.8-2.5-4.9-0.7-7.1l10-12.3c1.8-2.2,4.9-2.5,7.1-0.7l12.3,10
	c2.2,1.8,2.5,4.9,0.7,7.1l-10,12.3C1308.8,555,1305.6,555.3,1303.4,553.6z"/>
<line class="st40" x1="1447.7" y1="518.9" x2="1421.8" y2="520.2"/>
<line class="st40" x1="1422.7" y1="501.5" x2="1416.5" y2="511.1"/>
<ellipse transform="matrix(0.3827 -0.9239 0.9239 0.3827 419.9423 1665.5352)" class="st40" cx="1456.3" cy="518.5" rx="8.6" ry="8.6"/>
<circle class="st40" cx="1427.4" cy="494.2" r="8.6"/>
<circle class="st40" cx="1410.2" cy="520.8" r="11.6"/>
<rect x="1455.7" y="515.2" transform="matrix(0.8854 -0.4648 0.4648 0.8854 -74.6435 736.6472)" width="2.1" height="9"/>
<polygon points="1458.9,517.7 1453.8,520.4 1452.8,518.5 1458.1,515.7 "/>
<rect x="1455.4" y="512.2" transform="matrix(0.885 -0.4657 0.4657 0.885 -71.4675 737.095)" class="st41" width="1.4" height="1.9"/>
<path d="M1455.6,512.3l-0.9,0.5c-1.2,0.6-1.6,2.1-1,3.3l0.4,0.7l1.9-1c0,0-0.1-0.1-0.1-0.1l-0.2-0.3c-0.2-0.4-0.1-0.9,0.3-1.1
	l0.5-0.3L1455.6,512.3z"/>
<path d="M1428.5,499.1l-0.5,0.3c0,0,0,0,0,0c-0.1,0.1-0.3,0.1-0.4,0.2c-0.3,0.1-0.6,0.2-0.9,0.3c-0.5,0.1-1,0.1-1.5,0.1
	c-0.1,0-0.1,0-0.2,0c0.5-0.2,1-0.5,1.4-0.9c0.4-0.4,0.7-0.8,1-1.4c-0.4,0.2-0.8,0.3-1.3,0.2c-0.5-0.1-0.8-0.3-1.2-0.6
	c0.1-0.1,0.3-0.1,0.4-0.2c0.1-0.1,0.3-0.2,0.4-0.3c-0.5,0.1-1,0.1-1.4-0.1c-0.5-0.2-0.8-0.5-1.1-1c0.2,0,0.3,0,0.5-0.1
	c0.2,0,0.3-0.1,0.5-0.2c-0.6-0.1-1-0.3-1.4-0.7c-0.4-0.4-0.5-0.9-0.5-1.5c0.8,0.3,1.6,0.5,2.5,0.5c0.9,0,1.7-0.2,2.5-0.6
	c0,0,0,0,0,0c-0.2-0.2-0.3-0.5-0.4-0.8c-0.2-0.5-0.1-1.1,0.2-1.6c0.2-0.3,0.4-0.6,0.6-0.7c0.1,0,0.1-0.1,0.2-0.1l0.2-0.1
	c0,0,0,0,0.1,0c0.1,0,0.1-0.1,0.2-0.1c0.4-0.1,0.9-0.1,1.3,0c0,0,0,0,0.1,0c0.3-0.3,0.6-0.6,0.8-0.9c0-0.1,0.1-0.1,0.1-0.2
	c0.1,0.5,0,1-0.3,1.5c0.3-0.2,0.7-0.5,0.9-0.8c0,0,0,0,0,0.1c-0.1,0.5-0.2,0.9-0.4,1.4c0,0,0,0.1,0,0.1c0.1,0.2,0.2,0.4,0.3,0.6
	c0.1,0.3,0.2,0.6,0.3,0.9c0.3,1.1,0.3,2.2,0,3.3c-0.3,1.1-0.9,2-1.7,2.8c-0.3,0.2-0.6,0.5-0.9,0.6
	C1428.6,499,1428.6,499,1428.5,499.1"/>
<polygon class="st42" points="79.5,469.5 129.8,521.9 148.7,501.9 166.6,519.3 166.6,488.1 188.1,474.4 "/>
<polyline class="st42" points="166.6,488.1 79.5,469.5 148.7,501.9 "/>
<line class="st42" x1="141.7" y1="509.3" x2="166.6" y2="519.3"/>
<polygon class="st43" points="1532.4,544.8 1508,599.1 1487.8,588.8 1478.8,607.2 1470.2,583.1 1449.9,578.3 "/>
<polyline class="st43" points="1470.2,583.1 1532.4,544.8 1487.8,588.8 "/>
<line class="st43" x1="1495.3" y1="592.6" x2="1478.8" y2="607.2"/>
<path class="st44" d="M1338.6,667.4c0,0,0.7,0.3,2,0.9"/>
<path class="st45" d="M1344.8,669.9c9.4,3.4,27.7,8.4,43,2.6c21.6-8.2,34.9-63.9-4.5-58s-25.5,70.6,30.5,58
	c41.1-9.2,59.1-45.9,63.7-58.6"/>
<path class="st44" d="M1478.3,611.8c0.4-1.2,0.5-1.9,0.5-2.2"/>
<path class="st44" d="M166.6,519.3c0,0,0.6,0.5,1.8,1.3"/>
<path class="st46" d="M172.1,523.1c8.4,5.3,25.3,14.1,41.6,12.5c22.9-2.2,50.5-52.6,10.9-57.1c-39.6-4.6-42.3,65.2,15,62.4
	c48.4-2.3,68.9-40.1,74.4-52.9"/>
<path class="st44" d="M314.8,485.9c0.4-1.1,0.7-1.9,0.7-2.1"/>
</svg>
