<?xml version="1.0" encoding="utf-8"?>
<!-- Generator: Adobe Illustrator 16.0.0, SVG Export Plug-In . SVG Version: 6.00 Build 0)  -->
<!DOCTYPE svg PUBLIC "-//W3C//DTD SVG 1.1//EN" "http://www.w3.org/Graphics/SVG/1.1/DTD/svg11.dtd">
<svg version="1.1" id="Layer_1" xmlns="http://www.w3.org/2000/svg" xmlns:xlink="http://www.w3.org/1999/xlink" x="0px" y="0px"
	 width="106px" height="113px" viewBox="0 0 106 113" enable-background="new 0 0 106 113" xml:space="preserve">
<polygon fill="none" stroke="#233850" stroke-width="3" stroke-linejoin="round" points="74.996,96.253 31.518,96.253 26.122,110.5 
	80.393,110.5 "/>
<path fill="none" stroke="#233850" stroke-width="3" stroke-linejoin="round" d="M23.87,20.442h-0.006
	c-4.125,0.935-7.745-0.005-10.471-0.708c-1.173-0.303-3.133-0.805-3.532-0.556c0,0-0.46,0.334-0.827,2.171
	C7.337,29.845,10.4,38.6,17.026,44.191c4.332,3.656,8.015,5.585,13.502,5.611"/>
<path fill="none" stroke="#233850" stroke-width="3" stroke-linejoin="round" d="M23.114,14.896
	c-2.982,0.82-5.698,0.123-8.329-0.557c-2.684-0.691-5.46-1.409-7.887,0.119c-2.229,1.399-2.97,3.981-3.332,5.801
	c-2.09,10.489,1.69,21.291,9.863,28.194c5.39,4.542,12.125,6.924,18.953,6.924c0.847,0-0.306,0.063,0.542-0.006"/>
<path fill="none" stroke="#233850" stroke-width="3" stroke-linejoin="round" d="M82.645,20.442h0.005
	c4.126,0.935,7.745-0.005,10.472-0.708c1.174-0.303,3.135-0.805,3.534-0.556c0,0,0.458,0.334,0.826,2.171
	c1.696,8.496-1.367,17.25-7.994,22.842c-4.331,3.656-8.014,5.585-13.501,5.611"/>
<path fill="none" stroke="#233850" stroke-width="3" stroke-linejoin="round" d="M83.399,14.896c2.983,0.82,5.7,0.123,8.329-0.557
	c2.685-0.691,5.461-1.409,7.887,0.119c2.23,1.399,2.972,3.981,3.333,5.801c2.09,10.489-1.691,21.291-9.864,28.194
	c-5.39,4.542-12.124,6.924-18.952,6.924c-0.847,0,0.306,0.063-0.541-0.006"/>
<path fill="none" stroke="#233850" stroke-width="3" stroke-linecap="round" stroke-linejoin="round" d="M53.708,3.019L22.392,3.121
	c0.012,4.19,0.254,8.569,0.719,13.012c0.206,2.013,0.459,4.042,0.75,6.078c1.188,8.205,3.003,16.339,5.538,24.235
	c2.029,6.319,4.594,13.08,8.403,18.542c2.419,3.471,5.132,6.785,6.895,10.63c3.347,7.309,1.495,17.027-6.306,20.635"/>
<path fill="none" stroke="#233850" stroke-width="3" stroke-linecap="round" stroke-linejoin="round" d="M68.123,96.253
	c-7.8-3.607-9.652-13.326-6.306-20.635c1.763-3.845,4.476-7.159,6.896-10.63c3.809-5.462,6.373-12.223,8.402-18.542
	c2.535-7.896,4.351-16.03,5.537-24.235c0.292-2.036,0.546-4.065,0.752-6.078c0.463-4.443,0.706-8.822,0.718-13.012L52.807,3.019"/>
<polygon fill="none" stroke="#05A8C9" stroke-width="3" stroke-linecap="round" stroke-linejoin="round" points="53.257,12.164 
	57.077,19.905 65.619,21.146 59.438,27.172 60.898,35.679 53.257,31.662 45.617,35.679 47.077,27.172 40.896,21.146 49.438,19.905 
	"/>
</svg>
