<?xml version="1.0" encoding="utf-8"?>
<!-- Generator: Adobe Illustrator 16.0.0, SVG Export Plug-In . SVG Version: 6.00 Build 0)  -->
<!DOCTYPE svg PUBLIC "-//W3C//DTD SVG 1.1//EN" "http://www.w3.org/Graphics/SVG/1.1/DTD/svg11.dtd">
<svg version="1.1" id="Layer_1" xmlns="http://www.w3.org/2000/svg" xmlns:xlink="http://www.w3.org/1999/xlink" x="0px" y="0px"
	 width="128px" height="108px" viewBox="0 0 128 108" enable-background="new 0 0 128 108" xml:space="preserve">
<polyline fill="none" stroke="#233850" stroke-width="3" stroke-linecap="round" stroke-linejoin="round" points="38.589,43.11 
	38.589,2.574 124.641,2.574 124.641,50.265 114.621,50.265 114.851,64.893 90.888,50.265 89.409,50.265 "/>
<polygon fill="none" stroke="#233850" stroke-width="3" stroke-linecap="round" stroke-linejoin="round" points="52.315,19.822 
	95.651,19.822 95.651,11.25 110.912,26.511 95.651,41.772 95.651,33.943 52.315,33.943 "/>
<polygon fill="none" stroke="#05A8C9" stroke-width="3" stroke-linecap="round" stroke-linejoin="round" points="89.409,43.111 
	3.359,43.111 3.359,90.801 13.378,90.801 13.148,105.426 37.113,90.801 89.409,90.801 "/>
<polygon fill="none" stroke="#05A8C9" stroke-width="3" stroke-linecap="round" stroke-linejoin="round" points="75.683,60.357 
	32.347,60.357 32.347,51.786 17.086,67.047 32.347,82.309 32.347,74.479 75.683,74.479 "/>
</svg>
