<?xml version="1.0" encoding="utf-8"?>
<!-- Generator: Adobe Illustrator 22.0.0, SVG Export Plug-In . SVG Version: 6.00 Build 0)  -->
<svg version="1.1" id="Layer_1" xmlns="http://www.w3.org/2000/svg" xmlns:xlink="http://www.w3.org/1999/xlink" x="0px" y="0px"
	 width="121px" height="126px" viewBox="0 0 121 126" style="enable-background:new 0 0 121 126;" xml:space="preserve">
<style type="text/css">
	.st0{fill:none;stroke:#223850;stroke-width:2;stroke-miterlimit:10;}
	.st1{fill:none;stroke:#05A8C9;stroke-width:2;stroke-linecap:round;stroke-linejoin:round;stroke-miterlimit:10;}
	.st2{fill:none;stroke:#223850;stroke-width:2;stroke-linecap:round;stroke-linejoin:round;stroke-miterlimit:10;}
	.st3{fill:none;stroke:#05A8C9;stroke-width:2;stroke-linejoin:bevel;stroke-miterlimit:10;}
</style>
<path class="st0" d="M93.9,58.3v52.2c0,3.4-2.7,6.1-6.1,6.1H40.5"/>
<path class="st0" d="M28.5,53.4V9.8c0-3.4,2.7-6.1,6.1-6.1h53.2c3.4,0,6.1,2.7,6.1,6.1v27.1"/>
<polyline class="st0" points="89.3,58.3 89.3,103.7 40.5,103.7 "/>
<polyline class="st0" points="33.2,53.4 33.2,10.6 89.3,10.6 89.3,36.9 "/>
<path class="st0" d="M7.7,53.4h29.5c1.9,0,3.4,1.5,3.4,3.4v62.8c0,1.9-1.5,3.4-3.4,3.4H7.7c-1.9,0-3.4-1.5-3.4-3.4V56.8
	C4.3,55,5.8,53.4,7.7,53.4z"/>
<line class="st0" x1="4.3" y1="59.7" x2="40.5" y2="59.7"/>
<line class="st0" x1="40.5" y1="114.4" x2="4.3" y2="114.4"/>
<path class="st0" d="M62.2,112.6h-2.4c-1.1,0-2-0.9-2-2v-0.1c0-1.1,0.9-2,2-2h2.4c1.1,0,2,0.9,2,2v0.1
	C64.2,111.7,63.3,112.6,62.2,112.6z"/>
<path class="st1" d="M113.2,58.3H65.8c-2.7,0-4.9-2.2-4.9-4.9V41.8c0-2.7,2.2-4.9,4.9-4.9h47.4c2.7,0,4.9,2.2,4.9,4.9v11.5
	C118.2,56.1,116,58.3,113.2,58.3z"/>
<path class="st2" d="M89.3,77.6"/>
<polyline class="st3" points="68.5,43.3 70.8,52.5 73.6,43.3 76.3,52.5 78.7,43.3 "/>
<polyline class="st3" points="83.2,43.3 85.4,52.5 88.2,43.3 90.9,52.5 93.3,43.3 "/>
<polyline class="st3" points="97.8,43.3 100,52.5 102.8,43.3 105.5,52.5 107.9,43.3 "/>
</svg>
